<svg xmlns="http://www.w3.org/2000/svg" viewBox="0 0 500 500"><path fill="#455a64" d="M228.85 389.14l159.41-21.33 66.98 47.47-157.25 31.41-69.14-57.55z"/><path fill="#263238" d="M228.85 389.14l69.14 57.55 157.25-31.41v2.63l-157.58 31.24-68.81-57.75v-2.26z"/><path d="M238.5 389.64l63.29 52.85 147.36-29.33-64.8-45.56s-43 .28-45.08.64-21.69 5.76-21.69 5.76-26.77 1.28-28.62 1.65c-1.26.26-28.24 5-42.76 9.09z" fill="#fff"/><path fill="#dbdbdb" d="M317.58 374.03l7.29 6.15 7.23 6.21 14.39 12.53 14.26 12.67 7.08 6.38 7.03 6.45-7.29-6.15-7.23-6.21-14.39-12.53-14.26-12.67-7.08-6.38-7.03-6.45zm56.28 41.1q6.81-2.33 13.76-4.19c1.16-.31 2.31-.64 3.48-.91.59-.14 1.17-.27 1.8-.37l1.78-.24 7.12-1c4.74-.66 9.5-1.24 14.25-1.87s9.5-1.18 14.26-1.74c-4.73.77-9.46 1.53-14.2 2.24s-9.47 1.45-14.21 2.11l-7.11 1-1.78.25c-.55.1-1.14.25-1.71.39l-3.48.86c-4.63 1.25-9.27 2.43-13.96 3.47zm-4.19-4.22q6.7-1.89 13.5-3.38c2.27-.5 4.51-1 6.85-1.36l6.88-1c4.59-.67 9.18-1.27 13.78-1.9s9.19-1.21 13.79-1.77c-4.57.78-9.14 1.55-13.72 2.27s-9.16 1.47-13.75 2.14l-6.88 1c-1.14.16-2.24.41-3.38.64l-3.41.68q-6.79 1.5-13.66 2.68zm-4.08-3.81c4.44-1.21 8.91-2.33 13.41-3.31 2.25-.49 4.48-1 6.78-1.4l6.87-.79c4.57-.53 9.16-1 13.73-1.49s9.17-.92 13.75-1.35c-4.56.65-9.12 1.28-13.68 1.86s-9.13 1.19-13.7 1.73c-2.28.29-4.58.54-6.84.85l-6.75 1.34q-6.75 1.46-13.57 2.56zm-3.54-2.87c4.33-1.68 8.74-3.08 13.21-4.34.56-.16 1.12-.3 1.7-.42a13.6 13.6 0 011.76-.26l3.46-.31 6.92-.6c9.22-.74 18.45-1.45 27.69-2-9.2 1-18.42 1.88-27.63 2.77l-6.91.64-3.45.33a19.52 19.52 0 00-3.33.69c-4.47 1.14-8.9 2.46-13.42 3.5zm-3.84-3.45c4.33-1.68 8.74-3.08 13.2-4.34.57-.16 1.13-.3 1.7-.42a13.74 13.74 0 011.77-.26l3.46-.31 6.92-.6c9.22-.74 18.45-1.45 27.69-2-9.2 1-18.42 1.88-27.63 2.76l-6.91.65-3.45.33a19.52 19.52 0 00-3.33.69c-4.46 1.14-8.9 2.45-13.42 3.5zm-3.84-3.46c4.32-1.67 8.73-3.07 13.2-4.33.56-.16 1.13-.3 1.7-.42a12.19 12.19 0 011.77-.26l3.46-.31 6.91-.6c9.23-.74 18.46-1.45 27.7-2-9.21 1-18.42 1.88-27.63 2.76l-6.91.65-3.45.33a18.6 18.6 0 00-3.33.69c-4.47 1.17-8.9 2.45-13.42 3.49zm37.45-10.26c4.94-.37 8.2-.44 13.14-.76-9.2 1-12 1.11-21.25 2a58.14 58.14 0 018.11-1.24z"/><path d="M246.2 384.77l60.15 47.92s33.75-7.48 40.07-8.48 28.73.23 28.73.23 27.56-9.22 39.32-11 29-2.57 29-2.57l5.63 2.25-70.9 14.11-76.46 15.22-63.24-52.81z" fill="#ebebeb"/><path d="M395.33 249.28c16.95 16.59 19.8 42.27 16.22 64.75-.09.51-.88.37-.88-.11 0-5.12.16-10.19.14-15.25l-.26-.68c-4.42-3.21-8.49-6.85-11-11.83-2.83-5.56-4-11.84-6.11-17.66-.2-.56.39-.39.78-.1 10.31 7.6 13.6 15.78 16.56 26.72a91.22 91.22 0 00-1.8-17c-2.23-10.38-6.63-20.66-14.09-28.36-.29-.33.11-.76.44-.48z" fill="#263238"/><path d="M392.15 251.21c-2.92.1-4.75 4.76-7 6.12a2.19 2.19 0 01-3.22-.5c-2.25-3.15.84-7 3.74-9.19-2.07.85-3.8 2.35-6 2.78a2.1 2.1 0 01-2.72-1.64c-1-4.28 4.38-6.19 8.07-6.28-1.79-1.24-6.91-4.62-4.19-6.28s8.77 3.16 10.73 4.75c2.89 2.34 6.32 5.84 6.45 9.5.11 4.27-3.62 1.64-5.86.74z" fill="#00e77f"/><path d="M392.15 251.21c-2.92.1-4.75 4.76-7 6.12a2.19 2.19 0 01-3.22-.5c-2.25-3.15.84-7 3.74-9.19-2.07.85-3.8 2.35-6 2.78a2.1 2.1 0 01-2.72-1.64c-1-4.28 4.38-6.19 8.07-6.28-1.79-1.24-6.91-4.62-4.19-6.28s8.77 3.16 10.73 4.75c2.89 2.34 6.32 5.84 6.45 9.5.11 4.27-3.62 1.64-5.86.74z" opacity=".1"/><path d="M393 251.93c-3.73-1.69-10.89.75-11.5-.67-1.23-2.87 4.49-4.84 7.58-5.22-2.85-.77-8.3-2-8.13-4.74.2-3.35 8.36-.47 12.49 2.69 5.2 4 5.17 7.84 4.31 8.61-1.19 1.06-4.14-.39-4.75-.67z" fill="#00e77f"/><path d="M433.93 247.64c-17.56 15.93-21.38 41.48-18.67 64.09.07.51.87.4.88-.08.2-5.11.24-10.19.45-15.24l.28-.67c4.55-3.05 8.75-6.53 11.46-11.41 3-5.45 4.39-11.68 6.77-17.41.23-.55-.37-.41-.77-.14-10.59 7.22-14.19 15.22-17.56 26.07a90.23 90.23 0 012.44-16.94c2.62-10.29 7.41-20.4 15.16-27.81.28-.28-.13-.75-.44-.46z" fill="#263238"/><path d="M437 249.69c2.91.21 4.56 4.94 6.78 6.38a2.19 2.19 0 003.24-.38c2.37-3.06-.57-7.05-3.39-9.33 2 .94 3.71 2.5 5.93 3a2.11 2.11 0 002.79-1.53c1.15-4.24-4.15-6.35-7.83-6.58 1.83-1.17 7.08-4.36 4.42-6.12s-8.88 2.83-10.9 4.34c-3 2.23-6.54 5.59-6.81 9.24-.29 4.29 3.54 1.79 5.77.98z" fill="#00e77f"/><path d="M437 249.69c2.91.21 4.56 4.94 6.78 6.38a2.19 2.19 0 003.24-.38c2.37-3.06-.57-7.05-3.39-9.33 2 .94 3.71 2.5 5.93 3a2.11 2.11 0 002.79-1.53c1.15-4.24-4.15-6.35-7.83-6.58 1.83-1.17 7.08-4.36 4.42-6.12s-8.88 2.83-10.9 4.34c-3 2.23-6.54 5.59-6.81 9.24-.29 4.29 3.54 1.79 5.77.98z" opacity=".1"/><path d="M436.17 250.38c3.79-1.56 10.86 1.15 11.52-.23 1.34-2.83-4.3-5-7.37-5.51 2.87-.66 8.36-1.68 8.3-4.43-.08-3.36-8.34-.79-12.58 2.22-5.35 3.79-5.47 7.63-4.64 8.44 1.14 1.13 4.15-.24 4.77-.49z" fill="#00e77f"/><path d="M416 289.73a173.25 173.25 0 01-5.46 25.2.63.63 0 01-1.23-.25c1.16-7.77 3.26-15.39 4.42-23.15a116.86 116.86 0 001.35-23.78c-.74-13.08-4.3-27-12.84-37.24-.18-.24.21-.59.41-.36 17.06 19.93 14.35 44.37 14.35 46.56 2.42-8.25 4.91-17.71 14.07-26.11.39-.36.7-.19.63.42-1.63 15.31-5.89 23.3-14.76 31.48q-.39 3.65-.94 7.23z" fill="#263238"/><path d="M402.06 232.8c-3.08-1.36-7.32 2.55-10.36 2.82-1.61.15-2.8-.49-3.09-2.15-.75-4.39 4.41-6.86 8.51-7.65-2.58-.16-5.13.53-7.66-.15-1.54-.43-2.38-1.48-2-3.07 1.13-4.94 7.67-4.21 11.54-2.45-1.23-2.19-4.85-8.28-1.19-8.63s7.51 7.7 8.75 10.34c1.81 3.87 3.62 9.23 1.91 13.09-1.98 4.52-4.53-.09-6.41-2.15z" fill="#00e77f"/><path d="M402.06 232.8c-3.08-1.36-7.32 2.55-10.36 2.82-1.61.15-2.8-.49-3.09-2.15-.75-4.39 4.41-6.86 8.51-7.65-2.58-.16-5.13.53-7.66-.15-1.54-.43-2.38-1.48-2-3.07 1.13-4.94 7.67-4.21 11.54-2.45-1.23-2.19-4.85-8.28-1.19-8.63s7.51 7.7 8.75 10.34c1.81 3.87 3.62 9.23 1.91 13.09-1.98 4.52-4.53-.09-6.41-2.15z" opacity=".1"/><path d="M402.57 234c-3-3.63-11.67-4.71-11.59-6.48.16-3.6 7.09-2.76 10.49-1.6-2.56-2.23-7.6-6.25-6.05-9 1.9-3.37 8.91 3.73 11.6 9.09 3.39 6.76 1.42 10.73.14 11.1-1.76.45-4.09-2.54-4.59-3.11zm24.65 60.33l7.54 57.61h-45.89c.95-5.1 9.49-57.67 9.49-57.67z" fill="#00e77f"/><path fill="#263238" d="M45.75 351.7l51.07-.24 51.06-.09L250 351.2l102.12.17 51.07.09 51.06.24-51.06.25-51.07.09-102.12.16-102.12-.16-51.06-.09-51.07-.25zM126 163.89c-10.65 21.17-27 44.77-27 69.34 0 19.25 10.23 36.77 22.74 50.77 27.56 30.63 74.8 54.2 114.2 30.88 15.72-9.32 30.11-37 18.82-54.53-5.81-9-15-14.59-23.13-21.25-10.74-8.75-16.48-19.55-17-33.46-1.1-27.1 8.38-42.33 17-67.24 1.58-4.63 2.51-9.47-.2-15.19a33.3 33.3 0 00-10.68-14.27 33.22 33.22 0 00-13.48-8.94c-11.11-3.65-25.69 1.57-36.63 4s-17.79 7.19-23.11 17.33c-7.38 14.05-14.35 28.36-21.53 42.56z"/><path d="M118.77 172.88c11-18.77 22.4-37.3 33.67-55.91.07-.12.26 0 .19.09-8.83 15.58-17.43 31.27-26.46 46.75-8.85 15.16-19 30.15-26.48 46-16.82 35.67 13.6 66.91 45 78.87 1.43.54.4 2.76-1 2.16-27.21-11.37-55.2-35-50.21-67.84 2.68-17.95 16.28-34.78 25.29-50.12zm111.96-37.17a.33.33 0 01.59.28c-8 20.19-19.17 43-15.63 65.26a54.94 54.94 0 0014.43 29.22c6.06 6.36 13.82 10.16 20.9 15.17 27.7 19.59 9.6 60.73-19.65 66.83-.61.13-.86-.93-.24-1.08 21.08-5.41 36.3-25.62 31-47.82-4.21-17.81-25.62-22.37-36.28-35.74-22.03-27.72-8.62-63.66 4.88-92.12z" fill="#263238"/><path d="M184.54 215.38c15.91 48 43.07 107.07 58.11 118.19 12.89 9.53 61.35 22.12 82.35 20.81 6.17-.38 2.29-57-4.28-57.81-10.52-1.27-49.64-10.7-50.42-10.89-1.67-.42-44.92-60.59-63.18-77.42-21.34-19.68-29.7-14.34-22.58 7.12z" fill="#ffc4c0"/><path d="M323.77 311.72s34.91 19.28 36.29 20.81-.74 3.58-2.34 5.23a20.08 20.08 0 01-3.67 1.95c-5.93 2.82-16.28 8-11.44 14.77 6.36 8.86 29.64-2.82 33-5.22a12.75 12.75 0 003.08-4.49c2.81-5.95 5-16.1.48-22.66-6.2-9-16.49-15.11-25-21.06z" fill="#ffc4c0"/><path d="M323.77 311.72s34.91 19.28 36.29 20.81-.74 3.58-2.34 5.23a20.08 20.08 0 01-3.67 1.95c8.76 1.84 18.44 3.82 24.63 5.06 2.81-5.95 5-16.1.48-22.66-6.2-9-16.49-15.11-25-21.06z" fill="#263238"/><path d="M282.87 348.62c2.31.39 21.38 6.79 35.75 11.62 9.81-6.4 30.84-16.86 36.4-19.66 5.65-4.16 20.11-9.85 20.41-9.23.58 1.15 2.61 5.24 5.47 10 3.79 6.28 9 13.76 14.16 17.25 2.82 1.89 5.59 2.61 8.13 1.35 4.57-2.25.05-12.45-4.25-25-5.84-17.1-13.94-37.8-23-41.32-13.4-5.22-34.47-.2-40.91.57s-33.41-1-33.41-1c-26.07 23.38-21.82 54.88-18.75 55.42z" fill="#ffc4c0"/><path d="M347 285.68s-4.78-12.51 4-15.08 11.5 10.55 11.5 10.55z" fill="#ff9bbc"/><path fill="#00e77f" d="M346.854 285.195l15.512-4.53 26.405 90.414-15.512 4.53z"/><path opacity=".1" d="M351.554 293.728l1.008-.294 22.222 76.091-1.008.295zm3.476-1.032l1.007-.294 22.222 76.092-1.008.294zm3.467-1.002l1.008-.294 22.222 76.091-1.008.295zm3.484-1.034l1.008-.295 22.222 76.092-1.008.294z"/><path fill="#37474f" d="M345.406 285.087l18.113-5.29 1.049 3.59-18.114 5.29zm1.156 3.976l18.114-5.29 1.048 3.59-18.113 5.29z"/><path d="M388.78 371.05l-2.58 12.86-.83 4.25-3-3.12-9.1-9.46.91-2.71s2.15 1.78 2.2 1.81l.91-2.72 2.19 1.81.88-2.7s2.18 1.77 2.23 1.79l.88-2.7s2.18 1.77 2.22 1.79l.88-2.7z" fill="#ebebeb"/><path fill="#37474f" d="M386.2 383.91l-.83 4.25-3.02-3.12 3.85-1.13z"/><path d="M318.62 360.24c4.9 1.67 9.25 3.2 12.17 4.32 11.52 4.43 19.35 3.16 27.34.58s31.55 6.26 26.73-6.66-32.31-11.66-32.05-15.33c.05-.7.88-1.6 2.21-2.57-5.56 2.8-26.59 13.26-36.4 19.66z" fill="#ffc4c0"/><path d="M358.82 338.21c.3-.11.35.1 0 .3-1 .61-5.29 3.41-4.78 4.48.9 1.85 13.26 3.89 18.3 5.65.27.09.17.48-.09.37-1.32-.55-6.74-1.47-8-1.74-2.54-.5-10.4-1.49-11.53-3.82-.72-1.56 4.91-4.78 6.1-5.24z" fill="#263238"/><path d="M256.28 252l-56.14 13.1S184 225.67 180 203.53c-2.21-12.42 5.11-13.3 14.68-7.13 33.53 21.6 61.6 55.6 61.6 55.6z" fill="#00e77f"/><path d="M242.38 239.17a3 3 0 01-1.14.76 2.44 2.44 0 01-2.36-.41 3.21 3.21 0 00-3.58-.16 3.11 3.11 0 00-1.17 1.29c-.24.49-.51.94-.71 1.44.44-.32.8-.69 1.21-1a3.22 3.22 0 011.13-.81 2.43 2.43 0 012.35.32 3.14 3.14 0 004.77-1c.22-.47.51-.93.71-1.43-.44.29-.82.65-1.21 1zm-51.08-32.4a3.16 3.16 0 01-1.14.76 2.47 2.47 0 01-2.36-.41 3.19 3.19 0 00-3.58-.18 3.12 3.12 0 00-1.17 1.32c-.24.47-.51.93-.71 1.43.44-.33.8-.71 1.21-1.06a3 3 0 011.13-.79 2.41 2.41 0 012.33.32 3.25 3.25 0 003.57.27 3.09 3.09 0 001.21-1.28c.23-.47.5-.92.71-1.42a14.91 14.91 0 00-1.2 1.04zm13.46 34.85c-.17-.5-.3-1-.51-1.51-.07.54-.07 1.06-.12 1.59a3.16 3.16 0 01-.22 1.36 2.44 2.44 0 01-1.91 1.44 3.22 3.22 0 00-2.72 2.32 3 3 0 00.05 1.76c.17.5.3 1 .5 1.51.08-.53.08-1.05.13-1.59a2.79 2.79 0 01.27-1.35 2.48 2.48 0 011.94-1.37 3.15 3.15 0 002.65-2.42 3 3 0 00-.06-1.74zM219 219.76a3 3 0 01-1.34-.27 2.43 2.43 0 01-1.37-2 3.23 3.23 0 00-2.42-2.65 3.15 3.15 0 00-1.74.11c-.5.17-1 .3-1.53.5.55.08 1.07.08 1.61.11a3.34 3.34 0 011.36.24 2.47 2.47 0 011.44 1.88 3.19 3.19 0 002.32 2.72 3 3 0 001.75-.05c.51-.17 1-.3 1.52-.52-.53-.04-1.05-.02-1.6-.07z" fill="#fff"/><path d="M200 255.8c8.47-2.72 31.66-9.46 47.31-11.86.09 0 .19.33.1.36-12.71 4-38.59 10-47.26 12-.15.06-.26-.44-.15-.5z" fill="#263238"/><path d="M248.77 253.77l-48.63 11.33S184 225.67 180 203.53c-1.42-7.94 1.07-11.17 5.56-10.84z" opacity=".1"/><path d="M232.13 351.25H88.35s15.94-98.59 62.26-151.33c12.5-14.23 32.29-11.74 43-2.11a99.21 99.21 0 0110.43 11.85c9.74 12.51 25.65 42.56 27.14 50.69 2.45 13.43-9.44 27.95-9.44 27.95z" fill="#00e77f"/><path d="M232.65 259.62c-1.33-5.54-4.41-10.6-7.12-15.56-2.86-5.23-5.86-10.37-8.94-15.48l-.33-.54c-.51-1.63-1.25-3.23-1.87-4.81-.79-2-1.65-4-2.43-6a.06.06 0 00-.12 0c.65 2.11 1.29 4.23 2.06 6.3.2.53.39 1.07.59 1.62-1-1.7-2.08-3.4-3.16-5.08-1.83-2.86-3.76-5.65-5.59-8.51a.07.07 0 00-.11.07c2.94 5 5.76 10.1 8.69 15.12s5.79 10.07 8.53 15.19q2 3.81 4 7.69a67.53 67.53 0 013.3 7.49 24.23 24.23 0 01.1 15.4c-1.77 5.66-4.92 10.81-7.92 15.89-.12.2.2.45.35.25 6.24-8.29 12.58-18.17 9.97-29.04z" fill="#263238"/><path d="M183.17 340.52a2.64 2.64 0 01-1.13.74 2.44 2.44 0 01-2.36-.4 3.13 3.13 0 00-4.74 1.14c-.23.48-.5.93-.71 1.44.43-.33.81-.71 1.22-1.06a2.92 2.92 0 011.12-.79 2.4 2.4 0 012.34.3 3.21 3.21 0 003.57.29 3.06 3.06 0 001.2-1.28c.24-.48.51-.94.71-1.43-.39.32-.81.7-1.22 1.05zm21.54-46.1a2.66 2.66 0 01-1.14.76 2.48 2.48 0 01-2.35-.41 3.22 3.22 0 00-3.59-.16 3.16 3.16 0 00-1.15 1.3c-.24.49-.51.93-.71 1.43.42-.31.8-.69 1.2-1a3.45 3.45 0 011.13-.81 2.4 2.4 0 012.34.32 3.23 3.23 0 003.57.28 3 3 0 001.2-1.27c.24-.48.51-.94.72-1.44-.45.29-.81.65-1.22 1zm-67.5 16.25a2.85 2.85 0 01-1.14.76 2.42 2.42 0 01-2.35-.41 3.17 3.17 0 00-4.76 1.14c-.23.49-.5.93-.71 1.43a15.2 15.2 0 001.22-1 3.64 3.64 0 011.12-.81 2.47 2.47 0 012.36.32 3.13 3.13 0 004.77-1c.22-.48.5-.94.71-1.44-.43.34-.82.66-1.22 1.01zM158.62 251a3 3 0 01-1.14.76 2.43 2.43 0 01-2.35-.41 3.22 3.22 0 00-3.59-.16 3.18 3.18 0 00-1.17 1.29c-.23.49-.5.94-.71 1.44a15.2 15.2 0 001.22-1 3.38 3.38 0 011.12-.81 2.44 2.44 0 012.36.32 3.14 3.14 0 004.77-1c.22-.47.5-.93.71-1.43-.44.27-.84.63-1.22 1zm-9.32-42.23a3 3 0 01-1.14.75 2.39 2.39 0 01-2.35-.41 3.21 3.21 0 00-2.17-.6c-.34.44-.67.89-1 1.34a2.43 2.43 0 012.35.32 3.22 3.22 0 003.56.28 3.15 3.15 0 001.21-1.28c.23-.47.51-.93.72-1.44a15.91 15.91 0 00-1.18 1.02zm42-2a3.16 3.16 0 01-1.14.76 2.47 2.47 0 01-2.36-.41 3.19 3.19 0 00-3.58-.18 3.12 3.12 0 00-1.17 1.32c-.24.47-.51.93-.71 1.43.44-.33.8-.71 1.21-1.06a3 3 0 011.13-.79 2.41 2.41 0 012.33.32 3.25 3.25 0 003.57.27 3.09 3.09 0 001.21-1.28c.23-.47.5-.92.71-1.42a14.91 14.91 0 00-1.2 1.04zm-43.19 130.76c-.17-.51-.3-1-.5-1.52-.08.54-.08 1.06-.13 1.6a3 3 0 01-.22 1.36 2.47 2.47 0 01-1.88 1.44 3.19 3.19 0 00-2.72 2.32 3 3 0 00.05 1.75c.17.51.3 1 .51 1.52.08-.54.08-1.06.12-1.6a3 3 0 01.27-1.34 2.49 2.49 0 012-1.37 3.24 3.24 0 002.65-2.42 3.15 3.15 0 00-.15-1.74zm-15.65-105.89c-.18-.51-.3-1-.52-1.52-.08.54-.07 1.06-.12 1.6a2.79 2.79 0 01-.23 1.36 2.44 2.44 0 01-1.88 1.43 3.25 3.25 0 00-2.72 2.33 3 3 0 00.06 1.75c.18.51.3 1 .51 1.52.08-.54.08-1.06.13-1.6a2.75 2.75 0 01.26-1.34 2.46 2.46 0 012-1.38 3.19 3.19 0 002.65-2.41 3.35 3.35 0 00-.14-1.74zm72.3 10c-.17-.5-.3-1-.51-1.51-.07.54-.07 1.06-.12 1.59a3.16 3.16 0 01-.22 1.36 2.44 2.44 0 01-1.91 1.42 3.22 3.22 0 00-2.72 2.32 3 3 0 00.05 1.76c.17.5.3 1 .5 1.51.08-.53.08-1.05.13-1.59a2.79 2.79 0 01.27-1.35 2.48 2.48 0 011.94-1.37 3.15 3.15 0 002.65-2.42 3 3 0 00-.06-1.74zm-93.14 49c-.18-.51-.3-1-.51-1.52-.08.54-.08 1.06-.13 1.6a2.91 2.91 0 01-.22 1.36 2.46 2.46 0 01-1.88 1.44 3.4 3.4 0 00-2 1.07c-.24.87-.47 1.74-.71 2.61a1.93 1.93 0 00.09.38c.18.51.3 1 .51 1.52.08-.54.08-1.06.13-1.6a2.62 2.62 0 01.26-1.32 2.44 2.44 0 012-1.39 3.18 3.18 0 002.65-2.42 3.07 3.07 0 00-.19-1.75zM230.93 344a3.17 3.17 0 00-1.89 2.1 3.2 3.2 0 00.05 1.77c.17.5.3 1 .52 1.51.08-.53.08-1.07.11-1.59a3 3 0 01.27-1.35 2.49 2.49 0 011.15-1.14zm-69.37-63c-.17-.51-.3-1-.52-1.52-.08.54-.06 1.08-.11 1.6a2.92 2.92 0 01-.24 1.37 2.43 2.43 0 01-1.88 1.44 3.23 3.23 0 00-2.72 2.31 3 3 0 00.07 1.77c.17.5.3 1 .5 1.51.08-.53.08-1.07.13-1.59a2.74 2.74 0 01.27-1.35 2.41 2.41 0 011.94-1.37 3.17 3.17 0 002.65-2.42 3.4 3.4 0 00-.09-1.75zm-1.16-88.46a1.58 1.58 0 00.09.31c.17.51.3 1 .5 1.52.08-.54.08-1.06.11-1.6a2.48 2.48 0 01.05-.56zm26.07 77.82a2.94 2.94 0 01-1.34-.27 2.45 2.45 0 01-1.37-2 3.14 3.14 0 00-4.18-2.54c-.5.17-1 .3-1.51.5.53.08 1.07.08 1.59.11a3.28 3.28 0 011.36.24 2.37 2.37 0 011.44 1.88 3.25 3.25 0 002.32 2.72 3.2 3.2 0 001.77-.05c.51-.17 1-.3 1.52-.52-.54-.04-1.07-.02-1.6-.07zm38.95 0a2.92 2.92 0 01-1.34-.27 2.46 2.46 0 01-1.38-2 3.13 3.13 0 00-4.17-2.54c-.5.17-1 .3-1.51.5.53.08 1.07.08 1.59.11a3.28 3.28 0 011.36.24 2.37 2.37 0 011.44 1.88 3.14 3.14 0 004.09 2.72c.51-.17 1-.3 1.52-.52-.54-.09-1.08-.07-1.6-.12zm-111.31 62.43a2.94 2.94 0 01-1.34-.27 2.42 2.42 0 01-1.37-2 3.14 3.14 0 00-4.18-2.54c-.5.17-1 .3-1.51.5.53.08 1.07.08 1.59.11a3.28 3.28 0 011.36.24 2.45 2.45 0 011.46 1.88 3.11 3.11 0 004.07 2.67c.51-.17 1-.3 1.52-.52-.54-.04-1.08-.04-1.6-.07zm58-18.22a3 3 0 01-1.34-.27 2.45 2.45 0 01-1.37-2 3.23 3.23 0 00-2.42-2.66 3.33 3.33 0 00-1.76.12 12.7 12.7 0 00-1.51.5c.54.08 1.07.08 1.59.11a3.07 3.07 0 011.38.24 2.46 2.46 0 011.44 1.88 3.21 3.21 0 002.32 2.72 3.14 3.14 0 001.75-.05c.51-.17 1-.3 1.52-.52-.52-.04-1.06-.04-1.58-.07zm-39.91-37.68a2.75 2.75 0 01-1.34-.27 2.43 2.43 0 01-1.37-1.94 3.21 3.21 0 00-2.42-2.66 3.06 3.06 0 00-1.74.1c-.5.17-1 .3-1.52.5.54.1 1.06.08 1.6.13a2.79 2.79 0 011.36.24 2.46 2.46 0 011.44 1.86 3.23 3.23 0 002.32 2.74 3.13 3.13 0 001.75-.07c.51-.17 1-.3 1.52-.5-.54-.08-1.06-.08-1.6-.13zm77 51a2.78 2.78 0 01-1.33-.28 2.43 2.43 0 01-1.39-1.94 3.16 3.16 0 00-2.42-2.66 3.22 3.22 0 00-1.73.1c-.51.17-1 .3-1.52.52.54.08 1.06.08 1.59.11a3 3 0 011.36.24 2.38 2.38 0 011.44 1.88 3.26 3.26 0 002.32 2.71 3 3 0 001.76-.06c.5-.16 1-.3 1.51-.51-.5 0-1.02 0-1.56-.08zm-31.59-94.08a3 3 0 01-1.35-.27 2.44 2.44 0 01-1.37-2 3.23 3.23 0 00-2.39-2.54 3.16 3.16 0 00-1.74.11c-.5.17-1 .3-1.53.5.55.08 1.08.08 1.61.11a3.31 3.31 0 011.36.24 2.45 2.45 0 011.44 1.88 3.19 3.19 0 002.32 2.72 3 3 0 001.76-.05c.5-.17 1-.3 1.51-.52-.54-.12-1.06-.1-1.59-.15z" fill="#fff"/><path d="M178.44 284.72a124.74 124.74 0 0118.54-.31c3.07.22 6.1.58 9.15 1 1.52.21 3 .37 4.56.53a20.2 20.2 0 004.79 0 .11.11 0 010 .22 35.44 35.44 0 01-4.48.73 34 34 0 01-4.4 0c-3.12-.2-6.22-.53-9.33-.76-6.28-.45-12.56-.9-18.85-.89-.25 0-.27-.5.02-.52zm-14.01 8.1a136 136 0 0114.91-3.46c2.52-.43 5-.7 7.59-.92 1.21-.1 2.43-.18 3.65-.24s2.69 0 4-.06c.14 0 .18.21 0 .22-1.26.13-2.5.46-3.75.65l-3.77.59c-2.52.39-5 .81-7.55 1.18-5 .74-10 1.53-15.07 2.45-.21.05-.26-.34-.01-.41z" fill="#263238"/><path d="M144.24 202.72C101.43 240.72 49 323 57.22 341c9.19 20 67.2-34.13 65.65-37.09-1.31-2.52 22.62-52.82 40-89.61s-8.05-20.97-18.63-11.58z" fill="#ffc4c0"/><path d="M91.88 248.19l55.69 14.88s17.44-38.88 22.09-60.89c2.61-12.34-4.68-13.46-14.44-7.6-34.22 20.5-63.34 53.61-63.34 53.61z" fill="#00e77f"/><path d="M102.36 247.19a2.92 2.92 0 01-1.34-.27 2.46 2.46 0 01-1.38-2 3.23 3.23 0 00-2.32-2.63l-.78.81a2 2 0 01.39.13 2.41 2.41 0 011.43 1.88 3.19 3.19 0 002.33 2.71 3 3 0 001.75 0c.51-.18 1-.3 1.52-.52-.54-.08-1.06-.07-1.6-.11zm58-55.12a2.77 2.77 0 00.16.78c.17.51.3 1 .5 1.52.08-.54.08-1.06.11-1.6a2.77 2.77 0 01.15-1zm-27.87 39.57c-.18-.51-.3-1-.52-1.52-.08.54-.07 1.06-.12 1.6a2.79 2.79 0 01-.23 1.36 2.44 2.44 0 01-1.88 1.43 3.25 3.25 0 00-2.72 2.33 3 3 0 00.06 1.75c.18.51.3 1 .51 1.52.08-.54.08-1.06.13-1.6a2.75 2.75 0 01.26-1.34 2.46 2.46 0 012-1.38 3.19 3.19 0 002.65-2.41 3.35 3.35 0 00-.17-1.74zm16.84-22.89a3 3 0 01-1.14.75 2.39 2.39 0 01-2.35-.41 3.26 3.26 0 00-3.59-.16 3.19 3.19 0 00-1.17 1.3c-.24.49-.5.93-.71 1.44.44-.32.81-.7 1.22-1a3.15 3.15 0 011.12-.81 2.43 2.43 0 012.35.32 3.22 3.22 0 003.56.28 3.15 3.15 0 001.21-1.28c.23-.47.51-.93.72-1.44a15.91 15.91 0 00-1.25 1.01zm2.24 42.42a3.18 3.18 0 00-1.17 1.29c-.23.49-.5.94-.71 1.44a15.2 15.2 0 001.22-1 3.38 3.38 0 011.12-.81 2 2 0 01.35-.1q.27-.6.51-1.23a3.1 3.1 0 00-1.35.41z" fill="#fff"/><path d="M148.27 253.23c-8.38-3-31.34-10.47-46.89-13.38-.1 0-.21.33-.12.36 12.58 4.37 38.25 11.28 46.85 13.54.16.04.32-.46.16-.52z" fill="#263238"/><path d="M140.78 261.26c2.34.31 4.65.73 6.95 1.19l-.75.36 1.42-3.64 1.47-3.62c1-2.4 2-4.79 3.09-7.17s2.13-4.74 3.22-7.1 2.22-4.7 3.29-7.09a49.4 49.4 0 01-2 7.6c-.83 2.48-1.75 4.93-2.73 7.35s-2 4.81-3.11 7.18l-1.69 3.53c-.59 1.16-1.89 3.67-1.89 3.67s-5.05-1.36-7.27-2.26z" fill="#263238"/><path d="M159.47 241.17a31.07 31.07 0 01-2.39 4.58 32.55 32.55 0 01-3 4.19 35.64 35.64 0 015.42-8.77z" fill="#263238"/><path d="M57.22 341c8.17 13.51 32.58 17.6 93.08 33.67 8.37 2.22 40-52.64 31.14-55.47-11.1-3.57-55-15-58.29-15.45-27.96-3.68-71.48 28.05-65.93 37.25z" fill="#ffc4c0"/><path d="M153.44 311.44s25.88-2.42 39.87.52C212.05 315.9 226.6 327 232.42 332c12.14 10.49 34.26 44.25 25.65 52.31-7.8 7.3-28.66-28.34-28.66-28.34s27.27 32.83 16.27 39.9-32.87-35.7-32.87-35.7 27.26 34.37 14.76 39.86c-9.44 4.15-31.43-33.46-31.43-33.46s23.23 29.7 13.7 34.38c-10.53 5.18-33-28.26-33-28.26-26.23 7.83-41.92.83-52.49-5.47-2.56-1.5 29.09-55.78 29.09-55.78z" fill="#ffc4c0"/><path d="M220.71 344c3.34 3.74 6.75 7.5 9.75 11.53s5.86 8.15 8.47 12.44c6.4 10.51 8.76 18.1 8.57 17.65-4.67-10.71-15.18-25.28-18.18-29.31s-5.78-8.19-8.77-12.21c-.08-.1.08-.1.16-.1zM206 354.6c4.06 5 8.27 9.74 12.11 14.88s7 10.31 10.47 15.67c.27.42 0 .42-.33 0-3.67-5.22-7.47-9.77-11.2-14.95s-7.27-10.51-11.18-15.53c-.08-.06.04-.15.13-.07zm-14.3 6.79c6.6 7.27 11.84 15.74 16.79 24.17.25.42-.15.39-.43 0-5.43-8.14-9.63-14.56-16.61-23.91-.11-.18.11-.41.25-.26zm-96.22-53.04c4.3-2.25 16.36-7.36 27.59-4.73a.1.1 0 010 .2c-9.37-.83-23.15 2.87-27.5 4.7-.13.05-.2-.12-.09-.17z" fill="#263238"/><path d="M174.19 187.59c-14.29 0-13.38 16.13-9.57 25.16 3.28 7.79 14.35 17.82 19.85 17.23s3.08-13.8 3.08-13.8 8 10.38 11.5 9.22 1.54-12.67-4.4-22.35-12.54-15.47-20.46-15.46z" fill="#fff"/><path d="M166.27 195c.29 2.43 9.89 19.09 20.78 19.8 3.55.22 5.64-19.1 5.64-19.1l.48-1.39 6.7-19.47-21.78-17.68-3.16-2.38s-1.49 5.45-3.26 12.26c-.09.31-.17.63-.26 1s-.22.75-.31 1.11c-.27 1-.55 2-.81 3.08-.2.79-.4 1.56-.58 2.39s-.38 1.65-.58 2.49c-1.8 8.22-2.97 16.89-2.86 17.89z" fill="#ffc4c0"/><path d="M171.67 167a41.29 41.29 0 0021.5 27.27l6.7-19.47-21.78-17.68-3.16-2.38s-1.49 5.49-3.26 12.26z" fill="#263238"/><path d="M234.08 155.34c-5.57 35.71-27.59 36.41-35.29 35.2-7-1.1-30.65-5.73-28.8-41.83s20.22-44.8 36.34-43.13 33.32 14.04 27.75 49.76z" fill="#ffc4c0"/><path d="M228.46 145.93a23.15 23.15 0 01-2.28-1 4.05 4.05 0 01-2.14-1.47 1.3 1.3 0 01.32-1.54 3.19 3.19 0 013.23-.09 4.68 4.68 0 012.54 2.23 1.37 1.37 0 01-1.67 1.87zM206 141.42c.85.07 1.65 0 2.5 0a4 4 0 002.54-.49 1.3 1.3 0 00.32-1.54 3.18 3.18 0 00-2.92-1.37 4.71 4.71 0 00-3.22 1 1.38 1.38 0 00.78 2.4zm2.84 9.91c0-.1-.21.08-.23.18-.37 2.43-1.2 5.16-3.54 5.56-.07 0-.09.13 0 .14 2.74.11 3.81-3.52 3.77-5.88z" fill="#263238"/><path d="M207.14 148.4c-3.83-1-5.58 6.74-2 7.68s5.22-6.83 2-7.68z" fill="#263238"/><path d="M205.53 148.47c-.78.28-1.61.91-2.45.81s-1.49-1.1-1.93-2c-.05-.1-.13-.05-.16 0-.35 1.49-.13 3.14 1.42 3.72s2.74-.55 3.45-2c.14-.18-.02-.65-.33-.53zm17.04 4.87c0-.09.16.16.14.25-.64 2.38-1 5.21 1 6.52.06 0 0 .16 0 .13-2.59-.99-2.12-4.75-1.14-6.9z" fill="#263238"/><path d="M225.3 151.34c3.92.6 2.42 8.4-1.22 7.84s-2.08-8.35 1.22-7.84z" fill="#263238"/><path d="M226.82 152.16c.54.53 1 1.4 1.73 1.59s1.64-.5 2.34-1.2c.07-.08.12 0 .11.1-.25 1.5-1 3-2.53 3s-2.07-1.45-2.14-3c-.01-.32.28-.65.49-.49zm-23.37 18.14c.42.71.78 1.63 1.62 1.94a6.56 6.56 0 002.72.1.09.09 0 01.07.15 3.31 3.31 0 01-3.37.46 2.61 2.61 0 01-1.29-2.61c0-.14.19-.14.25-.04zm13.1-6.72s-.27 3.72-.63 5.42a9.37 9.37 0 01-8.34-4.65c-.1-.18.17-.32.31-.18a12.41 12.41 0 006.94 3.69c.22-.45.25-6.38.52-6.35a15.62 15.62 0 013.69 1.7c.78-7.73.32-15.52 1.22-23.2a.24.24 0 01.47 0c1.06 8.13.35 17-.26 25-.06.99-3.3-1.01-3.92-1.43z" fill="#263238"/><path d="M169.84 148s-7.39-14.51-.16-30.28 30.6-21.61 49.51-10.81c0 0-28.9-5.08-38.76 7.84S169.84 148 169.84 148z" fill="#00e77f"/><path d="M174.94 153.06c6.51 1.52 9.76-13.41 9.76-13.41s28.59-1.85 33.34-24.48c0 0 3.31 15.08 17.34 23.2 0 0 1.62-25.18-17.76-32.11 0 0-23.74-11.53-39.64 6.61s-7.41 39.18-3.04 40.19z" fill="#263238"/><path d="M218.32 113.49A25 25 0 01216 123.8a26 26 0 01-6.26 8.69 21.25 21.25 0 01-2.09 1.7l-1.07.82c-.38.25-.77.47-1.16.69-.78.44-1.54.92-2.34 1.33s-1.65.69-2.48 1c-.41.16-.82.34-1.24.48l-1.29.35-2.56.7c-1.75.29-3.51.5-5.25.68 1.69-.54 3.39-.89 5-1.44l2.45-.89 1.21-.44c.4-.18.78-.39 1.16-.57.77-.39 1.54-.78 2.32-1.14s1.45-.91 2.18-1.35l1.08-.69 1-.79a20.51 20.51 0 002-1.64 29.56 29.56 0 006.24-8 30.29 30.29 0 002.08-4.73 29.49 29.49 0 001.34-5.07z" fill="#263238"/><path d="M175.61 151.19s-5-12.84-10.6-11.33-3.8 18.8 1.51 22.41a6.1 6.1 0 008.73-1.23z" fill="#ffc4c0"/><path d="M165.66 144.8c-.09 0-.14.1-.07.15 3.68 2.67 4.9 7 5.45 11.3-.85-1.82-2.3-3.06-4.69-2.11-.12.05-.06.25.06.25a3.75 3.75 0 013.7 2.26 18.47 18.47 0 011.13 3.73c.1.41.81.38.77-.08a.34.34 0 000-.1c1.38-5.2-.88-13.49-6.35-15.4z" fill="#263238"/><path d="M170.31 161.55a1.46 1.46 0 11-.93-1.85 1.47 1.47 0 01.93 1.85zm-2.68-3.4a1.06 1.06 0 01-2-.66 1.06 1.06 0 112 .66z" fill="#fff"/><path fill="#00e77f" d="M120.36 344.7l-5.4 67.88H77.61l-5.39-67.88h48.14z"/><path fill="#455a64" d="M68.68 338.57h54.89v9.9H68.68z"/><path fill="#37474f" d="M119.81 338.57H72.44l2.77-11.11h41.83l2.77 11.11z"/><path d="M109.25 379.24c0 8.81-5.8 15.95-13 15.95s-13-7.14-13-15.95 5.81-16 13-16 13 7.19 13 16z" fill="#fff"/></svg>