<svg xmlns="http://www.w3.org/2000/svg" viewBox="0 0 500 500"><path fill="#263238" d="M30.76 437.76l54.81-.24 54.81-.09 109.62-.16 109.62.16 54.81.09 54.81.24-54.81.25-54.81.09-109.62.16-109.62-.16-54.81-.09-54.81-.25z"/><path fill="#ebebeb" d="M294.48 90.01h165.8v167.58h-165.8z"/><path d="M370.71 79.9c5.53-6.49 15-8.05 24.16-6.2S415 80.17 416 95.49c.82 12.44-3 24.57-3 38.45s15.71 47.69-9.43 64.19c-22.59 14.82-68.36 1.21-69.77-29.3-1.11-24.18 27.57-46.54 30.59-56.11s.26-25.72 6.32-32.82z" fill="#263238"/><path d="M366.58 93.55c-.17 6.92-1.17 13.92-4 20.45a19.66 19.66 0 01-2.85 4.59c-1.11 1.4-2.29 2.72-3.47 4-2.38 2.59-4.73 5.16-7 7.83a71.37 71.37 0 00-11.06 17.39 54.68 54.68 0 00-4.39 20 47.21 47.21 0 01.31-10.42 51.39 51.39 0 012.67-10.16 63.31 63.31 0 0110.92-18.05c2.27-2.71 4.68-5.3 7.08-7.86s4.83-5 6.32-8a44 44 0 003.47-9.64 82.54 82.54 0 002-10.13zm48.79 12.39c-.17 7.06-.62 14.11-.43 21.12a86.3 86.3 0 00.88 10.43c.52 3.4 1.54 6.8 2.39 10.24s1.61 6.93 2.17 10.45a60.7 60.7 0 01.68 10.69 37.92 37.92 0 01-2 10.55 26.81 26.81 0 01-5.89 8.94 28.27 28.27 0 005-9.24 37.63 37.63 0 001.38-10.28 90.46 90.46 0 00-3.26-20.67c-.8-3.43-1.82-6.83-2.31-10.44a68.13 68.13 0 01-.54-10.67 173.22 173.22 0 011.93-21.12z" fill="#263238"/><path d="M379 165.31c-23 25.32-41.77 37.48-60.27 37.48-17.59 0-55.17-42.71-57.93-48.34-2.38-4.86 28.47-31.45 33.21-28.14 8 5.54 33.66 37.61 36.38 37.76s12.74-6.47 36.87-17.77c14.66-6.85 27.74 1.46 11.74 19.01z" fill="#ffc4c0"/><path d="M264.38 158.66C261 155 246.81 136.73 244 130.77s-9.62-23.7-5.27-26.31 6.75 2.42 6.75 2.42-1.69-7.94 2.93-10.17 8.1 5.72 8.1 5.72-1.14-8.28 3.62-10.18 6.94 6.7 6.94 6.7-1.4-7.53 3.18-7.44c5.51.11 6.52 14.28 10.11 20.63.81 1.44 18.59 28 18.59 28z" fill="#ffc4c0"/><path d="M266.88 98.22c.77 10.41 2.91 14.84 9 23.11.12.16-.09.37-.23.22-6.73-7.56-10.21-12.72-9.3-23.32.07-.52.49-.51.53-.01zm-10.4 3.39c1.74 10.75 4 15.57 9.79 24.7.08.13-.13.28-.22.16-6.41-8.49-9.77-13.72-10.1-24.69-.02-.5.45-.67.53-.17zm-10.68 5.73c2.44 10.29 4.71 15.68 11.45 23.82.16.2-.11.45-.28.27-7.68-7.64-10.56-14.35-11.47-24-.06-.64.15-.74.3-.09z" fill="#263238"/><path d="M306.88 142.68s-.23-13.09-1.6-18.82-14.28-25.19-18.69-22.63c-5.63 3.3-.37 16 3 21.9 0 0-13 7.64-11.23 17.58s28.52 1.97 28.52 1.97z" fill="#ffc4c0"/><path d="M285.34 102.64c-3 6.72 2 14.17 4.85 20.12a.61.61 0 01-.44.89c-5.26 3.57-11.63 10.12-11.71 16.82a.15.15 0 01-.3 0c-.89-7.2 4.84-14.16 10.84-17.69-3-6.07-7.67-13.75-3.3-20.2l.06.06z" fill="#263238"/><path d="M339.34 156.71l18.48 34.48s25.06-24.33 29.06-34.48-.31-17.52-18.14-12.09a156.07 156.07 0 00-29.4 12.09z" fill="#00e77f"/><path d="M362.09 184c-.91-1.87-1.71-3.8-2.66-5.66s-1.9-3.7-2.89-5.52c-2-3.68-4-7.37-6.08-11-1.18-2-2.42-4.06-3.71-6-.05-.09-.22 0-.17.07 3.39 7.59 7.5 14.86 11.6 22.08 1.19 2.09 2.54 4.08 3.78 6.14.04.05.18-.04.13-.11z" fill="#263238"/><path d="M386.88 156.71c-4 10.15-29.06 34.48-29.06 34.48L345.37 168l41.07-22.71c2.36 2.46 2.33 6.63.44 11.42z" fill="#263238"/><path d="M343.55 214.76s-10.16 24.32-6.57 42.82H449c-3.64-50.29-28.71-93.51-43.52-107.5-11.94-11.28-24.51-10.27-33.26-4.5-2.06 1.37-24.79 32.78-27.25 37.75-9.76 19.61-1.42 31.43-1.42 31.43z" fill="#00e77f"/><path d="M373 144.1s-7 20.13-2.94 21.18c10.1 2.6 23.65-13.89 24.46-15.57.2-.43 1.1-11.7 1.77-20.47.43-5.64.76-10.25.76-10.25l-24.92 8.55.8 15.45z" fill="#ffc4c0"/><path d="M372.09 127.54l.8 15.45c5.07-.71 16.22-3.46 23.36-13.75.43-5.64.76-10.25.76-10.25l-3.12 1z" fill="#263238"/><path d="M353.53 105.91c-.3 7.85.48 14.2 2.39 18.42a21.41 21.41 0 0018.59 12.54c3 .11 11.64-.68 17.89-5.44 4.86-3.7 7.79-10.37 9.45-22.1 3.8-26.82-8.47-35.84-20.56-36.92s-26.76 6.44-27.76 33.5z" fill="#ffc4c0"/><path d="M360.46 99.93c.63-.09 1.21-.27 1.82-.41a3.13 3.13 0 001.79-.77 1 1 0 000-1.18 2.4 2.4 0 00-2.36-.53 3.52 3.52 0 00-2.19 1.27 1 1 0 00.94 1.62zm17.67.67a17.85 17.85 0 01-1.82-.42 3 3 0 01-1.78-.78 1 1 0 010-1.18 2.39 2.39 0 012.37-.51 3.51 3.51 0 012.2 1.29 1 1 0 01-.97 1.6zm-4.42 6.76c0-.07.14.09.14.17-.15 1.83 0 4 1.63 4.66v.1c-2.04-.38-2.2-3.22-1.77-4.93z" fill="#263238"/><path d="M375.45 105.51c3-.08 2.92 5.87.16 5.95s-2.61-5.88-.16-5.95z" fill="#263238"/><path d="M376.62 105.84c.51.34 1 .94 1.64 1s1.28-.54 1.76-1.14c.05-.06.1 0 .1.07 0 1.14-.44 2.31-1.67 2.47s-1.9-.88-2.18-2c-.05-.24.14-.54.35-.4zm-12.76.74c0-.07-.14.09-.14.16 0 1.85-.19 4-1.86 4.58-.05 0-.05.11 0 .1 2.05-.28 2.35-3.1 2-4.84z" fill="#263238"/><path d="M362.22 104.65c-3-.23-3.21 5.72-.46 5.93s2.94-5.73.46-5.93z" fill="#263238"/><path d="M361 105c-.48.3-1 .85-1.53.87s-1.11-.65-1.5-1.28c0-.07-.09 0-.1.06-.07 1.14.25 2.33 1.34 2.6s1.76-.71 2.07-1.83c.02-.22-.13-.54-.28-.42zm12.53 16.68c-.43.45-.85 1.06-1.51 1.14a5.13 5.13 0 01-2-.39.06.06 0 00-.08.09 2.5 2.5 0 002.38.92 2 2 0 001.39-1.68.1.1 0 00-.18-.08zm-7.53-6.83s-.44 2.75-.46 4.05c0 .12.31.18.75.22h.05a6.17 6.17 0 006-2.18c.09-.12-.07-.26-.19-.18a9.36 9.36 0 01-5.67 1.5c-.08-.37.91-4.68.7-4.7a11.08 11.08 0 00-3 .61c.75-5.75 2.41-11.33 3.06-17.06 0-.2-.27-.27-.33-.09-2.16 5.72-3.16 12.32-4.09 18.23-.08.75 2.62-.18 3.18-.4z" fill="#263238"/><path d="M367.12 118.44a6.82 6.82 0 002.56 2.32 3.1 3.1 0 001.84.26c1.37-.25 1.5-1.48 1.34-2.55a7.75 7.75 0 00-.48-1.66 8.82 8.82 0 01-5.26 1.63z" fill="#263238"/><path d="M369.68 120.76a3.1 3.1 0 001.84.26c1.37-.25 1.5-1.48 1.34-2.55a3.16 3.16 0 00-3.18 2.29z" fill="#ff98b9"/><path d="M401.36 106.92c-2.95.09-11.32-7.27-12.84-21.41 0 0 2.25 12.6 3.37 14.37s-4.68-4.15-6.07-15.53c0 0-5.9 5.14-11.16 7.14s-8.55 2.26-9 1.9 7.28-3.58 9.2-6.24c0 0-13.73 8-20.29 9.08-.76.12.52-11.69 10.13-19.29s22.82-5.7 27.56-1.9c0 0 5.18.27 11.42 7.32s.85 24.46-2.32 24.56z" fill="#263238"/><path d="M397.47 111.24s5.49-8.73 9.42-6.81.1 14.37-4.31 16.26a4.57 4.57 0 01-6.25-2.15z" fill="#ffc4c0"/><path d="M405.7 108c.08 0 .09.09 0 .12-3.09 1.43-4.6 4.44-5.62 7.53.89-1.22 2.13-1.92 3.75-.88.08.05 0 .19-.08.17a2.83 2.83 0 00-3 1.14 14.34 14.34 0 00-1.36 2.57c-.13.29-.65.17-.55-.16a.24.24 0 010-.08c-.28-4.04 2.57-9.82 6.86-10.41z" fill="#263238"/><path d="M414.15 155.57c11.08 12.79 42.14 59.09 34.94 71.6-6.91 12-22.58 15.38-31.6-.74-6.49-11.53-17.4-45.93-20.11-62.43-2.2-13.36 6.53-20.26 16.77-8.43z" fill="#ffc4c0"/><path d="M403.8 196.56l36.72-13.49s-20.61-28.21-30.1-33.58-17.39-2.13-14.49 16.28a154.92 154.92 0 007.87 30.79z" fill="#00e77f"/><path d="M434 177.83c-2 .65-4 1.17-6 1.85s-3.92 1.37-5.86 2.1c-3.93 1.46-7.85 2.92-11.74 4.49-2.18.88-4.36 1.83-6.49 2.83-.1 0-.06.21 0 .18 8-2.3 15.76-5.36 23.48-8.41 2.24-.89 4.39-2 6.6-2.89.15-.04.08-.18.01-.15z" fill="#263238"/><path d="M405.87 195.7a13.44 13.44 0 00-2.13.66c-1-2.17-3.37-11.71-3.92-14.16-1.1-4.88-2-9.81-3.15-14.69 0-.14-.27-.1-.25 0 .34 2.71.76 5.41 1.23 8.09-.5-1.28-1-2.57-1.39-3.88a.06.06 0 10-.11 0 39.75 39.75 0 001.67 4.78c.39 5 4.94 20.89 5.07 20.83a30.07 30.07 0 003-1.57c.11.03.11-.07-.02-.06z" fill="#263238"/><path d="M387.71 101.57l-10.45 44.61c-.45 1.31.22 2.36 1.5 2.34l19.95 4.06a3.7 3.7 0 003.14-2.42l10.45-44.61c.45-1.31-.22-2.36-1.5-2.33l-19.95-4.07a3.7 3.7 0 00-3.14 2.42z" fill="#a6a6a6"/><path d="M389.42 101.82L379 146.43c-.45 1.31.22 2.36 1.5 2.34l19.95 4.06a3.7 3.7 0 003.14-2.41L414 105.81c.45-1.32-.22-2.36-1.5-2.34l-19.94-4.07a3.73 3.73 0 00-3.14 2.42z" fill="#dbdbdb"/><path d="M395.74 103.74a2 2 0 11-1.94-1.95 1.95 1.95 0 011.94 1.95z" fill="#263238"/><path d="M422.82 230.47c6.49 12 23.67 5.16 26.27-3.3 6.1-19.85 2.32-52.85-1.32-71.28-1.17-5.93-41.45 0-41.21 6.41.28 7.75 3.54 44.57 16.26 68.17z" fill="#ffc4c0"/><path d="M447.32 164.7a62.54 62.54 0 00.36-26.62c-2.12-9.59-9.05-29.93-36.91-39-6.61-2.16-17.56-.55-8 6.89 6.76 5.29 12.64 6.6 16 10.4 0 0-13.68 3.7-15.58 10.4a129.23 129.23 0 00-3.73 17.88 27.37 27.37 0 003.28 1 26.59 26.59 0 003.86 16.68z" fill="#ffc4c0"/><path d="M444.19 129.25c-4.14-3-13-9.38-22.09-12-10.08-3-30.27-5.9-32.37 1.55-1.54 5.47 6.07 7.28 6.07 7.28s-8.6.54-8.91 5.78c-.28 4.78 5.69 5.83 5.69 5.83s-5.16 1.22-4.55 5.88c.74 5.59 11.45 2.11 17.1 7.13 1.27 1.1 39.06-21.45 39.06-21.45z" fill="#ffc4c0"/><path d="M420.76 128.38c-4.36-2.24-15.58-4.77-24.8-2.48-.21 0-.28.23-.08.23a103.58 103.58 0 0124.86 2.34c.05.02.07-.07.02-.09zm-3.26 10.08c-4-1.54-15.65-3.64-24.91-1-.21.06-.27.25-.07.24a109.86 109.86 0 0125 .86.05.05 0 00-.02-.1zm1.64 83.65c-.3-1-.59-2-.91-2.91-.66-2-1.23-4-1.81-6-1.18-4-2.31-8.06-3.3-12.14a214.94 214.94 0 01-4.49-24.68c-.28-2.3-.52-4.6-.77-6.9s-.33-4.69-.77-7c0-.12-1.17-1.88-1.63-2.75a23.41 23.41 0 01-1.25-2.8 25.9 25.9 0 01-1.51-6.08.07.07 0 00-.13 0 19.72 19.72 0 00.88 7 12.37 12.37 0 003.1 5c0 .3.07 4 .19 6.07s.31 4.14.54 6.2c.47 4.14 1.05 8.27 1.78 12.38a188.11 188.11 0 005.94 24.57c0 .13.09.26.13.39v.9a18.12 18.12 0 00.18 2.21 20.86 20.86 0 001.07 4.27.08.08 0 10.15 0 28.43 28.43 0 01-.72-4.4l-.18-1.52c.55 1.62 1.13 3.24 1.7 4.85.4 1.12.81 2.21 1.27 3.3s.82 2.15 1.36 3.16c0 .08.16 0 .14-.06-.25-1.07-.65-2.05-.96-3.06z" fill="#263238"/><path fill="#ebebeb" d="M294.48 257.58V230.7l-30.55 26.88h30.55z"/><path d="M137.47 314.57c8.8 38.29 27 84.19 34.77 91.64 9.83 9.42 74.86 26.7 78.1 27.05 8 .81 24.13-57 15.57-58.25-13-1.88-60.36-4.45-63.19-7.36s-22.93-28.25-43.47-56.72c-14.18-19.67-27.25-20.12-21.78 3.64z" fill="#ffc4c0"/><path d="M243.9 430.14c.95.48 14.54 7.32 22.94 9.75 6.27 1.82 24.45 6.57 27.14-.14 1.84-4.56-8.53-8.61-15.79-11.64-3.83-1.6-8.55-5.6-7.42-8.06 2-4.3 11.83 0 18.31 3.78 12.53 7.28 29.22 20.39 36.87 14 2.89-2.4-.47-6.78-5.38-11.07 8 5 16.48 9.1 19.79 6.56 1.91-1.45 2-3.44.94-5.7 2.46.8 4.63.64 6.15-1 2.59-2.72 1.33-6.72-1.51-10.83a3.08 3.08 0 002.36-1.54c5.49-8.37-22-32.4-31.49-34.65-27.95-6.65-57.41-5.41-57.41-5.41-10.98 8.81-15.53 55.93-15.5 55.95z" fill="#ffc4c0"/><path d="M285 404.41a47.46 47.46 0 0118.65 7.17c7.09 4.68 11.79 10.16 17.73 15.67a.17.17 0 01-.22.25c-2.83-2.62-14.57-12.48-17.6-14.72a45.26 45.26 0 00-18.56-8.26c-.09-.01-.07-.13 0-.11zm5.21-11.87c7.35 2 14.88 4 21.7 7.52 7.46 3.8 13.3 10 19 16q5.18 5.37 10.11 11c.13.16-.08.41-.22.25q-8.74-9.24-18-18a59.82 59.82 0 00-19.8-12.48c-4.2-1.61-8.52-2.88-12.84-4.16-.06-.02-.03-.15.05-.13zm7.85-10.37c7.14 1.47 13.37 2.72 19.69 6.54 8.37 5.07 16.45 13.6 19.28 16.63 3.13 3.34 6.15 6.78 9.11 10.27.12.14-.12.36-.25.22a237 237 0 00-21.77-21.57 47.42 47.42 0 00-12.18-7.92 84.61 84.61 0 00-13.89-4.12s-.05-.06.01-.05z" fill="#263238"/><path d="M254.9 371.89l-20 63.36s-54.15-15.46-64-26.13-28.16-65.77-33.53-92.48 8.13-26 20.54-9.21 43.31 57.65 45 58.54 51.99 5.92 51.99 5.92z" fill="#00e77f"/><path d="M254.9 371.89l-20 63.36s-54.15-15.46-64-26.13-28.16-65.77-33.53-92.48 8.13-26 20.54-9.21 43.31 57.65 45 58.54 51.99 5.92 51.99 5.92z" opacity=".1"/><path d="M229.7 407.1c2.43-7.47 4.91-14.92 7.05-22.48 1.22-4.29 2.46-8.59 3.64-12.89.05-.17-.22-.26-.28-.1-2.73 7.4-5.45 14.83-7.84 22.35s-4.82 15-7.1 22.47c-1.29 4.28-2.46 8.58-3.49 12.93 0 .08.12.13.15.05 2.98-7.31 5.43-14.81 7.87-22.33zm-22.11 19.44l-2.4-.84c-4.51-1.61-9.11-3.34-13.44-5.11-.56-.22-1.11-.45-1.65-.68-.87-.36-1.74-.73-2.58-1.1l-1.26-.55-.45-.2-1.3-.6c-1.72-.79-3.35-1.58-4.87-2.38l-1-.56a37.67 37.67 0 01-6.68-4.39c-.19-.17-.38-.34-.55-.51s-.35-.34-.5-.5c-9.9-10.67-28.16-65.77-33.53-92.48l-.18-.92v-.2c-.36-2-.68-4.54-.94-7.26-.75-13.29 5.54-15.46 13.31-9.62 19.37 41.57 49.04 110.26 58.02 127.9z" fill="#263238"/><path d="M179.5 437.18l-118 .62c.1-2.54 16.9-76.84 30.26-104.26 17.13-35.16 26-38 31.23-39.88 6.75-2.42 18.77-1.22 21.62.13 3.24 1.51 13.54 19.49 17.23 32.68 7.38 26.53 19.32 109.09 17.66 110.71z" fill="#ebebeb"/><path d="M116.94 296.44s15 55.55 15.75 59.24c1.13 5.36 8.61 81.84 8.61 81.84l-82.25.28S77 367 90.36 336c14.58-34 26.58-39.56 26.58-39.56z" fill="#00e77f"/><path d="M116.94 296.44s15 55.55 15.75 59.24c1.13 5.36 8.61 81.84 8.61 81.84l-82.25.28S77 367 90.36 336c14.58-34 26.58-39.56 26.58-39.56z" opacity=".1"/><path d="M145.69 294.65c.44 1.77 14.27 46.9 15.23 58.15 1.07 12.48 10.53 85 10.53 85h12s-17.37-104.19-22.14-115.2c-9.76-22.47-15.62-27.95-15.62-27.95z" fill="#00e77f"/><path d="M145.69 294.65c.44 1.77 14.27 46.9 15.23 58.15 1.07 12.48 10.53 85 10.53 85h12s-17.37-104.19-22.14-115.2c-9.76-22.47-15.62-27.95-15.62-27.95z" opacity=".1"/><path d="M101.41 309.43c-19.76 21.17-67.8 101.49-52.56 116.14s99.85-5.07 123.61-16.4c7.07-3.36-19.79-47.44-28.1-48.47-6.92-.85-42.28 15.32-43.31 13.29-1.15-2.3 4.47-19.27 13-50 9.79-35.42-3.9-23.92-12.64-14.56zm78.07 37.05c17.18-2.4 22-.37 35.39-10.09 8.81-6.38 16.67-3.49 11.64 6.64-8.22 16.58-29.74 24.32-38 24.86z" fill="#ffc4c0"/><path d="M133.84 363s19.31-10.72 37.37-15.08c12.48-3 40.38-6.55 67.08 21 6.33 6.53 10.72 20.33-3.49 13.42-10.1-4.91-15-11.07-21.41-12.86 0 0 3.5 18.21-3.29 24.3a167.87 167.87 0 01-18.87 14.64 34.48 34.48 0 01-3.06-3.28s-6.88 5.09-19.82 3.85z" fill="#ffc4c0"/><path d="M183.59 347c6 3.11 18.51 9.92 26.83 19.06 9.25 10.16 24.32 32.2 16.75 39-5.54 4.95-12-3-12-3s4.31 10.43-1.68 13.8c-5.45 3.08-10.11-3.34-10.11-3.34s1.53 6.77-4.3 8.72c-7 2.34-9.06-12.24-18.21-16-2.09-.9 2.72-58.24 2.72-58.24z" fill="#ffc4c0"/><path d="M198.07 374c5.13 3.85 14.55 15.58 17.15 27.73.06.28-.11.47-.22.23a134.87 134.87 0 00-17-27.87c-.08-.09 0-.09.07-.09zm-9.98 9.63c4.09 3.78 13.26 16.3 15.47 28.71.05.28-.14.46-.23.21A144.57 144.57 0 00188 383.71c-.06-.06 0-.13.09-.08zm25.3-14.27c5.6 1.65 9.24 4.4 14 7.68a76.93 76.93 0 007.21 4.57c2.28 1.23 5.65 3.09 8.07 1.16 1.36-1.07 1.34-3 1-4.57a22.47 22.47 0 00-3.08-6.37c0-.08.07-.17.13-.1a32.51 32.51 0 013.36 5.68 7.46 7.46 0 01.51 4.37c-.83 3.08-4.47 3.49-7 2.64a24.8 24.8 0 01-4.4-2.13c-1.36-.78-2.68-1.62-4-2.5-2.66-1.8-5.21-3.75-7.85-5.58a72.64 72.64 0 00-8-4.66.1.1 0 01.05-.19z" fill="#263238"/><path d="M225.12 389.06c-1.45-3.19-9.3-16.49-11.84-19.57a.08.08 0 01.11-.11c4.37 4.14 11.38 15.13 13 18.65s3.48 7.93 3.48 11.8c0 5.85-3.88 7-5.31 7.25a7.56 7.56 0 01-5-.82 15.22 15.22 0 01-4.52-4.24c-.06-.08.05-.19.12-.11 2 2.31 5.4 4.58 8.57 4.16a5.28 5.28 0 003.62-1.95 6.91 6.91 0 00.94-4.71 32.34 32.34 0 00-3.17-10.35z" fill="#263238"/><path d="M133.84 363l27.08 57S55 443.78 45.86 425.34s32-90.6 50.53-111.62c21.49-24.36 24.23-16.07 19.5 5.52-5 22.6-14.53 55.28-14.53 55.28z" fill="#00e77f"/><path d="M133.84 363l27.08 57S55 443.78 45.86 425.34s32-90.6 50.53-111.62c21.49-24.36 24.23-16.07 19.5 5.52-5 22.6-14.53 55.28-14.53 55.28z" opacity=".1"/><path d="M69.17 389.69A119.49 119.49 0 01101 374c3.21-1 6.45-1.95 9.69-2.88.1 0 .14.13 0 .16a152.63 152.63 0 00-16.59 6.46q-8.09 3.6-16 7.49c-3 1.47-5.92 3.08-8.86 4.65a.12.12 0 01-.07-.19z" fill="#263238"/><path d="M133.56 362.85c-.53.14-29.5 9.71-30.45 10.15.12-.44 5.32-15.84 6.1-18.1.07-.22.14-.45.22-.67.52-1 1.06-2 1.55-3 .62-1.31 1.24-2.64 1.85-4h-.06l-2 3.87c-.31.59-.6 1.2-.89 1.81.51-1.59 1-3.19 1.49-4.8.78-2.55 1.48-5.13 2.17-7.71 0-.09-.1-.11-.13 0-1.54 4.49-3.22 8.93-4.77 13.42s-7.51 21-7.46 21 31.9-11.26 32.52-11.51a.21.21 0 00-.14-.46zm1.95 37.15c-3-6.35-5.91-12.74-9.12-19-1.83-3.55-3.64-7.11-5.5-10.64-.07-.13-.31 0-.25.11 2.74 6.5 5.5 13 8.54 19.39s6 12.7 9.09 19q2.64 5.37 5.61 10.57c0 .07.16 0 .13 0-2.52-6.62-5.49-13.01-8.5-19.43z" fill="#263238"/><path d="M162.29 420.88c-1.06-1.76-2.4-4.28-3.53-6-.3-.45-.65-.36-.41.11.81 1.6 1.48 3.39 2.27 5-1.48.3-3 .56-4.46.87-1.72.36-3.43.73-5.15 1.08l-10.12 2q-10.26 1.91-20.6 3.36a403.92 403.92 0 01-41.66 3.91c-3.9.14-7.81.21-11.71.16a112.81 112.81 0 01-11.52-.56c-.11 0-.13.17 0 .19a63.91 63.91 0 0010 1.3c3.53.17 7.07.25 10.61.21 7-.08 14.07-.54 21.08-1.18 13.9-1.28 27.76-3.16 41.5-5.59q5.78-1 11.53-2.17c1.94-.39 3.87-.78 5.8-1.21s6.55-1.18 6.37-1.48z" fill="#263238"/><path d="M145.71 315.38c-7 1.93-19.53-8.42-24.65-17-.35-.59.34-6.95.81-14.72.27-4.71.45-10 .27-14.78 0-1 30.43 6.22 30.43 6.22s-2.6 10.18-2.24 18.56a11 11 0 00.28 2 2.29 2.29 0 01.06.32c.75 3.71 1.81 17.53-4.96 19.4z" fill="#ffc4c0"/><path d="M124 269c1.7 8.08 7.48 27.53 23.58 27.3a19.14 19.14 0 003.08-.28 1.44 1.44 0 000-.33 13 13 0 01-.29-2c-.35-8.39 2.24-18.58 2.24-18.58s-22.02-5.2-28.61-6.11z" fill="#263238"/><path d="M156.2 254.45c-.34 7.38 4.64 13.6 11.12 13.9s12-5.46 12.33-12.84-4.65-13.6-11.12-13.89-12 5.45-12.33 12.83z" fill="#455a64"/><ellipse cx="165.42" cy="255.34" rx="14.88" ry="13.06" transform="rotate(-87.41 165.41 255.337)" fill="#c7c7c7"/><path d="M126.11 230.59c-5.24 9.88-5.57 41.29.59 49.51 8.93 11.9 26.48 16.27 37.3 4.9 10.53-11.06 10.23-52 3.08-59.77-10.51-11.47-33.23-9.23-40.97 5.36z" fill="#ffc4c0"/><path d="M152.23 254.87c0-.08-.17.11-.16.2.11 2.11-.11 4.55-2 5.29-.06 0-.05.13 0 .12 2.34-.38 2.6-3.62 2.16-5.61z" fill="#263238"/><path d="M150.29 252.71c-3.41-.18-3.52 6.65-.37 6.81s3.23-6.66.37-6.81zm13.78 2.42c0-.08.16.11.16.19-.1 2.12.14 4.56 2 5.29.06 0 0 .13 0 .12-2.31-.37-2.6-3.61-2.16-5.6z" fill="#263238"/><path d="M166 253c3.4-.21 3.56 6.62.4 6.81s-3.26-6.69-.4-6.81zm-18.77-5.75c1-.05 1.83-.26 2.78-.4a4.52 4.52 0 002.75-1 1.44 1.44 0 00.1-1.76 3.57 3.57 0 00-3.47-1 5.22 5.22 0 00-3.41 1.65 1.54 1.54 0 001.25 2.51zm21.98.75a25.76 25.76 0 01-2.7-.75 4.51 4.51 0 01-2.61-1.25 1.44 1.44 0 01.11-1.76 3.6 3.6 0 013.58-.61 5.27 5.27 0 013.18 2.06 1.54 1.54 0 01-1.56 2.31zm-20.84 26.48c.5.5 1 1.19 1.76 1.27a5.68 5.68 0 002.28-.5.08.08 0 01.09.11 2.83 2.83 0 01-2.7 1.11 2.27 2.27 0 01-1.64-1.9c-.03-.12.13-.17.21-.09zm2.33-6.3a7.19 7.19 0 004.75 3.28 9 9 0 002.59.17 4 4 0 00.5-.05l.46-.07a.53.53 0 00.44-.46 1.62 1.62 0 000-.22v-.19c.07-1.63 0-4.11 0-4.11.59.31 3.61 1.73 3.57.88-.3-7.06-.64-14.9-2.43-21.85a.2.2 0 00-.39 0c0 6.79 1.24 13.53 1.37 20.35a12.86 12.86 0 00-3.38-1.09c-.23.07.31 4.79.22 5.52a.45.45 0 010 .08c-2.75.3-4.8-.56-7.42-2.44-.24-.11-.41.02-.28.2z" fill="#263238"/><path d="M157.09 270.78a8.49 8.49 0 01-3.46 2.6 3.87 3.87 0 01-2.34.11c-1.68-.48-1.7-2-1.37-3.35a9.21 9.21 0 01.79-2 11.08 11.08 0 006.38 2.64z" fill="#263238"/><path d="M153.63 273.38a3.87 3.87 0 01-2.34.11c-1.68-.48-1.7-2-1.37-3.35 1.81.22 3.58 1.48 3.71 3.24z" fill="#ff98b9"/><path d="M122.18 252.77c2.06-.33 7-7.3 9.09-10.07s3.3-17.62 3.49-21a22.25 22.25 0 00-8.66 8.86c-2.34 4.44-3.69 13.17-3.92 22.21z" fill="#263238" opacity=".2"/><path d="M160.31 234a10.64 10.64 0 01-9.82 3.29 10.84 10.84 0 01-8.14-6.73c0-.11-.2-.05-.16.05a10.72 10.72 0 008.13 7.53 10.94 10.94 0 0010.19-4 .13.13 0 00-.2-.14zm-10.16-26.62c-6.17-.06-11.93 3.17-14.32 7.29a11.94 11.94 0 00-1.4 7.74c0 .11.23.09.22 0a13.09 13.09 0 016.55-11.63 16.89 16.89 0 0115-1.32 10.6 10.6 0 015.58 4.78c.12.23.58.1.49-.13-1.56-3.92-6.55-6.68-12.12-6.73zm35.35 14.49a13.63 13.63 0 00-5.56-7.49c-3.71-2.46-8-2.25-12.24-1.95a.09.09 0 000 .18c3.62-.24 7.31-.28 10.57 1.53a13.34 13.34 0 016 6.69 13 13 0 01-5.9 16 13.24 13.24 0 01-10.46.73c-.14-.05-.24.14-.11.2a13.31 13.31 0 0017.72-15.89z" fill="#263238"/><path d="M123.88 236.64s-5.46-11.23-.34-17.43c2.9-3.51 12.08-2.71 12.08-2.71s3.15-5.17 10.83-6.64 16.74 3.34 16.74 3.34 7.46-3.91 14.16.25c9.35 5.8 7.63 20.29-2.15 24.61-6.86 3-15.8-3.26-15.8-3.26-.89.09-10.11 5.19-16.63-3.1 0 0-5.72 4.72-10.57 1.09a8 8 0 01-8.32 3.85z" fill="#263238"/><path d="M127.81 256.57s-5.19-11-10.08-9.36-2.18 16.86 2.72 19.72a5.42 5.42 0 007.65-1.63z" fill="#ffc4c0"/><path d="M118.61 251.54c-.08 0-.12.1 0 .14 3.42 2.12 4.77 5.87 5.51 9.64-.85-1.55-2.22-2.55-4.26-1.57a.12.12 0 00.06.22 3.35 3.35 0 013.42 1.77 16.43 16.43 0 011.22 3.22c.12.36.74.28.68-.12a.29.29 0 000-.09c.84-4.67-1.67-11.86-6.63-13.21z" fill="#263238"/><path fill="#c7c7c7" d="M139.12 278.72l-9.85-4.25-7.92-9.86 1.52-1.23 7.62 9.49 9.41 4.06-.78 1.79z"/><path d="M138.07 277.15c1-2.87 9-1.81 7.55 2.53s-8.52.32-7.55-2.53z" fill="#37474f"/><path d="M117.58 246.91s-1.07-16.13 3.65-25c5.26-9.91 27.06-19.34 42-8.69 0 0-24.27-4.34-35.58 9.4-4.76 5.78-4.64 24.74-4.64 24.74z" fill="#c7c7c7"/><ellipse cx="119.63" cy="255.2" rx="13.06" ry="14.88" transform="rotate(-.57 119.357 254.91)" fill="#c7c7c7"/><path d="M128.88 254.64c.07 7.39-5.12 13.43-11.6 13.49s-11.8-5.87-11.87-13.26 5.12-13.43 11.6-13.49 11.8 5.87 11.87 13.26z" fill="#455a64"/><path d="M150.55 295.48l-7.05 17.8-22.18-22.38-6.22 7.24s21.75 35.61 21.88 34l7.25-15.35 10.62 10.61-1-26.74z" fill="#ebebeb"/><path d="M155.11 314.15c-.31-4.41-.49-8.86-1-13.25 0-.15-.26-.22-.3 0-.86 4.27.41 21.12.41 25.17h-.05c-.44-.46-9.84-9.33-9.93-9.19-1.57 2.44-6.9 13.61-7.26 14.63-3.44-5.66-18-27.95-22.1-33.3a.15.15 0 00-.26.15c3 6 21.9 35.41 22.16 35.33a174.62 174.62 0 007.59-16.22c1.59 1.93 11.07 11.95 11.1 11.29a138 138 0 00-.36-14.61z" fill="#263238"/><path d="M392.84 248.68h-30.93a11.32 11.32 0 01-11.31-11.31 11.31 11.31 0 0111.31-11.31h30.93a11.31 11.31 0 0111.31 11.31 11.31 11.31 0 01-11.31 11.31z" fill="#455a64"/><path d="M368.67 237.17a2 2 0 01.34-1l.28-.41.59-.59.69-.5a8.56 8.56 0 013.12-1.21 19.82 19.82 0 017.75 0 8.34 8.34 0 013.08 1.19c.24.16.48.34.71.51l.58.58a7.74 7.74 0 01.42.68 5.34 5.34 0 01.24.74h-5.07a.18.18 0 01-.19-.11 1.72 1.72 0 00-1.45-.93 34.47 34.47 0 00-4.43 0 1.7 1.7 0 00-1.44.92c0 .07-.07.12-.17.12h-5.05zm0 2.83v-1.85h5V240a.56.56 0 01-.64.64h-3.73a.55.55 0 01-.63-.64zm12.77.06v-1.88h4.95v1.86a.56.56 0 01-.62.62H382a.54.54 0 01-.56-.6z" fill="#fff"/><path fill="#455a64" d="M259.08 439h6.86v4.48h-6.86zm8.89-.3h6.86v4.48h-6.86zm8.9-.3h6.86v4.48h-6.86zm8.9-.29h6.86v4.48h-6.86zm8.9-.3h6.86v4.48h-6.86zm8.9-.29h6.86V442h-6.86zm8.9-.3h6.86v4.48h-6.86zm8.9-.3h6.86v4.48h-6.86zm8.89-.29h6.86v4.48h-6.86z"/><path fill="#37474f" d="M338.81 446.05h-81.42v-5.45l81.42-2.27v7.72z"/><path fill="#455a64" d="M418.27 424.56h-134.4l21.37-100.06h134.4l-21.37 100.06z"/><path fill="#37474f" d="M423.24 424.56h-134.4l21.37-100.06h134.4l-21.37 100.06z"/><ellipse cx="370.03" cy="368.73" rx="8.99" ry="7.68" transform="rotate(-42.74 370.007 368.718)" fill="#263238"/><path fill="#455a64" d="M385.23 450.69h-66.1v-5.14l66.1-2.13v7.27z"/><path fill="#455a64" d="M403.2 450.68h-35.49l-21.38-56.07h35.49l21.38 56.07z"/><path fill="#263238" d="M409.04 450.68h-35.49l-21.37-56.07h35.49l21.37 56.07z"/><path d="M254.88 452.05h-68.15c-5.81 0 2.6-16.56 23.83-22.91s51.02 16.7 44.32 22.91z" fill="#37474f"/><path d="M228.14 452.05a20.68 20.68 0 01.93-5.56 23.3 23.3 0 012.29-5.19 18.88 18.88 0 013.62-4.39 16 16 0 014.79-3c-.73.6-1.56 1-2.23 1.67l-1 .89-1 1a23.74 23.74 0 00-3.3 4.35 32.65 32.65 0 00-2.42 4.93 41.28 41.28 0 00-1.68 5.3z" fill="#263238"/><path d="M236.21 436.29a43.79 43.79 0 0111.37 5.71 24.52 24.52 0 014.75 4.3 14.59 14.59 0 011.75 2.71 7.86 7.86 0 01.8 3.09 8.89 8.89 0 00-1.23-2.86 14.34 14.34 0 00-1.9-2.43 33.75 33.75 0 00-4.75-4c-1.69-1.22-3.48-2.31-5.27-3.39-.9-.54-1.82-1.06-2.74-1.56s-1.85-1.06-2.78-1.57z" fill="#263238"/><path d="M259.76 224.89A30.27 30.27 0 01209.17 244L194 246.26l7.58-13.09a30 30 0 01-2.08-14.58 30.28 30.28 0 1160.23 6.3z" fill="#fff"/><path d="M259.76 224.89a30.43 30.43 0 01-6.11 15.35 34.28 34.28 0 01-2.74 3.16 35.69 35.69 0 01-3.2 2.7 29.53 29.53 0 01-7.3 4.07 30.1 30.1 0 01-8.15 1.94 28.19 28.19 0 01-4.21.08 26.69 26.69 0 01-4.19-.43 30.6 30.6 0 01-15-7.4l.36.11-15.13 2.33-1.09.2.55-1 7.54-13.13v.52a30.58 30.58 0 1158.7-8.5zm0 0a30 30 0 00-34.33-32.77 29.75 29.75 0 00-12.51 4.94 31.35 31.35 0 00-9.06 9.88 30 30 0 00-3.86 12.82 30.36 30.36 0 002.15 13.24l.11.27-.15.24-7.62 13.07-.54-.8 15.16-2.12h.21l.15.14a29.85 29.85 0 0014.5 7.47 26.83 26.83 0 004.11.5 30.11 30.11 0 004.14 0 29.6 29.6 0 008.09-1.78 28.3 28.3 0 007.3-3.93 37.09 37.09 0 003.2-2.67 34 34 0 002.75-3.13 30.39 30.39 0 006.2-15.37z" fill="#263238"/><path d="M246.53 222.66a3.67 3.67 0 11-3.67-3.66 3.66 3.66 0 013.67 3.66zm-13.14 0a3.67 3.67 0 11-3.66-3.66 3.66 3.66 0 013.66 3.66zm-13.13 0a3.67 3.67 0 11-3.67-3.66 3.67 3.67 0 013.67 3.66z" fill="#263238"/><path d="M272.59 67.87A30.28 30.28 0 00323.18 87l15.14 2.22-7.57-13.09a30.28 30.28 0 10-58.16-8.28z" fill="#fff"/><path d="M281.65 42.86A30.22 30.22 0 01307 34.44a30.53 30.53 0 0112.92 4.85 30.64 30.64 0 0111.35 37.08v-.52L338.79 89l.55 1-1.09-.17-15.14-2.32.36-.11a30.6 30.6 0 01-15 7.4 26.69 26.69 0 01-4.19.43 29.45 29.45 0 01-4.2-.08 30.52 30.52 0 01-15.46-6 35.69 35.69 0 01-3.2-2.7 35.64 35.64 0 01-2.74-3.16 30.47 30.47 0 012.95-40.36zm-2.86 40.29a33.9 33.9 0 002.75 3.12 33.78 33.78 0 003.2 2.67 27.93 27.93 0 007.31 3.94 29.9 29.9 0 008.08 1.78 30.25 30.25 0 004.15 0 26.85 26.85 0 004.1-.5 29.85 29.85 0 0014.5-7.47l.15-.14h.21l15.16 2.12-.54.8-7.62-13.07-.15-.25.11-.27a29.87 29.87 0 00-1.71-26 31.24 31.24 0 00-9.06-9.88 29.76 29.76 0 00-12.5-4.94 29.94 29.94 0 00-28.14 48.05z" fill="#263238"/><path d="M305.4 68.42v3.78a2.79 2.79 0 01-2.85 2.85 2.86 2.86 0 01-2.85-2.85v-6c0-.06.06-.06.06-.12s-.06-.06-.06-.11a2.93 2.93 0 012.85-2.85 6.52 6.52 0 100-13 6.42 6.42 0 00-5.58 3.2 2.89 2.89 0 01-4 1 2.84 2.84 0 01-1-3.9 12.22 12.22 0 1113.37 18zm0 12.73v1a2.78 2.78 0 01-2.85 2.85 2.85 2.85 0 01-2.85-2.85v-1a2.89 2.89 0 012.85-2.85 2.82 2.82 0 012.85 2.85z" fill="#00e77f"/></svg>