<svg xmlns="http://www.w3.org/2000/svg" viewBox="0 0 500 500"><path fill="#263238" d="M44.36 407.76l51.41-.25 51.41-.08 102.82-.17 102.82.17 51.41.08 51.41.25-51.41.24-51.41.09-102.82.17-102.82-.17-51.41-.09-51.41-.24z"/><path d="M345.57 150.9s13-11.82 8.56-20.49c-6.25-12.09-32.34-2.76-37.83-23.63-4.14-15.78 9.06-28.53-.92-40.78-6.7-8.27-36.3-6-36.3-6 19.07-14.89 46.78-21 63.36-7.2 14.9 12.36 8.17 31.19 14.62 40.57 9.15 13.3 30.14 13.74 29.77 31.26-.43 20.3-26.84 25.21-28.66 27.78z" fill="#00e77f" opacity=".5"/><path fill="#fff" d="M388.51 129.14l-3.77.7-.85 3.98-.84-3.98-3.78-.7 3.76-.92.86-3.77.86 3.77 3.76.92zm-45.81-25.61l-3.78.7-.84 3.98-.84-3.98-3.78-.7 3.76-.92.86-3.76.86 3.76 3.76.92zm8.69-12.01l-2.11.39-.48 2.23-.47-2.23-2.11-.39 2.1-.52.48-2.1.49 2.1 2.1.52zm-29.87-10.16l-2.11.39-.47 2.22-.48-2.22-2.11-.39 2.1-.52.49-2.1.48 2.1 2.1.52zm44.07 61.81l-2.11.39-.48 2.23-.47-2.23-2.11-.39 2.1-.51.48-2.11.49 2.11 2.1.51zm-28.15-95.25l-2.11.39-.48 2.23-.47-2.23-2.11-.39 2.1-.51.48-2.1.48 2.1 2.11.51zm37.92 72.22a.62.62 0 000 1.23.62.62 0 000-1.23zm-71.11-72.83a.62.62 0 000 1.23.62.62 0 000-1.23zm18.98 18.92a.61.61 0 000 1.22.61.61 0 000-1.22zM292.75 55a.43.43 0 000 .86.43.43 0 000-.86zm58.75 61.68a.44.44 0 000 .87.44.44 0 000-.87zm-33.38-13.58a.43.43 0 000 .86.43.43 0 000-.86zm59.53 7.77a1.18 1.18 0 000 2.35 1.18 1.18 0 000-2.35zm-48.13-1.17a1.18 1.18 0 000 2.35 1.18 1.18 0 000-2.35z"/><path d="M191.34 274.2a83 83 0 0016.14 7.88c-9.1-12.34-9-41.25-7.79-37.19 5.83 19.42 20.73 40.27 26.1 41.06h.09c14.37.93 27.2-3.13 37.83-9a.08.08 0 000-.06C252 263 251.24 233.63 252.06 235.38c8.91 18.73 26.13 29.07 29 28.9 10.36-9.62 15.67-19 14.1-19.81-11.43-6.14-21.64-22.92-31-40.74-9.22-17.56-15.37-44.12-28-59.58-11.51-14.15-33.39-15.84-45.39-7.72-31.38 21.3-6.53 133.35.57 137.77z" fill="#263238"/><path d="M193 135.1a21.86 21.86 0 00-6.94 5.56 46.25 46.25 0 00-5 7.09 73.48 73.48 0 00-6.25 15.69c-3.03 10.76-2.71 31.56-2.5 42.56a171.57 171.57 0 004.39 32.69c.58 2.69 1.35 5.34 2 8l2.3 7.95 2.63 7.85 2.9 7.77-2.36-7.91-2.17-8-2-8c-.57-2.68-1.24-5.33-1.73-8a187.11 187.11 0 01-3.91-32.47c-.4-10.88-.66-31.5 2-42.19A74.26 74.26 0 01182 148.1a44.74 44.74 0 014.53-7.17 30.44 30.44 0 012.94-3.19 15.94 15.94 0 013.53-2.64zm103.39 106.32a139.65 139.65 0 01-10-11c-3.17-3.77-6.17-7.64-8.95-11.64s-5.43-8.06-7.78-12.26-4.54-8.52-6.82-12.78c-4.67-8.49-10.48-26.66-15.71-34.91-2.64-4.11-5.37-8.18-8.4-12.08a66.84 66.84 0 00-4.94-5.6 18.71 18.71 0 00-6.18-4.45 19.68 19.68 0 015.76 4.77 62.47 62.47 0 014.51 5.79c2.83 4 5.39 8.09 7.84 12.26 4.92 8.35 10.73 26.48 15.24 35 2.35 4.24 4.58 8.51 7 12.74a118.34 118.34 0 008.12 12.27 137.66 137.66 0 0020.31 21.89z" fill="#263238"/><path d="M214.41 239.42c19.43 18.52 55.49 46.24 70.45 50.55 16.63 4.79 49.71-35.49 71.45-60.12 4.32-4.9-31.61-40.83-36-35.37-11.31 14.28-34.09 46.52-38.19 46.69-3.36.17-35.47-11.4-53.52-18.14-28.73-10.72-27.86 3.35-14.19 16.39z" fill="#ffc4c0"/><path d="M311.64 203.45l35.85 42.75s-40.83 45.68-57.29 45.87-61.36-36.35-75.74-51.57-12.59-26.42 9.22-19.47 55.59 18.35 58.62 17.64 29.34-35.22 29.34-35.22z" fill="#ebebeb"/><path d="M335 255.82c-12.11-19.13-27.74-37.39-30.24-40.77-.12-.16-.36 0-.23.2 2.62 3.19 18.22 26 30.21 40.8.18.17.42-.05.26-.23z" fill="#263238"/><path d="M304.57 286.05c-5.41 3.6-10.45 6-14.37 6-16.46.2-61.37-36.35-75.74-51.56-6.15-6.52-9.34-12.29-9.27-16.24 23.81 14.9 79.3 49.36 99.38 61.8z" fill="#c7c7c7"/><path d="M344.23 243.63l-32-38.6c.46-1.11 3-3.74 5.24-7.36 0 0 4.95-12.89 5-25.46 0-10.55-1.12-26.23 4.55-26.42 8.28-.3 12.12 19.34 13.64 30.75 5-3.76 9.66-6.53 13-7.15 11-2.06 26.39 45.77 19 54.38-7.21 8.3-22.26 19.12-28.43 19.86z" fill="#ffc4c0"/><g opacity=".7"><path d="M376.75 248.17a35.64 35.64 0 11-40.68-39.39l6.11-52.53-2.86-.33.65-5.62 24.26 2.83-.65 5.62-2.87-.33-6.12 52.58a35.63 35.63 0 0122.16 37.17z" fill="#fff"/><path d="M376.75 248.17a35.85 35.85 0 01-7.49 18.07l-.76 1c-.27.32-.56.61-.85.91-.57.6-1.12 1.22-1.71 1.79a38.37 38.37 0 01-3.83 3.15 40.55 40.55 0 01-4.2 2.64c-.74.37-1.5.7-2.25 1.05-.38.17-.75.36-1.13.51l-1.18.41a34.82 34.82 0 01-9.69 2l-2.48.09c-.83 0-1.65-.08-2.48-.12a38.92 38.92 0 01-4.93-.66 36 36 0 01-17.34-9.25l-.91-.86-.82-.93c-.54-.63-1.12-1.23-1.63-1.89a37.32 37.32 0 01-2.77-4.08 38.51 38.51 0 01-2.23-4.45c-.3-.78-.56-1.57-.84-2.35-.13-.39-.28-.78-.4-1.18l-.29-1.21A36 36 0 01318 216.59a36.54 36.54 0 0118-8.25l-.38.39 3-26.27 3.14-26.25.35.44-2.86-.34h-.39v-.39l.67-5.63v-.37h.38l24.25 2.9h.3v.3l-.67 5.63v.29h-.29l-2.87-.34.31-.24-6.22 52.54-.08-.14a35.75 35.75 0 0122.11 37.34zm0 0a35.58 35.58 0 00-22.21-37.09h-.1v-.1l6-52.55v-.28h.28l2.88.32-.33.26.64-5.63.27.34-24.27-2.76.42-.33-.64 5.63-.34-.44 2.86.32.4.05-.05.4-3 26.27c-1 8.76-2.05 17.51-3.09 26.27v.33l-.34.06a35.66 35.66 0 00-17.6 8 35.27 35.27 0 00-11.45 35.44l.28 1.19c.11.4.26.78.39 1.17.27.77.52 1.55.81 2.32a36.71 36.71 0 002.18 4.4 35.88 35.88 0 002.71 4.1c.5.65 1.06 1.25 1.59 1.87l.81.93.89.85a35.55 35.55 0 0017.1 9.24 38.44 38.44 0 004.88.68c.82 0 1.64.14 2.46.14l2.47-.08a34.46 34.46 0 009.63-2l1.17-.4c.38-.15.75-.34 1.12-.5.75-.35 1.51-.67 2.25-1a39.45 39.45 0 004.19-2.6 38 38 0 003.83-3.11c.6-.57 1.15-1.18 1.72-1.77.28-.3.58-.59.85-.9l.76-1a35.77 35.77 0 007.58-18.04z" fill="#263238"/></g><path d="M370.39 247.43a29.24 29.24 0 11-54.24-18.23 64.78 64.78 0 0017.7 6.8c12.4 2.8 22.34-3.09 33.44-5.48a29.17 29.17 0 013.1 16.91z" fill="#00e77f"/><path d="M312.3 240.66s1.52-20.18 22.78-24.57" fill="#fff"/><path d="M337.34 175.94c-1 5.72 6.33 3.58 6.33 3.58s-9.76 5.61-8.47 11.9c1.25 6.05 10 3.15 10.6 3-.51.31-9.35 5.7-7.4 11.88 2 6.42 10.28 2 10.81 1.72-.39.44-5.53 6.3-3 10.66 4.37 7.49 17.92-7.14 24.94-7.11 0 0 1.32 11.91 1.43 12.25 0 0 13.17-13.66 12.67-23.14a6 6 0 00-5-5.73s4.73-3.94 3.35-8.85c-.71-2.52-5.38-3.63-5.38-3.63s3.66-3.3 2.16-7.6c-1.18-3.43-5.68-4-5.68-4s2-4.81-.31-7.92c-4.66-6.34-34.98.74-37.05 12.99z" fill="#ffc4c0"/><path d="M374.06 170.62c.1 0 .1-.17 0-.17-10.54-.1-22.15 3-30.8 9.14-.28.21-.08.75.28.59 10.12-4.61 19.46-7.9 30.52-9.56zm4.36 11.71c.12 0 .09-.22 0-.22-10.86-.05-23.84 3.82-33 12.06-.32.28-.32.85.07.55 6.51-5.02 22.97-10.95 32.93-12.39zm-29.65 26.44c9.07-7.57 19.65-11.46 31.09-13.91.15 0 .08-.23-.05-.24-5.92-.33-13.05 2-18.44 4.26a31 31 0 00-12.86 9.57c-.13.17.07.48.26.32z" fill="#263238"/><path d="M343.48 179.46c-.34.24.39.47.06.72-1.4 1.06-9.27 8.18-7.68 11.61 1.28 2.75 5.86 2.93 7.65 2.31l4.5-1.55-3.68 3a19.41 19.41 0 00-4.2 4.71 7 7 0 00-1.14 5.58 4 4 0 004 3.06 12 12 0 005.77-1.75l4.91-2.77-3.72 4.21a17.86 17.86 0 00-2.62 3.86 7.52 7.52 0 00-.94 4.25 3.58 3.58 0 002.36 2.94 7.87 7.87 0 004.42-.4 62.21 62.21 0 008.85-4.15c1.46-.76 2.93-1.53 4.44-2.23a11.75 11.75 0 014.75-1.36 12.88 12.88 0 00-4.55 1.77c-1.43.8-2.83 1.68-4.23 2.55a53.86 53.86 0 01-8.82 4.71 9.27 9.27 0 01-5.27.65 5.1 5.1 0 01-3.66-4.22 9.27 9.27 0 011-5.3 20 20 0 012.86-4.34l1.19 1.43a13.85 13.85 0 01-6.8 2.14 5.81 5.81 0 01-3.69-1.26 6.51 6.51 0 01-2.06-3.26 8.77 8.77 0 011.43-7.06 21.39 21.39 0 014.7-5.11l.82 1.47c-2.3.71-7.44 1.07-10-2.95-2.5-5.72 7.45-12.2 9.35-13.26z" fill="#263238"/><path d="M343.67 179.52a11.76 11.76 0 01-3.56-.22 2.71 2.71 0 01-2.05-1.8 5.4 5.4 0 01.35-3.1c.39-1.1.87-2.24 1.4-3.39a9.25 9.25 0 00-2.56 2.86 5.47 5.47 0 00-.75 4.09 3.92 3.92 0 001.34 1.88 4.12 4.12 0 002.07.71 6.28 6.28 0 003.76-1.03z" fill="#263238"/><path d="M165.89 328.39s1.42 16.06 3.53 39.3c.06.67.12 1.35.19 2 1 11.41 2.21 24.41 3.45 38h73c-5.23-40.91-9.75-76.15-10.14-79.15v-.22z" fill="#37474f"/><path d="M176.12 337.59q.67 8.43 1.41 16.86c.14 1.63.3 3.25.44 4.87v.05c1.41 16.13 2.9 32.27 4.56 48.38h1.05c-1.78-16.58-3.44-33.17-5.12-49.78-.18-1.8-.36-3.59-.55-5.4-.5-5-1-9.94-1.52-14.92-.03-.23-.29-.23-.27-.06z" fill="#263238"/><path d="M148.85 328.39s3.33 18.84 8 45.23c.09.42.16.84.24 1.29 1.79 10.09 3.76 21.24 5.82 32.83h50.85l1.16-7.65.22-1.5.06-.39.84-5.62.33-2.1 9.43-62.09z" fill="#263238"/><path d="M129.29 407.76h69.07v-1.19c.39-.21.77-.43 1.16-.63 4.06-2.21 7.63-3.93 10.56-5.24l1.45-.65c1.33-.58 2.52-1.06 3.51-1.45 2.54-1 4-1.45 4-1.45.08-.22.16-.42.23-.63 10-25.48 16-64.3 16.6-67.91v-.28H137.3s-3.76 36.52-8.01 79.43z" fill="#37474f"/><path d="M139 407.76h.92c1.81-22.87 3.49-45.75 5.24-68.62 0-.38-.55-.38-.57 0q-2.78 34.3-5.59 68.62zm83.61-12.44a153.68 153.68 0 00-24.16 11.25c-.3.17-.1.64.22.5 8.14-3.49 16.44-6.84 24.38-10.78a.53.53 0 00-.44-.97zm2.59-55.85c0-.28-.52-.34-.52 0a271.52 271.52 0 01-1.36 27.2c-.38 4.19-3.75 27.36-11 25.67-1.22-.28-1.84-1.48-2-3.32-.23-2.2.6-4.91 1-7.1.81-4.85 1.46-9.72 1.87-14.62a132.87 132.87 0 00-.29-27.41.24.24 0 00-.47 0c0 12.66-.32 25.3-2.21 37.84-.91 6-3.95 15.1 2.35 16s10.58-14.25 11.36-18.41c2.07-11.59 2.18-24.11 1.27-35.85z" fill="#263238"/><path d="M212.49 392.92a39.31 39.31 0 00-1.63 4.8 10.78 10.78 0 00-.68 3.95c0 .26.36.28.5.11a14.07 14.07 0 001.69-3.84c.55-1.49 1.14-3 1.65-4.46a.82.82 0 00-1.53-.56zm-32.89-45.87a13.06 13.06 0 00-.31-3 .16.16 0 00-.3 0 12.6 12.6 0 00-.34 2.6c-.1 1-.23 2-.34 3a44.27 44.27 0 01-1.06 6.05 21.58 21.58 0 01-5.55 10 29 29 0 01-9.39 6.18c-3.91 1.65-8 2.27-12.05 3.46-.17 0-.12.29.05.29a34.58 34.58 0 0013-2.56 28.11 28.11 0 009.8-6.25 21.83 21.83 0 005.71-10.26 31.93 31.93 0 00.78-6.07 29.82 29.82 0 000-3.44z" fill="#263238"/><path d="M245.05 347.18l-8.34-46.41s8.79-13.45 7.51-29.34c-.93-11.56-26-52-28.09-54-8.54-8-22.94-4.79-28.85-.32C154.53 241.87 142.09 295 131 347.18z" fill="#00e77f"/><path d="M205.64 296.46a95.51 95.51 0 0114.15.22c2.33.24 4.64.59 7 1 1.15.2 2.3.36 3.46.51a15 15 0 003.66.14.09.09 0 010 .17 26.39 26.39 0 01-3.43.45 26.89 26.89 0 01-3.36-.13c-2.38-.23-4.74-.56-7.1-.81-4.78-.49-9.56-1-14.37-1.14-.24-.02-.24-.4-.01-.41zm-10.89 5.84a101 101 0 0111.46-2.3c1.93-.27 3.86-.42 5.81-.52.93-.05 1.86-.08 2.79-.1s2.05.1 3.08.06c.1 0 .13.16 0 .17-1 .06-1.92.29-2.88.41l-2.89.35c-1.93.24-3.86.5-5.79.72-3.87.44-7.71.92-11.56 1.5-.19.06-.22-.24-.02-.29z" fill="#263238"/><path d="M217.83 219.18l11.31 52.54 10.21 136h23.33s-24.15-109.41-24.06-110.29 10.64-12.47 7.69-28.35-26.44-48.45-28.48-49.9z" fill="#ebebeb"/><path d="M220.29 223.41c1.09 2.7 2.21 5.39 3.34 8.07s2.24 5.38 3.39 8.05q3.43 8 7 16l.23-1c-2.53 2.06-7.65 6.79-7.65 6.79l9.08 12.38s-.81 37.6-1.1 41c.67-3.36 2.63-41.4 2.63-41.4l-9-12.27-.23 1.19c2.48-2.11 4.94-4.23 7.39-6.39l.49-.44-.27-.58q-3.7-7.9-7.51-15.76c-1.26-2.63-2.56-5.23-3.85-7.84s-2.6-5.21-3.94-7.8z" fill="#dbdbdb"/><path d="M196.07 218.21c.59 2.08 10 14.21 19.56 13.3 3.11-.3 3.47-16.38 3.47-16.38l.22-1.27 3.09-17.86L201 183.71l-3-1.61s-.53 4.94-1.12 11.09c0 .28-.06.57-.09.88s-.08.67-.11 1c-.1.91-.2 1.85-.27 2.79-.07.71-.13 1.4-.17 2.15s-.1 1.49-.16 2.24c-.45 7.42-.25 15.08-.01 15.96z" fill="#ffc4c0"/><path d="M196.84 193.19a36.32 36.32 0 0022.48 20.67l3.09-17.86L201 183.71l-3-1.61s-.57 4.9-1.16 11.09z" fill="#263238"/><path d="M245.77 164.53c6.7 31.06-11.15 38.58-17.85 40-6.08 1.31-27 5-36.83-25.23s2.45-43.14 16.2-46.86 31.78 1.02 38.48 32.09z" fill="#ffc4c0"/><path d="M239 160a20.14 20.14 0 01-2.19-.15 3.52 3.52 0 01-2.2-.57 1.12 1.12 0 01-.2-1.37 2.81 2.81 0 012.64-1 4.12 4.12 0 012.77 1.08A1.21 1.21 0 01239 160zm-20.85 8c.72-.19 1.36-.49 2.06-.75a3.57 3.57 0 001.95-1.17 1.14 1.14 0 00-.19-1.37 2.81 2.81 0 00-2.83-.25 4.08 4.08 0 00-2.35 1.8 1.21 1.21 0 001.36 1.74zm5.33 3.89c0-.07-.15.13-.14.22.43 2.12.56 4.62-1.25 5.66-.06 0 0 .13 0 .11 2.33-.72 2.13-4.04 1.39-5.99z" fill="#263238"/><path d="M221.2 170c-3.48.32-2.6 7.25.63 7s2.28-7.28-.63-7z" fill="#263238"/><path d="M219.88 170.52c-.55.47-1.06 1.24-1.78 1.41s-1.56-.46-2.2-1.08c-.07-.07-.12 0-.11.09.15 1.33.83 2.63 2.28 2.64s2.11-1.28 2.27-2.65c.03-.26-.23-.6-.46-.41zm15.55-1.4c0-.08.18.09.18.18.08 2.17.54 4.63 2.54 5.21.07 0 .07.13 0 .12-2.41-.17-2.99-3.44-2.72-5.51z" fill="#263238"/><path d="M237.21 166.74c3.45-.51 4.2 6.44 1 6.9s-3.9-6.48-1-6.9z" fill="#263238"/><path d="M238.61 167c.65.32 1.32.95 2.06.94s1.41-.8 1.89-1.56c.05-.08.12 0 .13.07.16 1.33-.2 2.75-1.61 3.1s-2.34-.75-2.82-2.06c-.09-.28.09-.67.35-.49zm-12.78 21.5c.56.46 1.13 1.11 1.92 1.12a5.67 5.67 0 002.28-.74.08.08 0 01.1.11 2.92 2.92 0 01-2.64 1.39 2.31 2.31 0 01-1.86-1.77c-.04-.12.12-.18.2-.11zm7.88-9s.89 3.14 1.1 4.65c0 .14-.33.26-.84.36h-.06a7.25 7.25 0 01-7.35-1.71c-.12-.13.05-.31.2-.24a10.89 10.89 0 006.82 1c0-.44-1.71-5.33-1.47-5.38a13.1 13.1 0 013.54.3c-1.66-6.59-4.37-12.87-5.93-19.46-.05-.23.29-.35.38-.15 3.31 6.38 5.38 13.92 7.28 20.68.24.82-3.03.12-3.67-.05z" fill="#263238"/><path d="M189.31 178.53c5.4.42 6.64-10.91 6.64-10.91s11 0 14.59-15.74a24.25 24.25 0 01-4.85 13s19.35-2 27.49-18.24c0 0-3.25 8.25-6.29 11.18 0 0 8.11-2.26 12.07-8.85 0 0 3.39 9.34 6 11.92 0 0-.79-33.85-32.16-30.25 0 0-19.64 1.3-26.69 16.85s3.2 31.04 3.2 31.04z" fill="#263238"/><path d="M207.67 167.06s-18.85 3.6-22.41 6.66c-1.46 1.26.18 8.1 1.37 8.94.75.53 11-4.08 22-5.58.01 0-2.02-5.71-.96-10.02z" fill="#455a64"/><path d="M246.4 174.81a8.47 8.47 0 01-.79 1.05c-1.16 1.29-2.69 1.89-5.28 1.23-1.69-.43-3-2.08-5.76-1.77a9.35 9.35 0 00-4.76 1.73 27.55 27.55 0 00-2.62 2.1c-.21.17-.42.36-.63.55a4.85 4.85 0 01-.61.49 8 8 0 01-1 .64c-4.09 2.19-10.87 2.28-13.47.35-2.38-1.76-4.19-6.91-3.91-11.88a15.08 15.08 0 01.48-3.16 12.31 12.31 0 011.17-2.91c.1-.17.19-.33.29-.48a7.51 7.51 0 011-1.2c2.47-2.55 7.23-4.6 12.4-5.84l1.59-.34c1.15-.24 2.31-.43 3.46-.58 1.33-.17 2.66-.29 3.94-.33 4.54-.18 8.53.46 10.63 2.14a10.92 10.92 0 013.21 4.8 20.37 20.37 0 01.82 2.72 25.84 25.84 0 01.42 9 5.07 5.07 0 01-.58 1.69z" fill="#fff" opacity=".2"/><path d="M246.4 174.81a8.47 8.47 0 01-.79 1.05L235 170.52a1.52 1.52 0 011.07-2.83 1.76 1.76 0 01.3.1l10.6 5.32a5.07 5.07 0 01-.57 1.7zm-16.59 2.24a27.55 27.55 0 00-2.62 2.1l-19.64-9.85a15.08 15.08 0 01.48-3.16zm-6.15-7.73a1 1 0 01-1.17.54.9.9 0 01-.21-.08l-13.08-6.55c.1-.17.19-.33.29-.48a7.51 7.51 0 011-1.2l12.74 6.39a1 1 0 01.43 1.38zm22.85-5.2l-18.6-9.33c1.33-.17 2.66-.29 3.94-.33l13.84 6.94a20.37 20.37 0 01.82 2.72zm-3.64 1.06a.52.52 0 01-.58.26h-.11l-19.32-9.69 1.59-.34 18.19 9.12a.5.5 0 01.23.65zM226 180.19a8 8 0 01-1 .64l-10-5a.51.51 0 01-.22-.69.49.49 0 01.58-.26h.11z" opacity=".2" fill="#fff"/><path d="M214.2 183.08a7.57 7.57 0 01-3.07-1.52c-3.64-3.13-6.16-12.74-2.07-19.09 2.75-4.26 11-7 17.25-8 5.78-.93 13.15-1 16.49 1.71 5.51 4.43 5.54 15.37 4.08 18.8-1 2.34-3.62 3.36-6.68 2.58a9.06 9.06 0 01-1.84-.76 7.25 7.25 0 00-3.77-1c-2.56.13-4 1.15-7.7 4.27a15.36 15.36 0 01-12.69 3.01zM209.92 163c-3.69 5.73-1.51 14.84 1.88 17.76 3.09 2.67 10.38 1.93 14.44-1.48 3.59-3 5.3-4.36 8.3-4.51a8.08 8.08 0 014.27 1.12 8.53 8.53 0 001.64.68c2 .51 4.53.26 5.49-2 1.33-3.13 1.28-13.54-3.78-17.61-2.57-2.07-8.58-2.64-15.69-1.49-7.94 1.29-14.44 4.24-16.55 7.52z" fill="#455a64"/><path d="M196.54 180.64s-8.13-9-12.28-5.95 2.82 16.63 8.31 17.92a5.38 5.38 0 006.79-3.77z" fill="#ffc4c0"/><path d="M186.36 178.54a.08.08 0 000 .15c3.86 1 6.23 4.18 8 7.55-1.26-1.22-2.85-1.78-4.5-.25-.09.08 0 .22.12.18a3.3 3.3 0 013.75.69 15.76 15.76 0 012.1 2.7c.22.31.79.06.61-.3a.36.36 0 000-.09c-.52-4.69-4.99-10.79-10.08-10.63z" fill="#263238"/><path d="M193.36 192.82a1.74 1.74 0 101.74-1.74 1.74 1.74 0 00-1.74 1.74z" fill="#fff"/><path d="M219 216.83l-.85 8.86c-.41 9.7-1.68 13.58-3.77 13.73-6.87.47-17.6-17.45-18.34-21.21s22.96-1.38 22.96-1.38z" fill="#ffc4c0"/><path d="M118.54 407.76h92.77l-15.64-194.35s-3.33-.23-11.6 5.5c-8.83 6.11-17.8 18.62-29.93 44.85-28 60.56-35.6 144-35.6 144z" fill="#ebebeb"/><path d="M192.43 234.89c-3.11 10-29.91 75.69-39.66 87.45-7.41 8.94-30.71 20.44-36.93-3.17-4.14-15.73 43.57-79.22 65.08-97.81 9.88-8.53 18.08-7.51 11.51 13.53z" fill="#ebebeb"/><path d="M131.2 333.24a27 27 0 0011.37-3.16 31.11 31.11 0 009.2-7.27 41.19 41.19 0 003.53-4.7c1.06-1.66 2-3.4 3-5.14 1.87-3.5 3.62-7.08 5.31-10.69 3.48-7.17 6.7-14.46 10-21.74l9.72-21.89c-1.33 3.77-2.78 7.49-4.19 11.23s-3 7.41-4.47 11.11q-4.57 11.08-9.67 21.94c-1.74 3.6-3.54 7.17-5.47 10.69-1 1.75-2 3.5-3.08 5.19a33.38 33.38 0 01-3.76 4.78 31.81 31.81 0 01-9.73 7.14 28.54 28.54 0 01-5.72 1.93 21.86 21.86 0 01-6.04.58z" fill="#263238"/><path d="M179.67 267.45a30.8 30.8 0 012.34-3.32c.83-1.05 1.67-2.07 2.55-3.13a10.47 10.47 0 01-2 3.59 14.71 14.71 0 01-2.89 2.86z" fill="#263238"/><path d="M195.67 213.41c-1.41 3.22-11.16 32-13.78 38.48l-.24.59.51.41q5.25 4.14 10.55 8.23l-.18-1.35-9.8 13-.32.43.19.49c2.84 7.18 20.82 40.24 22.41 43.76-1.23-3.66-17.83-37.27-20.63-44.45l-.13.92 9.82-12.93.58-.77-.76-.58q-5.32-4.06-10.67-8.07l.27 1c2.51-6.57 11.02-35.84 12.18-39.16zM142.7 359.4c-.37 11.7.17 24.93 2.66 27.36 4.66 4.56 17.08 4.18 21 4.14s17.81 0 21.07-7.21c1.44-3.16 1.82-19.49 1.78-25.27 0-2.34-.54-13.89-.72-15.18 0-.31-.86-.27-.89-.07-.2 1.32-.07 6.11-.14 7-22.38 2.88-36.24.47-43.42-.91v-6a122.08 122.08 0 0021.2 2 231.88 231.88 0 0023.25-1.65c.18 0 .05-.89-.22-.88-2.92 0-13 1-23.21 1a184.81 184.81 0 01-21.77-1.7c-.41.17-.42 11.76-.59 17.37zm4 26c-2.47-2.84-2.78-11-2.77-15.89v-18.83c17.23 4 36.2 2 43.39.58 0 .29.13 14.48 0 19-.17 5.78-.35 11-2.57 14-1.9 2.58-7.27 5.16-19.6 5.15-8.85.01-16.37-1.61-18.43-3.98z" fill="#dbdbdb"/><path d="M127.46 208.25c3.32-13.21 9.17-31.51 14.4-34.91 5.48-3.56 25.27-15.31 30.75-16.56s26 1.67 30 4.65c3.24 2.38-.71 9.74-12.06 10.4-10.61.62-13.18.25-16.12 1.15s-10.93 9.46-9.5 13.78c.84 2.55 7.58 6.17 12.19 4.67s6.79-6.54 12.25-10.09 14.25-2.07 14.5.37-2.8 3.24-8.21 10.85c-3.48 4.9-5.2 13.87-12.79 22.12-3.8 4.15-10.9 15.52-10.9 15.52z" fill="#ffc4c0"/><path d="M141.86 173.34c5-6.23 17.23-17.11 28.49-20.07 7.61-2 31.42 13 30.16 17.71s-5.55 4.27-11.83 2.82c-2.28-.53-14.06-6.27-16.43-3.92-3.4 3.36-8.6 15.57-8.6 15.57z" fill="#ffc4c0"/><path d="M200.1 169c-2.55-5.48-9.08-9-15.63-11.88-.11-.05-.18.11-.08.15 1.67.75 12.18 7 15.62 11.81.04.08.11.01.09-.08z" fill="#263238"/><path d="M141.86 173.34c5-6.23 17.23-17.11 28.49-20.07 7.61-2 25.8 15.83 24.54 20.56s-7.47 4.43-14 1.32c-2.12-1-9-7-11.32-4.68-3.4 3.37-11.72 11.74-11.72 11.74z" fill="#ffc4c0"/><path d="M162.66 177c.8-1 1.07-1.33 1.89-2.29s1.65-1.92 2.53-2.82a9.64 9.64 0 012.51-2.13 4.89 4.89 0 013.09-.27c2.34.48 4.31 2.22 6.19 3.59 2.1 1.53 6.52 4.12 10.12 4.13a6.94 6.94 0 002.89-.46 4.44 4.44 0 001.83-1.15c1.83-2.45.22-5.65-1.52-8-3.24-4.35-7.87-7.75-12.4-10.62-1.12-.71-2.25-1.38-3.38-2.06a10.73 10.73 0 00-4.18-1.71c-2.47-.28-6.8 1.79-8.14 2.41-.1.05-.15-.12-.05-.17 1.62-.78 5.72-3.45 9.69-2.81a12.54 12.54 0 014 1.85c1.32.75 2.62 1.55 3.9 2.37a56.91 56.91 0 017.12 5.33 23.72 23.72 0 015.58 6.56 7 7 0 01-.35 7.16c-1.29 1.69-3.66 1.88-4.74 1.9a11.57 11.57 0 01-3.15-.38 50.87 50.87 0 01-6.62-2.74c-2.07-1.1-3.85-2.77-6-3.69a4.22 4.22 0 00-3.25-.14 11.15 11.15 0 00-2.65 1.94 33.34 33.34 0 00-4.55 4.34c-.38.45-.7.26-.36-.14z" fill="#263238"/><path d="M138.05 178.84c1.92-3 6-15.86 9-19.61s16.07-16.41 21.4-15.22c6.71 1.5-1.7 13-5.81 17.62s-4.44 13.28-4.44 13.28z" fill="#ffc4c0"/><path d="M168.48 153.81c-1.44 1.46-2.75 3.11-4 4.7a40.5 40.5 0 00-3.59 4.67 17.72 17.72 0 00-1.93 5.45c-.19.93-.33 1.87-.44 2.82s-.14 2.09-.27 3.12a.09.09 0 00.17 0 42.74 42.74 0 011.35-5.55 24.23 24.23 0 012.31-5.42c2-3.38 4.65-6.3 6.65-9.67.05-.1-.15-.22-.25-.12zm-10.38 22.55a16.58 16.58 0 00.49 4.76 35 35 0 001.36 4.59 43.52 43.52 0 001.85 4.4c.66 1.44 1.52 2.77 2.34 4.17a30.83 30.83 0 013.88 8.94 27.47 27.47 0 01.53 9.68 34.3 34.3 0 00-1.24-9.49 35.58 35.58 0 00-4-8.62 40.74 40.74 0 01-2.36-4.26 36.14 36.14 0 01-1.75-4.57c-.91-3.09-1.69-6.38-1.1-9.6zm16.67 15.36a8.51 8.51 0 005.66-2.87c1.38-1.38 2.67-2.86 4.07-4.23A19.9 19.9 0 01189 181a23 23 0 016.22-2 12.56 12.56 0 016.27 0c1.67.51 3.55 1.9 3 3.93a7.78 7.78 0 01-1.43 2.5 21.12 21.12 0 01-1.93 2.08c-1.38 1.33-2.88 2.56-4.13 4-1.68 2-2.65 4.43-3.76 6.74-.41.86-3 6.65-4 8.63a31.37 31.37 0 01-3 4.82 43.78 43.78 0 01-3.64 3.95 27.18 27.18 0 00-3.75 4.47c0 .08-.15 0-.12-.08 1.21-3.21 3.85-5.63 6.23-8 3.08-3.05 8.83-17.33 10-19.31 1.88-3.32 5.18-5.25 7.44-8.22.52-.68 1.32-1.67 1.17-2.6a2.66 2.66 0 00-1.87-1.78 10.78 10.78 0 00-6.11.16 27.67 27.67 0 00-6 1.9 19.85 19.85 0 00-4.52 3.26c-1.56 1.44-3 2.92-4.69 4.25a8.52 8.52 0 01-5.66 2.15c-.08.03-.06-.12.05-.13zm24.35-31.45c-1.49-.48-3-1-4.46-1.46v-.06c1.75.42 3.55.72 5.31 1.13a5.34 5.34 0 013.63 2.17 4 4 0 01-.23 3.92 10.61 10.61 0 01-3.29 3 .06.06 0 11-.07-.1c1.83-1.46 4.62-4.25 2.6-6.68a7.23 7.23 0 00-3.49-1.92zm-4.8 14.36a8.71 8.71 0 004.6-1.5 3.59 3.59 0 001.19-1.68 3.53 3.53 0 00.16-1.12 1.7 1.7 0 00-.32-1.12c-.08-.07.07-.16.1-.07s.25.38.35.58a2.62 2.62 0 01.2.53 3 3 0 01.06 1.12 3.56 3.56 0 01-1.12 2.13 6 6 0 01-5.22 1.26.07.07 0 010-.13z" fill="#263238"/><path d="M172 230.2c-1.64 12.9-20.14 80.75-26.09 91.14s-21.36 17-28.72.86 6.67-100.54 10.28-113.95c2-7.46 45.12 17.28 44.53 21.95z" fill="#ffc4c0"/><path d="M178.91 237.73l-55.58-22.34s-11.07 78.41-8.12 101.68c2.12 16.7 22.42 25.6 35 .81s28.7-80.15 28.7-80.15z" fill="#ebebeb"/><path d="M173.22 247.88c-8.37-3-42.17-16.77-49.27-20.23-.49-.24-.46-.61.09-.43 25.3 8.53 41.23 16.91 49.29 20.32.2.09.1.46-.11.34z" fill="#263238"/><path d="M162.54 290.16c4-11 7.67-22 10.83-33.19.88-3.14 1.74-6.28 2.56-9.43s1.6-6.07 2.26-9.14c-1.19-.59-6.34-3-6.92-3.4a.21.21 0 01.17-.37c.65.15 6.58 2.53 7.87 3.23.18.09-1.34 6.1-2 9s-1.37 5.72-2.11 8.56q-2.2 8.44-4.83 16.78-2.82 9-6.09 17.77c-1.89 5.03-6.82 14.29-1.74.19zm100.45 77.04h3.94v76.86h-3.94z" fill="#263238"/><path fill="#263238" d="M266.93 438.67h83.97v5.38h-83.97z"/><path d="M295.63 362.1l-.29 64.34a7.59 7.59 0 01-15.18-.07l.29-64.34z" fill="#ebebeb"/><path d="M294.66 380.71l-.2 45.68a6.71 6.71 0 11-13.42-.06l.2-45.68z" fill="#c7c7c7"/><path fill="#00e77f" d="M278.09 356.348l19.94.09-.046 10-19.94-.09z"/><path d="M319 362.1l-.29 64.34a7.59 7.59 0 01-15.18-.07l.29-64.34z" fill="#ebebeb"/><path d="M318.05 380.71l-.2 45.68a6.71 6.71 0 01-13.42-.06l.21-45.68z" fill="#37474f"/><path fill="#455a64" d="M301.48 356.354l19.94.09-.046 10-19.94-.09zm49.41 39.546v7.19h-83.96v-7.19h13.63v2.41c0 1.19 3.36 2.14 7.48 2.14s7.48-.95 7.48-2.14v-2.41H304v2.41c0 1.19 3.34 2.14 7.47 2.14s7.47-.95 7.47-2.14v-2.41h8.45v2.41c0 1.19 3.34 2.14 7.47 2.14s7.48-.95 7.48-2.14v-2.41z"/><path fill="#263238" d="M266.93 403.09h83.97v2.9h-83.97z"/><path fill="#263238" d="M350.89 367.2h3.94v76.86h-3.94z"/><path d="M195.26 434.68h-73.47s9.79-32.48 14.61-43.84a13.64 13.64 0 002.47 1.67 11.77 11.77 0 002.2.9 10.83 10.83 0 001.44.36h.16l.48.06c4.14.34 10.15-2.8 16-4.94a26.84 26.84 0 017.82-1.89c5.14-.22 10.63 2.39 13.81 4.22 4.74 11.28 14.48 43.46 14.48 43.46z" fill="#00e77f"/><path d="M159.11 388.91c-6.12 2.25-12.46 5.62-16.6 4.86a13 13 0 01-6.11-2.93c-.36-2 5.83-4.52 13.59-3.84a58 58 0 019.12 1.91z" fill="#00e77f"/><path d="M159.11 388.91c-6.12 2.25-12.46 5.62-16.6 4.86a13 13 0 01-6.11-2.93c-.36-2 5.83-4.52 13.59-3.84a58 58 0 019.12 1.91z" opacity=".2"/><path d="M132 412.57a1.27 1.27 0 01-.47-.09 1.19 1.19 0 01-.61-1.56c6.1-13.93 15.84-36.83 16-39v-25.18a1.19 1.19 0 012.37 0V372c0 2.64-12.42 31.21-16.23 39.91a1.17 1.17 0 01-1.06.66z" fill="#fff" opacity=".3"/><path d="M137.35 406.91a.15.15 0 01-.09 0 .23.23 0 01-.12-.31c4.86-11.21 14.16-32.84 14.16-34.6v-22.19a.24.24 0 01.24-.24.23.23 0 01.23.24V372c0 2.31-13.62 33.45-14.2 34.78a.23.23 0 01-.22.13z" fill="#fff" opacity=".3"/><g opacity=".2"><path d="M195.26 434.68h-73.47s9.79-32.48 14.61-43.84l.51-1.2c3.92-9.26 7.28-17.41 7.28-18.41v-30.72h28.59v30.72c0 1 3.74 10.1 8 20 4.74 11.27 14.48 43.45 14.48 43.45z" fill="#fff"/><path d="M195.26 434.68l-36.63.21-36.84.12h-.44l.12-.42q3.54-11.74 7.3-23.42c1.27-3.88 2.55-7.77 3.9-11.63s2.79-7.71 4.42-11.45 3.15-7.54 4.66-11.33l1.1-2.85.51-1.43a6.77 6.77 0 00.35-1.33v-6.13l.05-24.51v-.45h.45l28.59.06h.39v31.04a5.88 5.88 0 00.36 1.38L174 374l1.1 2.86c1.5 3.79 3.08 7.56 4.66 11.33a244.11 244.11 0 018.3 23.08c2.47 7.73 4.86 15.58 7.2 23.41zm0 0q-3.66-11.7-7.53-23.33c-1.31-3.88-2.63-7.74-4-11.58s-2.83-7.65-4.49-11.39-3.19-7.53-4.71-11.33l-1.12-2.86-.53-1.45a6.29 6.29 0 01-.4-1.58V365l-.06-24.52.39.39-28.59.06.45-.45v30.64a6.77 6.77 0 01-.41 1.64l-.53 1.45-1.12 2.86c-1.52 3.8-3.12 7.56-4.71 11.33s-3.09 7.53-4.45 11.39-2.67 7.72-3.95 11.59q-3.82 11.64-7.4 23.36l-.31-.42 36.63.12z" fill="#263238"/><path d="M144.45 347.33a14.23 14.23 0 013.42-.38 13.77 13.77 0 013.43.38 16 16 0 01-6.85 0zm0 3.55a4 4 0 013.42 0 4.14 4.14 0 01-3.42 0zm0 2.71a3.78 3.78 0 011.71-.37 3.65 3.65 0 011.71.37 3.66 3.66 0 01-1.71.38 3.79 3.79 0 01-1.71-.38zm0 2.72a4 4 0 013.42 0 4.14 4.14 0 01-3.42 0zm0 2.49a14.22 14.22 0 013.42-.37 13.76 13.76 0 013.43.37 15.63 15.63 0 01-6.85 0zm0 3.55a3.79 3.79 0 011.71-.38 3.66 3.66 0 011.71.38 4.14 4.14 0 01-3.42 0zm0 2.71a4.14 4.14 0 013.42 0 4 4 0 01-3.42 0zm0 2.72a3.79 3.79 0 011.71-.38 3.66 3.66 0 011.71.38 3.65 3.65 0 01-1.71.37 3.78 3.78 0 01-1.71-.37z" fill="#263238"/></g><path d="M60.09 395.3h6.6a8.48 8.48 0 018.48 8.48v31.65H51.62v-31.65a8.48 8.48 0 018.47-8.48z" fill="#dbdbdb"/><path fill="#dbdbdb" d="M57.33 389.41h12.14v7.05H57.33z"/><path fill="#00e77f" d="M55.19 386.12h16.42v6.28H55.19z"/><path fill="#fff" d="M53.59 410.19h17.38v15.88H53.59z"/><path d="M88.47 395.3h6.6a8.48 8.48 0 018.48 8.48v31.65H80v-31.65a8.48 8.48 0 018.47-8.48z" fill="#dbdbdb"/><path fill="#dbdbdb" d="M85.7 389.41h12.14v7.05H85.7z"/><path fill="#455a64" d="M83.56 386.12h16.42v6.28H83.56z"/><path fill="#fff" d="M81.96 410.19h17.38v15.88H81.96z"/><path d="M446.37 407.58h-8.87s-2.12-32.65-21.88-34.29c-10.46-.86-20.1 6.58-27.61 14.95 7.43-8.43 20.61-19.32 33.17-19.32 18.93 0 25.19 38.66 25.19 38.66zm-58.56-101.14l13.61-27.74 4.6 6.23-11.67 21.51h-6.54z" fill="#263238"/><path fill="#455a64" d="M391.44 309.928l15.522-29.427 7.059 3.723-15.522 29.427z"/><path fill="#37474f" d="M398.51 313.69l4.23-1.15 12.78-23.67-1.48-4.61-15.53 29.43z"/><rect x="357.1" y="308.53" width="5.75" height="21.07" rx="2.65" transform="rotate(23.92 360.006 319.118)" fill="#37474f"/><rect x="373.28" y="318.24" width="5.75" height="21.07" rx="2.65" transform="rotate(23.92 376.201 328.858)" fill="#37474f"/><rect x="362.04" y="314.53" width="7.98" height="27.13" rx="3.59" transform="rotate(23.92 366.062 328.145)" fill="#37474f"/><rect x="392.93" y="233.79" width="7.98" height="27.13" rx="3.59" transform="rotate(23.92 396.922 247.371)" fill="#37474f"/><rect x="404.87" y="239.08" width="7.98" height="27.13" rx="3.59" transform="rotate(23.92 408.897 252.678)" fill="#37474f"/><path d="M360.66 309.92l28.57-59.48s8.16.27 22.28 10.07l-30.35 59.34a56.75 56.75 0 01-20.5-9.93z" fill="#37474f"/><path d="M386.84 324.83s-26.92-7.95-34.32-15.23l2.36-5.31a72.55 72.55 0 0134.32 15.23zm25.7-62.63s-10.66-9.08-25.12-11.81l2.47-5.26C405.17 244.87 415 257 415 257zM392.7 298s-11.78-7.79-21.93-10.31a1.09 1.09 0 01-.56-1.54l2.77-5.89a1.27 1.27 0 011.55-.56 60.45 60.45 0 0121.92 10.3 1.17 1.17 0 01.56 1.55l-2.77 5.88a1.15 1.15 0 01-1.54.57zm18.98-7.27l2.13-1S443.52 303 442 338.39c-1 23.46-18.14 39.69-18.14 39.69s20.82-26.87 13-51.74-25.18-35.61-25.18-35.61z" fill="#455a64"/><path d="M439.58 340.83c-1.71 21.64-15.74 37.25-15.74 37.25h-21.31c-9.77-12.85-25.31-20.36-25.31-20.36l17 3 1.51-.78 3-1.53s4.31 6.6 10.8 6.45a9.94 9.94 0 003.85-.86c7.58-3.28 11.41-23.41 7.87-35.43S402.2 309.1 402.2 309.1l9.48-18.37c16.95 7.61 29.6 28.46 27.9 50.1z" fill="#37474f"/><path d="M409.57 364.85s-5.58 1.89-13.81-4.93l3-1.53s4.31 6.6 10.8 6.45zm27.93 42.73H374c1.59-2.48 4.33-6.94 8-11.85l.23-.32c.1-.13.2-.25.29-.38a3 3 0 01.18-.25l.55-.71.16-.21.59-.76c.32-.41.67-.85 1.06-1.32s.55-.67.83-1c.44-.52.9-1.07 1.4-1.64l.78-.89c7.51-8.37 17.15-15.81 27.61-14.95 19.7 1.63 21.82 34.28 21.82 34.28z" fill="#455a64"/><path fill="#263238" d="M329.754 347.868l62.463 5.212-.66 7.912-62.463-5.212z"/><path fill="#37474f" d="M392.145 353.15l13.852 1.159-.662 7.912-13.852-1.158z"/><path d="M386.5 402.35a2.15 2.15 0 11-2.15-2.15 2.15 2.15 0 012.15 2.15zm44.66 0a2.15 2.15 0 11-2.16-2.15 2.15 2.15 0 012.16 2.15zm-17.72-22.12a2.15 2.15 0 11-2.15-2.15 2.15 2.15 0 012.15 2.15zm-16.52-115.4a2.15 2.15 0 11-2.15-2.15 2.15 2.15 0 012.15 2.15zm-18.62 39.46a2.15 2.15 0 11-2.15-2.15 2.15 2.15 0 012.15 2.15zm39.37.76a2.15 2.15 0 11-2.15-2.15 2.15 2.15 0 012.15 2.15z" fill="#263238"/><circle cx="399.44" cy="367.19" r="2.15" fill="#263238"/></svg>