<svg xmlns="http://www.w3.org/2000/svg" viewBox="0 0 500 500"><path fill="#263238" d="M46.98 433.16l50.76-.24 50.75-.09 101.51-.17 101.51.17 50.75.09 50.75.24-50.75.24-50.75.09-101.51.17-101.51-.17-50.75-.09-50.76-.24z"/><path d="M334.51 61.92h-169a17.26 17.26 0 00-17.11 17.42v348a17.27 17.27 0 0017.11 17.42h169a17.28 17.28 0 0017.13-17.42v-348a17.27 17.27 0 00-17.13-17.42zm6.43 354.67c0 9.16-6.86 16.57-15.31 16.57H174.39c-8.49 0-15.34-7.41-15.34-16.57V92.53c0-18.66 6.85-19.57 15.34-19.57h30.29c1.76 0 3.2 2 3.2 4.48v1.07c0 5.81 3.18 5.83 7.09 5.83h70c4 0 7.09 0 7.09-5.83v-1.07c0-2.48 1.42-4.48 3.22-4.48h30.3c8.45 0 15.31 2.48 15.31 19.57z" fill="#263238"/><path d="M259.55 77.08h-19.11a1.18 1.18 0 01-1.18-1.18 1.18 1.18 0 011.18-1.18h19.11a1.18 1.18 0 011.18 1.18 1.18 1.18 0 01-1.18 1.18z" fill="#fff"/><path d="M340.94 92.53v324.06c0 9.16-6.86 16.57-15.31 16.57H174.39c-8.49 0-15.34-7.41-15.34-16.57V92.53c0-18.66 6.85-19.57 15.34-19.57h30.29c1.76 0 3.2 2 3.2 4.48v1.07c0 5.81 3.18 5.83 7.09 5.83h70c4 0 7.09 0 7.09-5.83v-1.07c0-2.48 1.42-4.48 3.22-4.48h30.3c8.5.04 15.36 2.48 15.36 19.57z" fill="#fff"/><path d="M340.94 92.53v24.18H159V92.53C159 73.87 165.9 73 174.38 73h30.3c1.76 0 3.2 2 3.2 4.48v1.07c0 5.81 3.18 5.83 7.08 5.83H285c3.94 0 7.1 0 7.1-5.83v-1.11c0-2.48 1.42-4.48 3.21-4.48h30.29c8.48.04 15.34 2.48 15.34 19.57z" fill="#00e77f"/><path fill="#fff" d="M176.28 104.91l-5.37-5.04 5.37-5.04.83.89-4.42 4.15 4.42 4.15-.83.89zm148.16.35h-3.6V104a.31.31 0 00-.17-.27c-.14-.07-.27-.15-.4-.23a.31.31 0 00-.32 0l-1.08.62-1.8-3.11 1.09-.63a.29.29 0 00.14-.28 1.69 1.69 0 010-.23 1.77 1.77 0 010-.23.29.29 0 00-.14-.28l-1.09-.63 1.8-3.11 1.08.62a.31.31 0 00.32 0c.13-.08.26-.16.4-.23a.31.31 0 00.17-.27v-1.26h3.6v1.25a.31.31 0 00.17.27l.4.23a.31.31 0 00.32 0l1.08-.62 1.79 3.11-1.08.63a.3.3 0 00-.15.28 1.77 1.77 0 010 .23v.22a.28.28 0 00.14.29l1.08.63-1.79 3.11-1.09-.62a.29.29 0 00-.31 0l-.4.23a.31.31 0 00-.17.27zm-2.85-.75h2.1V104a1.06 1.06 0 01.57-.94 2.27 2.27 0 00.34-.19 1 1 0 011.1 0l.43.25 1.05-1.82-.44-.25a1 1 0 01-.51-1v-.38a1 1 0 01.52-1l.43-.25-1.05-1.82-.43.25a1 1 0 01-1.1 0 2.79 2.79 0 00-.33-.19 1.05 1.05 0 01-.58-.94v-.5h-2.1v.5a1.05 1.05 0 01-.58.94 2.17 2.17 0 00-.33.19 1 1 0 01-1.1 0l-.43-.25-1 1.82.43.25a1 1 0 01.52 1 1.81 1.81 0 000 .38 1 1 0 01-.52 1l-.43.25 1 1.82.43-.25a1 1 0 011.1 0 2.79 2.79 0 00.33.19 1.05 1.05 0 01.58.94zm1.05-1.94a2.71 2.71 0 112.7-2.7 2.71 2.71 0 01-2.7 2.7zm0-4.66a2 2 0 101.95 2 2 2 0 00-1.95-2z"/><g fill="#fff"><path d="M199.45 80.24l-.29.29c-.06 0-.11.11-.17.17a3.9 3.9 0 00-2.82-1.17 3.86 3.86 0 00-2.82 1.17l-.16-.17-.29-.29.37-.32a4.06 4.06 0 01.86-.55 4.18 4.18 0 011.13-.38c.19 0 .38 0 .57-.08h.88a4.51 4.51 0 011 .25 4.58 4.58 0 01.71.33 4.48 4.48 0 01.67.47l.31.28z"/><path d="M194.27 81.62c-.15-.16-.3-.31-.46-.46a3.32 3.32 0 014.71 0l-.46.46a2.68 2.68 0 00-3.79 0z"/><path d="M197.6 82.08l-.46.46a1.31 1.31 0 00-1-.4 1.35 1.35 0 00-1 .4l-.46-.46a2 2 0 012.92 0zm-1.02.92a.41.41 0 01-.41.41.42.42 0 110-.83.41.41 0 01.41.42z"/></g><path d="M170.9 81.12a1.21 1.21 0 111.21 1.21 1.21 1.21 0 01-1.21-1.21zm3.8 0a1.21 1.21 0 111.21 1.21 1.21 1.21 0 01-1.21-1.21zm3.8 0a1.21 1.21 0 111.2 1.21 1.2 1.2 0 01-1.2-1.21zm3.8 0a1.21 1.21 0 111.2 1.21 1.2 1.2 0 01-1.2-1.21zm3.79 0a1.21 1.21 0 111.21 1.21 1.21 1.21 0 01-1.21-1.21zm141.21 2.63h-9.82v-4.54h9.82zm-9.32-.5h8.82v-3.54H318z" fill="#fff"/><path fill="#fff" d="M318.3 79.98h6.33v3h-6.33zm9 .29h.87v2.43h-.87z"/><path fill="#ebebeb" d="M186.68 413.35h-1.38v6.35h-2.58v-3.24h-4.58v3.24h-2.58v-6.35h-1.39l6.26-6.46 6.25 6.46zm124.07-6.46h15.08v2.15h-15.08zm0 5.33h15.08v2.15h-15.08zm0 5.33h15.08v2.15h-15.08z"/><path d="M186.39 148.52a9.93 9.93 0 01-2.93 1.23 10.17 10.17 0 112.93-1.23z" fill="#dbdbdb"/><path d="M184.14 138.73a3.09 3.09 0 11-3.09-3.09 3.09 3.09 0 013.09 3.09z" fill="#fff"/><path d="M186.39 147.25v1.27a9.93 9.93 0 01-2.93 1.23 10.11 10.11 0 01-7.74-1.23v-1.27a5.34 5.34 0 1110.67 0z" fill="#fff"/><path fill="#ebebeb" d="M203.93 130.32h64.51v5.32h-64.51zm0 8.87h56.31v3.52h-56.31zm0 6.79h93.11v3.52h-93.11zM340.91 285.8H159.04V158.44h181.87z"/><path d="M180.3 194.65a15.07 15.07 0 1015.07-15.07 15.07 15.07 0 00-15.07 15.07z" fill="#dbdbdb"/><path fill="#c7c7c7" d="M239.8 258.1h101.14l-50.57-68.54-50.57 68.54z"/><path fill="#dbdbdb" d="M200.16 258.43h83.5l-41.75-44.64-41.75 44.64z"/><path fill="#dbdbdb" d="M159.05 258.37h181.87v27.44H159.05zM186.39 353a10.19 10.19 0 01-2.93 1.22 10.14 10.14 0 117.46-12.26 10.17 10.17 0 01-4.53 11.04z"/><path d="M184.14 343.17a3.09 3.09 0 11-3.09-3.09 3.09 3.09 0 013.09 3.09z" fill="#fff"/><path d="M186.39 351.69V353a10.19 10.19 0 01-2.93 1.22 10.07 10.07 0 01-7.74-1.23v-1.27a5.34 5.34 0 1110.67 0z" fill="#fff"/><path fill="#ebebeb" d="M203.93 334.76h82.97v5.32h-82.97zm0 8.87h105.91v3.52H203.93zm0 6.79h36.08v3.52h-36.08zm-44.88 12.47h181.87V394H159.05z"/><path d="M209.55 394h-28.36a15.07 15.07 0 0128.36 0z" fill="#dbdbdb"/><circle cx="177.11" cy="299.3" r="6.02" fill="#ebebeb"/><path d="M176.29 301.7c-.16-.1-.3-.25-.51-.23s-.06-.05-.06-.1v-2.4a.13.13 0 01.07-.14c.61-.31.88-.92 1.26-1.44a2.41 2.41 0 00.44-1.82c0-.18.06-.26.22-.3a.41.41 0 01.46.15 3.25 3.25 0 01.35 1.05 4.61 4.61 0 01-.11.9c0 .22-.08.44-.12.66h2.17c.29 0 .43.08.47.27a.54.54 0 01-.3.59c-.05 0-.14 0-.15.08s.09.07.14.11c.24.16.2.51-.09.71-.06.05-.2 0-.2.13s.12.08.18.13a.46.46 0 01-.2.71.61.61 0 00-.12.05s-.06 0 0 .09a.4.4 0 010 .72l-.08.06a.58.58 0 01-.36.08h-3.19a.4.4 0 01-.27-.06zm-3.02-1.41v-1.53c0-.11 0-.16.14-.16h1.86c.12 0 .14 0 .14.15v3.08c0 .13 0 .17-.16.16h-1.81c-.15 0-.17-.05-.17-.19.01-.5 0-1 0-1.51z" fill="#fff" fill-rule="evenodd"/><path d="M183.91 300.73a6 6 0 117.28 4.42 6 6 0 01-7.28-4.42z" fill="#00e77f"/><path d="M192.83 300.06a7.74 7.74 0 01-3.07 2.92 7.73 7.73 0 01-3.08-2.92c-.75-1.53-.27-3.19.92-3.55 1.72-.52 2.16 2.47 2.16 2.47s.44-3 2.15-2.47c1.2.36 1.68 2.02.92 3.55z" fill="#fff"/><path fill="#ebebeb" d="M204.93 298.52h85.45V302h-85.45zm-45.89 20.75l22.74-.18 22.73-.07 45.47-.12 45.47.12 22.73.07 22.74.18-22.74.18-22.73.07-45.47.13-45.47-.13-22.73-.07-22.74-.18z"/><path fill="#455a64" d="M62.278 272.76l61.357-16.36 16.36 61.356-61.357 16.36z"/><path d="M97.16 303.27l-8.22 2.19c-.86-3.21-1.67-6.24-2.52-9.44l8.07-2.15c-.16-.73-.26-1.3-.4-1.86-.61-2.5-1.37-5-1.8-7.49-.93-5.56 1.37-10.27 6.54-12.44 3.22-1.36 6.78-1.9 10.27-2.83.79 2.93 1.5 5.6 2.3 8.59-1.25.33-2.5.64-3.73 1a17.78 17.78 0 00-3.25 1.11 3.17 3.17 0 00-1.82 3.68c.54 2.44 1.26 4.84 2 7.46l9.38-2.51c.42 3.2.85 6.16 1.17 9.13 0 .29-.59.83-1 1-2.25.67-4.52 1.24-7 1.89 2.16 8.13 4.29 16.12 6.46 24.24l-10 2.66c-2.13-8.06-4.27-16.05-6.45-24.23z" fill="#fff"/><path fill="#00e77f" d="M363.292 322.749l63.36 6.28-6.28 63.36-63.36-6.28z"/><path d="M416.44 347c.6-6.34-3-10.84-9.24-11.52q-13-1.43-26.1-2.59c-6.16-.54-10.55 3.14-11.25 9.27-.49 4.34-.87 8.69-1.3 13s-.87 8.5-1.26 12.75c-.59 6.49 3 11 9.37 11.73q12.9 1.41 25.82 2.56c6.3.55 10.75-3.19 11.4-9.45q1.35-12.87 2.56-25.75zm-6.73 25.44c-.44 4-2.82 6-6.83 5.64q-12.92-1.2-25.82-2.56c-4-.42-6-2.85-5.62-6.84q1.23-13 2.58-26.05c.41-4 2.86-6 6.84-5.67q12.92 1.19 25.82 2.55c4 .43 6 2.92 5.61 6.89-.38 4.34-.84 8.68-1.27 13s-.83 8.68-1.31 13.02z" fill="#fff"/><path d="M393.1 345.32a12.24 12.24 0 1010.9 13.56 12.23 12.23 0 00-10.9-13.56zm-2.17 20.27a8.27 8.27 0 01-7.19-8.81 8.16 8.16 0 0116.26 1.61 8.26 8.26 0 01-9.07 7.2zm18-19a2.55 2.55 0 01-3.16 2.24 2.57 2.57 0 01-2.35-3.3c.3-1.69 1.49-2.37 3.2-2.3 1.7.46 2.62 1.55 2.31 3.36z" fill="#fff"/><path fill="#455a64" d="M373.605 174.744l44.609 15.876-15.876 44.61-44.61-15.877z"/><path d="M367.07 210a16.3 16.3 0 0011 .47c-3.66-2.7-4.85-4.54-4.62-7.08l2.8.84c-2.79-2.39-3.92-5.24-2.91-8.88l2.57 1.75c-1.64-4.79-1.21-7.9 1.52-10a21.71 21.71 0 0012 12.44c.14-.47.23-.83.34-1.18A7.12 7.12 0 01396 193a7.2 7.2 0 017.4 3.68 1.5 1.5 0 001.44.88h3.88a7.47 7.47 0 01-3.93 2.5 1.69 1.69 0 010 .23l3.71.33.09.19c-1.19.57-2.37 1.19-3.59 1.69a2 2 0 00-1.28 1.25 21.11 21.11 0 01-25.2 13.5 21.42 21.42 0 01-10.95-6.61c-.16-.23-.33-.45-.5-.64z" fill="#fff"/><path fill="#00e77f" d="M357.21 112.66l39.038-13.016 13.016 39.038-39.037 13.016z"/><path d="M373.5 145c-.13-2.45-.27-4.72-.34-7a2.45 2.45 0 00-.79-1.79A15.22 15.22 0 11397.86 121a15.34 15.34 0 01-9 18.46 16.32 16.32 0 01-7.61 1 2.43 2.43 0 00-1.41.35c-2.09 1.37-4.12 2.71-6.34 4.19zm2.37-4.57c1.3-.84 2.39-1.59 3.53-2.26a2.27 2.27 0 011.33-.26 13.54 13.54 0 006.32-.42c7.48-2.35 11.16-11.25 7.33-18a11.87 11.87 0 00-12.17-6.49 12.06 12.06 0 00-11 8.86c-1.64 5.13-.24 9.59 3.72 13.26a2.29 2.29 0 01.65 1.35c.19 1.25.21 2.53.29 3.92z" fill="#fff"/><path d="M375 121.83c.54-1.65 1.95-1.83 3.12-.6.46.48.59.65 1.07 1.22a1.87 1.87 0 01.36 2.41c-.37.63-.18 1 .35 1.43a10.71 10.71 0 005.61 2.24 1 1 0 001.23-.74c.76-1.93.79-1.92 2.86-1.68l.71.09a1.77 1.77 0 011.46 2.83 4.25 4.25 0 01-3.71 2.33 15.46 15.46 0 01-11-3.74 5.86 5.86 0 01-2.19-2.9 5.15 5.15 0 01.13-2.89z" fill="#fff"/><path d="M238.4 280.85s-7.07 22.4-16 51.56c-9.92 32.41-22.14 73.15-29.48 100.74h66.8c1.12-4.44 2.34-9.24 3.63-14.34l5.64-22c5.34-20.79 11.22-43.52 16.35-63.29 7.69-29.63 13.69-52.64 13.69-52.64z" fill="#455a64"/><path d="M286.08 297.11c-1.44 5.13-3.25 10.17-4.84 15.24s-3.23 10.39-4.83 15.59q-4.76 15.45-9.44 30.91-9.39 30.91-18.72 61.86c-1.25 4.15-2.56 8.29-3.85 12.44h2q3.59-11.92 7.18-23.86 9.42-31.41 18.77-62.85 4.68-15.79 9.31-31.61c1.55-5.33 3-10.67 4.55-16 .79-2.66.45-3.83-.13-1.72z" fill="#263238"/><path d="M245.29 280.85c4.21 32.57 12.23 93.65 18.08 138 13.69-53.69 35.68-138 35.68-138z" fill="#263238"/><path d="M269 396.78c.33 12.26.66 25.09.92 36.37h61.38c-1.25-27.88-3.4-67.23-5.2-98.95-1.7-30.13-3.1-53.35-3.1-53.35h-82.64s1.4 29 8 52c.53 1.9 1.11 3.77 1.74 5.56a108.14 108.14 0 0117.48 9s.74 23.33 1.42 49.37z" fill="#455a64"/><path d="M321.61 433.15h1q-.61-11.08-1.12-22.15c-1.78-39.9-3.18-79.83-4.5-119.74 0-.32-.5-.35-.49 0 .67 22.57 1.26 45.15 2 67.72q1.29 37.02 3.11 74.17zm-74.45-96.47a133.25 133.25 0 0120.46 10.72.24.24 0 01-.22.42c-6.9-3.36-13.95-6.59-20.66-10.31a.47.47 0 01.42-.83z" fill="#263238"/><path d="M242.88 304.58c.57 3.07 1.31 6.11 2 9.16.62 2.86 1.07 5.78 1.83 8.6a14.6 14.6 0 004 7.22c1.12 1 2.36 2 3.56 2.92.64.51 1.34 1 2 1.53-.09-.4-.16-.82-.23-1.23-.21-1.17-.4-2.33-.6-3.49-.43-2.59-.85-5.18-1.24-7.77-.78-5.09-1.5-10.23-2.56-15.27a.17.17 0 01.32-.08c1.27 5 2.67 9.94 3.77 15 .54 2.47 2.48 14.67 2.56 15.53s.16 1.78.2 2.68a10.92 10.92 0 010 2.74c-.05.22-.32.18-.42 0a11.25 11.25 0 01-.78-2.65c-.22-.87-.42-1.75-.57-2.64-.06-.32-.1-.64-.15-1-1.2-.73-2.32-1.69-3.44-2.51s-2.44-1.73-3.59-2.69a13.81 13.81 0 01-4.38-6.84 50 50 0 01-1.43-8.77c-.39-3.46-.67-6.95-1.16-10.4-.04-.16.27-.25.31-.04z" fill="#263238"/><path d="M253.82 200.24c-4.1 32.68-11.26 87.49-22.85 91.92-2 .77-10.54 2.46-16.37-4.1-9.83-11.06-26.83-48.38-31.6-60.39-2.11-5.32 32.59-22.68 35.56-17.33 4.16 7.49 8.53 18.77 9.35 18.39 1.39-.63 3.75-14.54 13-34.08 11.55-24.28 14.44-6.56 12.91 5.59z" fill="#ffc4c0"/><path d="M172.94 214.77c3.42 7.34 16.28 19.61 20.52 21.38s25.83-19.39 25.28-24.08-14-28.49-21.37-32.16-27.96 27.26-24.43 34.86z" fill="#ffc4c0"/><path d="M217.17 207.62s-.71-10.51 1.78-19.44c2.1-7.51 6.07-18.43 2.07-19.71-8.2-2.63-18.08 24.6-18.08 24.6s-2.44 12.71 5.46 16a8.51 8.51 0 008.77-1.45z" fill="#ffc4c0"/><path fill="#00e77f" d="M195.19 216.3l-12.17-2.14 6.21-35.25 15.4 2.71-9.44 34.68z"/><path fill="#00e77f" d="M204.63 181.62l-3.6 13.23-5.84 21.46-12.18-2.15 6.22-35.25 15.4 2.71z"/><path opacity=".1" d="M204.63 181.62l-3.6 13.23-14.17-2.5 2.37-13.44 15.4 2.71z"/><path fill="#00e77f" d="M188.532 169.16l19.164 3.379-2.566 14.555-19.165-3.38zm32.958.3l-15.15-1.14 4.15-23.56 14.62 4.12-3.62 20.58z"/><path fill="#00e77f" d="M203.65 138.75l-6.12 34.77-25.51-1.41-61.85 11.13 14.72-83.5 54.31 31.62 24.45 7.39z"/><ellipse cx="116.17" cy="141.25" rx="42.6" ry="13.69" transform="rotate(-80 116.187 141.257)" fill="#00e77f"/><ellipse cx="115.6" cy="140.41" rx="37.82" ry="11.21" transform="rotate(-80 115.616 140.413)" opacity=".2"/><path d="M124.85 142c-.49 2.74-1 5.39-1.67 7.93a8.46 8.46 0 01-12.44-8.86l.69-3.94A8.45 8.45 0 01126.1 133c-.29 2.94-.71 6-1.25 9zm85.81 35.82l-29.3-2.2 8.03-45.56 28.29 7.95-7.02 39.81z" fill="#00e77f"/><path opacity=".2" d="M210.66 177.82l-29.3-2.2 8.03-45.56 28.29 7.95-7.02 39.81zm-82.87-71.67a26.58 26.58 0 013 9.06 60 60 0 01.75 9.56c0 1.6-.05 3.2-.1 4.79s-.21 3.19-.38 4.78-.34 3.18-.58 4.76-.47 3.16-.75 4.73a104.74 104.74 0 01-5 18.49 54.07 54.07 0 01-4.16 8.64 22.76 22.76 0 01-6.35 7.1 23.32 23.32 0 006-7.32 53.8 53.8 0 003.89-8.66 112 112 0 004.73-18.41 114.37 114.37 0 002-18.9 60.19 60.19 0 00-.49-9.49 27.57 27.57 0 00-2.56-9.13z"/><path d="M97.33 98.9c1.73 1.37 3.4 2.83 5 4.29s3.26 3 4.86 4.48 3.17 3.06 4.71 4.65l2.29 2.38c.74.82 1.51 1.62 2.23 2.46-.88-.68-1.71-1.4-2.57-2.1l-2.49-2.19c-1.65-1.45-3.26-3-4.86-4.48s-3.17-3.06-4.7-4.65-3.02-3.17-4.47-4.84zm12.3 64.52c-2.41.63-4.85 1.15-7.28 1.65s-4.88 1-7.33 1.39-4.9.83-7.37 1.17l-3.7.5c-1.23.13-2.47.29-3.71.39 1.2-.32 2.42-.58 3.63-.88l3.65-.77c2.43-.52 4.88-1 7.33-1.39s4.9-.83 7.37-1.16 4.93-.68 7.41-.9zm-45.8-8.67c3.65-.28 7.3-.46 11-.62s7.3-.27 10.95-.36 7.31-.14 11-.13h5.48c1.83 0 3.66 0 5.49.13-1.83.15-3.65.24-5.48.36l-5.48.27c-3.65.17-7.3.26-11 .36s-7.31.13-11 .12-7.3 0-10.96-.13zm13.09-55.12c3.12 2 6.18 4.1 9.23 6.21s6.07 4.26 9.08 6.42 6 4.36 8.94 6.61l4.42 3.37c1.45 1.16 2.92 2.28 4.36 3.46-1.57-1-3.1-2-4.65-3.06l-4.58-3.15c-3.06-2.1-6.07-4.26-9.08-6.42s-6-4.37-8.94-6.61-5.9-4.46-8.78-6.83zm32.22 40.05c-4.24-.58-8.47-1.27-12.69-2s-8.43-1.5-12.64-2.24-8.41-1.61-12.6-2.48l-6.29-1.31c-2.08-.48-4.18-.92-6.26-1.43 2.12.29 4.24.63 6.35.94l6.34 1c4.22.7 8.43 1.5 12.64 2.24s8.41 1.61 12.6 2.48 8.41 1.81 12.55 2.8z" fill="#263238"/><path d="M207.63 187.84c-.47 4.26-5.23 1.28-5.23 1.28s5.82 5.94 3.64 10.16c-2.11 4.05-7.73.24-8.14 0 .31.32 5.51 5.92 2.89 9.93s-7.72-.63-8-.94c.19.39 2.67 5.59 0 8.18-4.62 4.45-11.31-8.68-16.31-10.07 0 0-3.33 8.2-3.48 8.42 0 0-6.62-12.35-4.36-19a4.48 4.48 0 014.68-3.09s-2.57-3.74-.61-7c1-1.65 4.56-1.5 4.56-1.5s-1.94-3.09 0-5.84c1.53-2.2 4.84-1.71 4.84-1.71s-.49-3.82 1.81-5.57c4.55-3.5 24.69 7.62 23.71 16.75z" fill="#ffc4c0"/><path d="M182.58 176.68a.06.06 0 010-.11c7.52 2 15.15 6.58 20.07 12.68.16.2-.1.55-.32.36a82 82 0 00-19.75-12.93zm-5.45 7.45c-.08 0 0-.17.07-.14 7.73 2.14 16.18 7.5 21 15.19.16.27.05.67-.17.38-3.57-4.87-14.11-12.4-20.9-15.43zm15.77 24.76c-4.93-7.2-11.67-12.1-19.31-16.13-.1 0 0-.19.08-.16 4.27 1 8.88 4 12.26 6.73a22.9 22.9 0 017.22 9.39c.06.15-.15.28-.25.17z" fill="#263238"/><path d="M202.55 189.11c.19.24-.37.26-.19.5.79 1 4.95 7.68 3.13 9.8-1.46 1.7-4.76.91-5.9.11l-2.89-2 2 2.89a14.17 14.17 0 012 4.19 5.12 5.12 0 01-.31 4.19 2.94 2.94 0 01-3.43 1.39 9 9 0 01-3.75-2.4l-2.93-3 1.79 3.74a13.69 13.69 0 011.1 3.27A5.67 5.67 0 01193 215a2.67 2.67 0 01-2.28 1.62 5.86 5.86 0 01-3.05-1.17 46.56 46.56 0 01-5.47-4.73c-.88-.84-1.77-1.68-2.7-2.48a8.76 8.76 0 00-3.11-1.92 9.39 9.39 0 012.88 2.17c.86.86 1.67 1.76 2.49 2.66a39.18 39.18 0 005.33 5.12 6.82 6.82 0 003.63 1.53 3.78 3.78 0 003.44-2.27 6.82 6.82 0 00.34-4 14.85 14.85 0 00-1.16-3.66l-1.14.78a10.22 10.22 0 004.41 2.88 4.28 4.28 0 002.88-.16 4.89 4.89 0 002.12-1.9 6.49 6.49 0 00.39-5.31 15.49 15.49 0 00-2.31-4.57l-.88.88c1.5 1 5.08 2.25 7.68-.1 2.97-3.5-2.8-10.13-3.94-11.26z" fill="#263238"/><path d="M202.4 189.12a8.66 8.66 0 002.58.55 2 2 0 001.82-.87 4.06 4.06 0 00.37-2.27c-.06-.86-.17-1.76-.32-2.69a6.69 6.69 0 011.25 2.55 4 4 0 01-.29 3.05 2.78 2.78 0 01-1.33 1.07 3 3 0 01-1.61.09 4.63 4.63 0 01-2.47-1.48z" fill="#263238"/><path d="M180.3 239.45L218.23 209s9.19 19 9.73 18.92 6.56-25.29 16.54-41 12.38 1.34 10.26 14.3-12.1 84.79-21.07 91.37-17.4-1.66-21-5.15c-5.03-4.87-32.39-47.99-32.39-47.99z" fill="#00e77f"/><path d="M187.6 242.88c1.19-1.22 13.11-10.52 15.74-12.48l7.92-5.88c2.72-2 5.41-4.21 8.29-6a.12.12 0 01.15.19c-2.5 2.3-5.32 4.3-8 6.39s-5.27 4.14-7.91 6.19-14.64 11-16.08 11.79c-.12.06-.19-.08-.11-.2zm40.4-15.01c1 2.24 2 4.54 2.84 6.84s1.68 4.65 2.43 7 1.43 4.73 2 7.14a64.12 64.12 0 011.37 7.29c-.37-1.19-.67-2.38-1-3.55s-.7-2.36-1.07-3.54l-2.2-7-2.2-7-1.17-3.62c-.34-1.19-.71-2.37-1-3.56z" fill="#263238"/><path d="M228.14 306.11c1.64 1.63 102.49-3.71 103-4.36 1.33-1.78-34.74-109.11-58.38-126.09-5.08-3.65-18.74 1.24-22.25 4.76-2.2 2.21-7 16.16-10.12 27.69-6.3 23.1-13.68 96.57-12.25 98z" fill="#fff"/><path d="M252.56 175.89c-4 3-7.06 18.31 2.08 20.38s17.62-12.36 18.87-17-12.3-9.8-20.95-3.38z" fill="#00e77f"/><path d="M255.3 194.17c5.67.73 14.28-8.72 17.31-16 .21-.5-1-5.37-2.26-11.37-.73-3.64-1.45-7.71-1.85-11.48l-23 8.21s3.15 7.65 3.8 14.22a8.13 8.13 0 010 1.56v.26c-.19 3.01.52 13.9 6 14.6z" fill="#ffc4c0"/><path d="M267.41 155.74c-.24 4.78-2.05 22-15.69 23.74a16.11 16.11 0 01-2.44.12.71.71 0 010-.26 10.15 10.15 0 000-1.56c-.66-6.56-3.81-14.21-3.81-14.21z" fill="#263238"/><path d="M268.89 127.14c3.35 8.14 1.23 32.76-4.21 38.73-7.9 8.65-22 10.74-29.61 1-7.4-9.45-4.07-41.5 2.12-47 9.11-8.21 26.74-4.75 31.7 7.27z" fill="#ffc4c0"/><path d="M247.14 144.15c0-.06.13.09.12.16-.19 1.66-.12 3.58 1.33 4.25v.1c-1.83-.41-1.89-2.97-1.45-4.51z" fill="#263238"/><path d="M248.77 142.54c2.68 0 2.46 5.38 0 5.37s-2.25-5.38 0-5.37zm-10.94 1.27c0-.06-.13.08-.13.14 0 1.67-.32 3.57-1.85 4.06v.1c1.86-.18 2.23-2.72 1.98-4.3z" fill="#263238"/><path d="M236.42 142c-2.67-.31-3.1 5-.63 5.34s2.86-5.06.63-5.34zm14.58-1.83a19 19 0 01-2.05-.82 3.57 3.57 0 01-1.93-1.23 1.14 1.14 0 01.24-1.37 2.82 2.82 0 012.85-.17 4.16 4.16 0 012.31 1.89 1.21 1.21 0 01-1.42 1.7zm-16.54-.95c.74-.09 1.42-.3 2.15-.46a3.51 3.51 0 002.11-.9 1.13 1.13 0 000-1.38 2.82 2.82 0 00-2.79-.65 4.16 4.16 0 00-2.59 1.47 1.22 1.22 0 001.12 1.92zm14.81 20.51c-.41.37-.83.89-1.44.91a4.27 4.27 0 01-1.77-.49.06.06 0 00-.07.08 2.2 2.2 0 002.07 1 1.76 1.76 0 001.37-1.41c.03-.11-.1-.15-.16-.09zm-1.54-5.06a5.62 5.62 0 01-3.88 2.36 7 7 0 01-2 0 2.28 2.28 0 01-.39-.06l-.36-.07a.41.41 0 01-.32-.39 1 1 0 010-.17v-.15c0-1.28.23-3.22.23-3.22-.48.21-2.91 1.19-2.85.52.57-5.53 1.19-11.67 2.92-17 .05-.18.33-.13.3 0-.33 5.34-1.6 10.57-2 15.92a9.77 9.77 0 012.7-.69c.18.06-.46 3.74-.42 4.32a.28.28 0 000 .06c2.14.37 3.79-.22 5.93-1.57.12-.1.25.01.14.14z" fill="#263238"/><path d="M242.76 156.72a6.64 6.64 0 002.76 1.95 3 3 0 001.83 0c1.3-.41 1.27-1.62 1-2.64a7.42 7.42 0 00-.67-1.56 8.62 8.62 0 01-4.92 2.25z" fill="#263238"/><path d="M245.52 158.67a3 3 0 001.83 0c1.3-.41 1.27-1.62 1-2.64a3.1 3.1 0 00-2.83 2.64z" fill="#f392b9"/><path d="M269.42 147.56c.6-2.15 6.15-25.33 5.54-27.86-.56-2.3-3.08-1.36-3.11-1.49s-.12-2.23-1.42-3a3.53 3.53 0 00-2.81 0s-.39-2.21-1.78-2.81a2.8 2.8 0 00-2.72.59 3.7 3.7 0 00-2.22-2.64 2.41 2.41 0 00-2.69 1s-.59-2.11-2-2.52-2.7 1.16-2.7 1.16a3.19 3.19 0 00-2.56-2 2.78 2.78 0 00-2.45 1.9s-1-1.86-2.7-1.91-2.22 2-2.22 2-.68-1.84-2.24-1.72-1.92 2.3-1.92 2.3-.87-2-2.71-1.43c-2.81.91-3.16 14.35-3.8 20.19 0 0 .78-2.79 2-2.89s2.08 1.79 4.31 2.29c3.17.7 8.45-3 12.82-2.09s7.39 5.37 8.92 12c1.67 7.69 7.04 14.03 8.46 8.93z" fill="#263238"/><path d="M248.18 152.38a6.88 6.88 0 01-5.53-8 6.85 6.85 0 117.23 8.06 7 7 0 01-1.7-.06zm-4.63-7.8a5.94 5.94 0 106.9-4.79 5.64 5.64 0 00-1.47-.08 5.93 5.93 0 00-5.43 4.87zm-9.83 7.08c-2.81-.13-4.95-3.31-4.78-7.08a8.19 8.19 0 011.67-4.72 4.27 4.27 0 017.3.34 8.16 8.16 0 011.22 4.85c-.16 3.58-2.35 6.42-5 6.61zm-2.4-11.23a7.25 7.25 0 00-1.46 4.19c-.15 3.27 1.6 6 3.9 6.13s4.31-2.47 4.46-5.74a7.37 7.37 0 00-1.07-4.31 3.66 3.66 0 00-2.84-1.81H234a3.82 3.82 0 00-2.68 1.54z" fill="#00e77f"/><path d="M242.84 145.22l.62-.68c-1-.92-3.34-2.2-5.1-.49l.64.65c1.57-1.53 3.75.43 3.84.52zm30.42 3.17l.84-.38c-.18-.39-1.81-3.81-3.83-4.23s-14.22.18-14.75.21v.91c3.53-.17 13-.53 14.51-.23s2.8 2.78 3.23 3.72z" fill="#00e77f"/><path d="M264 146.71s4.9-8.25 8.6-6.56.43 13.36-3.63 15.23a4.25 4.25 0 01-5.86-1.86z" fill="#ffc4c0"/><path d="M271.54 143.47a.06.06 0 010 .11c-2.84 1.41-4.18 4.24-5.05 7.14.79-1.15 1.93-1.84 3.46-.91a.09.09 0 01-.06.16 2.64 2.64 0 00-2.81 1.13 12.48 12.48 0 00-1.2 2.43c-.12.27-.6.17-.53-.14a.19.19 0 000-.07c-.3-3.73 2.21-9.17 6.19-9.85z" fill="#263238"/><path d="M287 182.68c32.63 22.44 56.18 57.62 58.45 65 5.49 18 13.68 49.7 14.94 63.94.47 5.27-40.11 4.29-40.79-1.32-2.11-17.58-9.67-55.82-9.86-56.47-1.35-4.63-12.87-24.66-24.71-46.45s-11.79-34.15 1.97-24.7z" fill="#ffc4c0"/><path d="M322.82 365.84c4.14 1.42 6.83-2.24 6.83-2.24a9.33 9.33 0 005.45 3.26c3.81.56 6.35-5.17 6.35-5.17a11.56 11.56 0 006.3 2.52c3.7.16 7.08-5.25 7.08-5.25a10.23 10.23 0 006.94-1.28c3.51-2.26 5.24-13.45 5.18-19.75s-6.13-24.1-6.94-27.62h-40.43s-7.77 28.31-6.64 35.71c.94 6.27 5.23 18.23 9.88 19.82z" fill="#ffc4c0"/><path d="M329 363.33c-2.59-6.39-3.16-13.19-4.11-19.95a.12.12 0 01.24 0c.86 6.73 3.05 13.21 4.19 19.89a.17.17 0 01-.32.06zm11.92-1.77a18.13 18.13 0 01-.74-4.64q-.23-2.49-.36-5c-.19-3.33-.31-6.66-.32-10 0-.15.22-.19.23 0 .2 3.32.44 6.63.77 9.93.17 1.66.35 3.31.54 5a21.09 21.09 0 01.33 4.69.24.24 0 01-.45.02zm13.9-2.74a12.45 12.45 0 01-.44-4.22c-.06-1.51-.12-3-.19-4.55-.14-3-.29-6.06-.54-9.09a.12.12 0 01.24 0c.26 3.07.57 6.14.82 9.22l.33 4.53a11.68 11.68 0 01-.07 4.13.08.08 0 01-.15-.02z" fill="#263238"/><path d="M317.65 310.79l44.35-3.58s-9.77-47.77-15.07-60.68-31.69-44.76-59.21-63.64C269 170.06 270.16 181 278.81 198s29 55.91 30 59 8.84 53.79 8.84 53.79z" fill="#00e77f"/><path d="M318.43 301.64c1.66-.39 16.71-1.77 20-2l9.83-.68c3.39-.23 6.83-.62 10.23-.58a.12.12 0 110 .23c-3.34.59-6.8.76-10.17 1.08l-10 .94c-3.34.3-18.25 1.34-19.9 1.23-.13-.01-.1-.19.01-.22z" fill="#263238"/></svg>