<svg xmlns="http://www.w3.org/2000/svg" viewBox="0 0 750 500"><path d="M266.63 139.7H140V53.06h126.63zm-125.63-1h124.63V54.06H141z" fill="#ebebeb"/><path d="M149.89 58.64a2.52 2.52 0 11-2.52-2.52 2.52 2.52 0 012.52 2.52z" fill="#a6a6a6"/><path d="M160.18 58.64a2.52 2.52 0 11-2.52-2.52 2.52 2.52 0 012.52 2.52z" fill="#ebebeb"/><path d="M170.48 58.64a2.53 2.53 0 11-2.48-2.52 2.52 2.52 0 012.48 2.52z" fill="#00e77f"/><path fill="#ebebeb" d="M140.49 63.08h125.64v1H140.49zm525.24 118.34l5.89-9.49-2.91-1.8a2.68 2.68 0 01-1.23-2.5 13.25 13.25 0 000-1.67 2.67 2.67 0 011.39-2.41l3-1.61-5.28-9.85-3 1.62a2.66 2.66 0 01-2.77-.18 15.13 15.13 0 00-1.42-.88 2.66 2.66 0 01-1.4-2.41l.11-3.42-11.11-.35-.1 3.43a2.66 2.66 0 01-1.56 2.31l-.73.37-.72.41a2.63 2.63 0 01-2.77 0l-2.93-1.81-5.88 9.49 2.91 1.81a2.65 2.65 0 011.23 2.5 15.26 15.26 0 00-.06 1.66 2.67 2.67 0 01-1.38 2.41l-3 1.61 5.28 9.85 3-1.62a2.66 2.66 0 012.77.18 14.87 14.87 0 001.41.87 2.67 2.67 0 011.41 2.41l-.11 3.43 11.16.34.11-3.42a2.66 2.66 0 011.55-2.31c.25-.11.5-.24.74-.37s.48-.26.72-.41a2.65 2.65 0 012.78 0zm-9.45-7A9.15 9.15 0 11660 162a9.14 9.14 0 01-3.72 12.37zm-544.46 91.7l5.88-9.49-2.9-1.8a2.66 2.66 0 01-1.24-2.5 15.44 15.44 0 00.06-1.67 2.67 2.67 0 011.38-2.41l3-1.61-5.28-9.85-3 1.62a2.66 2.66 0 01-2.77-.18 16 16 0 00-1.42-.88 2.66 2.66 0 01-1.4-2.41l.11-3.42-11.16-.34-.08 3.43a2.66 2.66 0 01-1.55 2.31c-.25.11-.5.24-.74.37s-.48.26-.71.41a2.69 2.69 0 01-2.78 0l-2.92-1.82-5.89 9.49 2.91 1.81a2.64 2.64 0 011.23 2.5 13.15 13.15 0 000 1.66 2.67 2.67 0 01-1.39 2.41l-3 1.62 5.28 9.84 3-1.61a2.64 2.64 0 012.77.17 16 16 0 001.42.88 2.66 2.66 0 011.4 2.41l-.11 3.42 11.17.35.1-3.43a2.65 2.65 0 011.56-2.3c.24-.12.49-.24.74-.38s.48-.26.71-.4a2.67 2.67 0 012.79 0zm-9.45-7.05a9.15 9.15 0 113.74-12.38 9.14 9.14 0 01-3.74 12.38zm523.35-149.71l-3.91-6.77-2.07 1.2a1.87 1.87 0 01-2-.07c-.33-.21-.66-.41-1-.59a1.84 1.84 0 01-1-1.65v-2.39h-7.83v2.39a1.84 1.84 0 01-1 1.65 11.12 11.12 0 00-1 .59 1.87 1.87 0 01-2 .07l-2.08-1.2-3.91 6.77 2.09 1.2a1.89 1.89 0 01.91 1.73v1.15a1.87 1.87 0 01-.91 1.72l-2.09 1.21 3.91 6.77 2.08-1.19a1.85 1.85 0 012 .06 11.53 11.53 0 001 .59 1.85 1.85 0 011 1.65v2.4h7.83v-2.4a1.86 1.86 0 011-1.65 9.19 9.19 0 001-.59 1.85 1.85 0 012-.06l2.08 1.19 3.91-6.77-2.08-1.2a1.84 1.84 0 01-.9-1.72v-1.16a1.87 1.87 0 01.91-1.73zm-7.48 3.51a6.41 6.41 0 11-6.4-6.42 6.39 6.39 0 016.4 6.42zM82.63 75.3l13.12-.3 6.66-.11c2.23 0 4.47 0 6.7-.06h.44v.45l.06 11.19V87h-.5l-13.24-.06c-4.42 0-8.83-.12-13.24-.17h-.28v-.27c0-1.9.08-3.79.13-5.65zm0 0l.14 5.7c0 1.87.11 3.71.13 5.54l-.27-.27c4.41 0 8.82-.16 13.24-.17l13.24-.1-.5.5V75.31l.45.45c-2.18 0-4.36 0-6.55-.06L96 75.58zM97.4 61.19l13.12-.28 6.67-.11c2.22 0 4.46 0 6.69-.06h.44v12.14h-.5l-13.24-.06c-4.41 0-8.83-.12-13.24-.17h-.28v-.27c0-1.9.08-3.79.13-5.65zm0 0l.14 5.65c0 1.87.11 3.71.13 5.54l-.27-.27c4.41 0 8.83-.16 13.24-.17l13.24-.06-.5.5.05-11.19.45.45c-2.18 0-4.36 0-6.55-.06l-6.57-.11zm-29.54 0L81 60.91l6.66-.11c2.23 0 4.47 0 6.7-.06h.44v.45l.06 11.19v.5h-.5l-13.26-.06c-4.42 0-8.83-.12-13.24-.17h-.28v-.27c0-1.9.09-3.79.13-5.65zm0 0l.14 5.65c0 1.87.11 3.71.13 5.54l-.27-.27c4.41 0 8.82-.16 13.24-.17l13.24-.06-.5.5V61.19l.45.45c-2.19 0-4.36 0-6.55-.06l-6.58-.11zm392.35 147.27l13.12-.28 6.66-.11c2.23 0 4.47 0 6.7-.06h.44v.45l.06 11.19v.5h-.5l-13.24-.07c-4.42 0-8.83-.11-13.24-.16h-.28v-.27c0-1.9.09-3.79.14-5.66zm0 0l.14 5.65c0 1.86.11 3.71.13 5.54l-.27-.28c4.41-.05 8.82-.15 13.24-.16l13.24-.06-.5.5.05-11.19.45.44c-2.18 0-4.36 0-6.55-.05l-6.58-.11zM475 194.35l13.12-.28 6.67-.11c2.22-.05 4.46 0 6.69-.06h.44v12.14h-.5l-13.2-.04c-4.41 0-8.83-.11-13.24-.16h-.28v-.27c0-1.9.08-3.79.13-5.66zm0 0l.14 5.65c.05 1.86.11 3.71.13 5.54l-.27-.28c4.41 0 8.83-.15 13.24-.16l13.24-.06-.5.5.05-11.19.45.44h-6.55l-6.57-.11zm-29.56 0l13.12-.28 6.66-.11c2.23-.05 4.46 0 6.7-.06h.44v.45l.06 11.19v.5h-.5l-13.24-.04c-4.42 0-8.83-.11-13.24-.16h-.28v-.27c0-1.9.09-3.79.13-5.66zm0 0l.14 5.65c0 1.86.11 3.71.13 5.54l-.27-.28c4.41 0 8.82-.15 13.24-.16l13.24-.06-.5.5.05-11.19.45.44h-6.55l-6.58-.11zM643.62 71.37l13.13-.28 6.66-.11h7.14v.45l.05 11.19v.5h-.5L656.86 83c-4.41 0-8.83-.12-13.24-.17h-.27v-.27c0-1.9.08-3.79.13-5.65zm0 0l.14 5.65c0 1.87.12 3.71.13 5.54l-.27-.27c4.41-.05 8.83-.16 13.24-.17l13.24-.06-.5.5.06-11.19.44.45c-2.18 0-4.36 0-6.54-.06l-6.56-.11zM237.14 208.46l13.12-.27 6.66-.12h7.14v.44l.06 11.19v.51h-.5l-13.24-.06c-4.42 0-8.83-.11-13.24-.16h-.28v-.27c0-1.89.08-3.78.13-5.65zm0 0l.14 5.66c.05 1.86.11 3.7.13 5.53l-.27-.27c4.41 0 8.82-.16 13.24-.16l13.24-.06-.5.49.05-11.19.45.45h-6.55l-6.58-.12zM84.16 317.14l13.12-.27 6.67-.12c2.22 0 4.46 0 6.69-.05h.44v12.14h-.5l-13.24-.06c-4.41 0-8.83-.11-13.24-.16h-.28v-.27c0-1.89.08-3.78.13-5.65zm0 0l.14 5.66c0 1.86.11 3.7.13 5.53l-.27-.27c4.41-.05 8.83-.16 13.24-.16l13.24-.07-.5.5v-11.19l.45.45c-2.18 0-4.36 0-6.55-.06l-6.57-.11zM69.39 303l13.12-.27 6.66-.12c2.23 0 4.47 0 6.7-.05h.44v.44l.06 11.19v.51h-.5l-13.24-.06c-4.42 0-8.83-.11-13.24-.16h-.28v-.27c0-1.89.09-3.78.14-5.65zm0 0l.14 5.66c0 1.86.11 3.7.13 5.53l-.27-.27c4.41-.05 8.82-.16 13.24-.16l13.24-.07-.5.5V303l.45.45c-2.18 0-4.36 0-6.55-.05l-6.58-.12zm586.27 14.13l13.13-.28 6.66-.11c2.22-.05 4.46 0 6.69-.05h.45v12.14h-.51l-13.24-.06c-4.41 0-8.82-.11-13.24-.17h-.27v-.27c0-1.9.09-3.78.13-5.65zm0 0l.15 5.66c0 1.86.11 3.7.13 5.53l-.28-.27c4.42-.05 8.83-.16 13.24-.16l13.24-.07-.5.5.06-11.19.44.45c-2.18 0-4.35 0-6.54-.06l-6.58-.11z"/><path fill="#dbdbdb" d="M557.22 245.44h104.03v143.97H557.22z"/><path fill="#ebebeb" d="M552.18 240.1h114.11v5.34H552.18z"/><path fill="#dbdbdb" d="M666.29 240.1h35.89v5.34h-35.89z"/><path fill="#ebebeb" d="M661.25 245.44h35.25v143.97h-35.25z"/><path d="M650.05 312.07h-81.62v-46.13h81.62zm-81.37-.25h81.12v-45.63h-81.12z" fill="#a6a6a6"/><path fill="#a6a6a6" d="M597.85 279.42h15.89v9.13h-15.89z"/><path d="M618.56 288h-16.14v-8h16.14zm-15.89-.25h15.64v-7.51h-15.64zM650.05 370h-81.62v-46.1h81.62zm-81.37-.25h81.12v-45.6h-81.12z" fill="#a6a6a6"/><path fill="#a6a6a6" d="M597.85 337.38h15.89v9.13h-15.89z"/><path d="M618.56 346h-16.14v-8h16.14zm-15.89-.25h15.64v-7.51h-15.64z" fill="#a6a6a6"/><path d="M111.73 325.86s17.31-3.92 26.8-12.66 14.78-24.4 14.78-24.4a148.41 148.41 0 00-19.41 5.09 32.73 32.73 0 00-5.9 8.31 40.54 40.54 0 010-5.94 26.9 26.9 0 00-6.16 3.74c-7.84 6.89-10.11 25.86-10.11 25.86z" fill="#00e77f"/><path d="M142.51 296.41c2.35-1.64 4.76-3.21 7.11-4.86a.14.14 0 00-.15-.23c-4.46 2.67-8.85 5.51-13.11 8.49-1.48 1-2.94 2.13-4.38 3.23.1-.17.2-.34.31-.51.51-.87 1.06-1.73 1.61-2.58a36.59 36.59 0 013.67-4.9c.05-.06 0-.14-.08-.08-1.35 1.55-2.69 3.09-3.92 4.74-.59.78-1.13 1.59-1.65 2.42-.27.43-.53.87-.78 1.31-.08.15-.17.29-.26.45-2.23 1.75-4.41 3.59-6.49 5.52a76.77 76.77 0 00-3.72 3.72c.67-2.1 1.25-4.21 2-6.28 0-.07-.09-.1-.12 0-.75 2.17-1.57 4.34-2.16 6.56a69.575 69.575 0 00-3.78 4.46l.06-.28c.19-.81.4-1.63.62-2.44.42-1.56.88-3.12 1.41-4.65a26.68 26.68 0 014.65-8.78c0-.06 0-.14-.09-.09a33.91 33.91 0 00-6.63 13.85c-.18.73-.36 1.47-.53 2.21-.09.4-.19.8-.26 1.2-.52.71-1 1.42-1.52 2.15a75.31 75.31 0 00-7.32 14.33 166.53 166.53 0 00-5.54 17.3c0 .11.14.15.17 0 3.39-10.13 6.85-20.4 12.64-29.45 1.22-1.91 2.55-3.75 3.95-5.53a32.69 32.69 0 008.42-1.68 37.25 37.25 0 008.43-4.07 49.11 49.11 0 004.33-3.27.06.06 0 10-.08-.09 34.45 34.45 0 01-7.93 4.8 42.69 42.69 0 01-8.73 2.93c-1.28.28-2.57.49-3.87.66a71.82 71.82 0 015.1-5.65c.59-.59 1.19-1.14 1.79-1.71a40.55 40.55 0 016.4-3.66c2.84-1.37 5.63-2.83 8.43-4.25 1.59-.81 3.16-1.63 4.76-2.41.07 0 0-.14-.06-.1-2.85 1.37-5.74 2.66-8.61 4-2.7 1.24-5.44 2.48-8 3.94l-.33.19c2.35-2 4.77-4 7.26-5.86 2.28-1.72 4.61-3.46 6.98-5.05z" fill="#263238"/><path d="M141.52 305.33c-1.41.62-2.84 1.16-4.23 1.81s-2.79 1.46-4.15 2.26a.05.05 0 10.05.09c1.38-.66 2.78-1.27 4.15-2s2.78-1.46 4.22-2.09c.06.01.03-.1-.04-.07z" fill="#263238"/><path d="M55.51 238.64A24.69 24.69 0 0160.68 253c.06 1.55-.19 3.72-.37 6.26a41.11 41.11 0 0111.3 9.65 20.5 20.5 0 00-11.42-2.73 35.22 35.22 0 00.67 5.17 19.49 19.49 0 017.34 1.46 16.38 16.38 0 00-6.62 1.31C64.66 284 73.83 294 99.16 298.31a53.14 53.14 0 00-4.49-35.63c-7.59-14.93-39.16-24.04-39.16-24.04z" fill="#00e77f"/><path d="M107.92 340.31q-.66-6.29-1.64-12.54a246 246 0 00-5.11-24.77 99.09 99.09 0 00-3.65-11.29 17.24 17.24 0 00.09-2v-2.43c0-1.63-.09-3.25-.23-4.86a58.8 58.8 0 00-1.55-9.5c-.47-1.8-1-3.58-1.53-5.36a.06.06 0 00-.12 0 69.38 69.38 0 011.88 9.44 86.39 86.39 0 01.85 9.5v3.73a81.37 81.37 0 00-4.26-8.83 108.48 108.48 0 00-8.67-13 5.17 5.17 0 00-.21-1.41c-.12-.57-.24-1.13-.37-1.7-.26-1.16-.55-2.31-.86-3.45-.63-2.29-1.46-4.51-2.18-6.78 0-.07-.13 0-.11 0 .67 2.24 1.11 4.56 1.62 6.85q.39 1.69.75 3.39c.13.56.25 1.13.37 1.69a.59.59 0 000 .13q-1.53-1.93-3.14-3.82c-4.83-5.67-10.13-10.9-15.47-16.09-.66-.64-1.33-1.26-2-1.89-.06-.06-.14 0-.09.08 5.1 5.32 10.13 10.7 14.88 16.34 1.13 1.33 2.24 2.69 3.34 4.06l-1.73-1.14c-1.47-1-3-1.91-4.5-2.77s-3.09-1.7-4.67-2.48-3.36-1.46-4.92-2.37c-.07 0-.13.07-.06.1a35.91 35.91 0 014.62 2.56c1.54.91 3.08 1.84 4.59 2.8s3 1.87 4.47 2.83c1.23.8 2.44 1.68 3.72 2.41a121.64 121.64 0 018.11 11.81 85.1 85.1 0 014.19 8l-.9-.4-2.32-1c-1.49-.66-3-1.3-4.48-1.95-2.84-1.24-5.73-2.37-8.51-3.73a39.55 39.55 0 01-4.5-2.47c-.06-.05-.12.06-.05.1 5.19 3.58 11 6.1 16.75 8.64l2.5 1.11c.68.3 1.37.64 2.07.9a87.51 87.51 0 014.28 11.74 235.64 235.64 0 015.51 24.5c1.46 8.27 2.44 16.59 3.2 25 .09 1 .19 2.09.31 3.13a.33.33 0 00.66 0c-.05-4.34-.49-8.59-.93-12.81z" fill="#263238"/><path d="M92.52 270.38c-.47-2.58-1.16-5.09-1.85-7.61a.06.06 0 10-.11 0c.64 2.47 1.1 5 1.56 7.51s.9 5.13 1.26 7.7h.07a70 70 0 00-.93-7.6zm-10.92 6.98a43.73 43.73 0 00-5.51-3.1c-.92-.48-1.85-.93-2.79-1.38s-2-.86-2.92-1.34c-.07 0-.12.07-.06.1.93.47 1.81 1 2.72 1.53s1.87 1 2.81 1.53a62.22 62.22 0 005.62 2.91.14.14 0 00.13-.25z" fill="#263238"/><path d="M112.05 295.88s16-3.83 23.37-14.57c7-10.26 9.29-27.75 9.47-29.29-.29 1.41-3.59 16.7-14.5 23.82-8.39 5.45-16.39 9.94-18.34 20.04z" fill="#263238" opacity=".1"/><path d="M126.83 268.21a20.48 20.48 0 00-5.91 9.72s0 .05 0 0a23.86 23.86 0 015.94-9.65c.14-.04.02-.13-.03-.07z" fill="#263238"/><path d="M112.05 295.88s16-3.83 23.37-14.57c7-10.26 9.29-27.75 9.47-29.29v-.11s-7.68 10.92-15.76 13.71-19.4 12.38-17.08 30.26z" fill="#00e77f"/><path d="M142.07 257.94a65.61 65.61 0 01-4.95 8.46 34.15 34.15 0 01-6.59 6.78c-2.18 1.73-4.48 3.29-6.68 5a.56.56 0 01.05-.08c.42-.62.86-1.21 1.31-1.79.92-1.18 1.92-2.28 2.93-3.38 2-2.15 4-4.27 5.81-6.61a24.41 24.41 0 002.56-4.14c0-.06-.07-.1-.11 0-2.59 5.41-7.78 8.87-11.48 13.44a21.06 21.06 0 00-1.48 2 7.84 7.84 0 00-.93 1.62 34 34 0 00-5.46 5.53 21.71 21.71 0 01.64-3.11 15.74 15.74 0 011.7-4.06c0-.06-.06-.13-.1-.06a19.17 19.17 0 00-1.87 4 14.08 14.08 0 00-.58 3.46 30.45 30.45 0 00-2.16 3.36c.07-.34.13-.68.2-1 .32-1.59.67-3.18 1.08-4.76a28.74 28.74 0 013.85-9 .05.05 0 10-.09-.06 34.09 34.09 0 00-4.27 8.82 51.95 51.95 0 00-1.28 4.79c-.18.78-.34 1.57-.49 2.37-.07.41-.16.83-.23 1.25a56.9 56.9 0 00-3.69 10.85 158 158 0 00-3.42 20.25 168 168 0 00-1.1 21.51c0 .9.06 1.8.11 2.7 0 .23.36.26.38 0 .15-3.56.24-7.11.45-10.66s.52-7.1.91-10.64a188 188 0 013.33-20.71c1.3-5.85 3-11.75 6.18-16.88a32 32 0 015.78-6.87c2.25-2 4.7-3.78 7.07-5.65a38.67 38.67 0 006.49-6.23 51.6 51.6 0 005.09-8.27c.38-.73.76-1.45 1.15-2.17.02-.07-.08-.13-.11-.06z" fill="#263238"/><path d="M139.3 260.28a53.41 53.41 0 01-3.56 6.24c0 .05 0 .1.07.05a43.15 43.15 0 003.61-6.25c.03-.07-.08-.1-.12-.04z" fill="#263238"/><path d="M53.28 288.8s-.28 22.76 13.35 29.33 20.91 1.09 30.15 3.29c-.36-.54-7-10-17.46-12.64-10.81-2.7-22.77-10.5-26.04-19.98z" fill="#00e77f"/><path d="M53.28 288.8s-.28 22.76 13.35 29.33 20.91 1.09 30.15 3.29a51.89 51.89 0 00-15.48-4.56c-8.59-1.04-24.98-6.64-28.02-28.06z" opacity=".1"/><path d="M97.68 321.83a23.36 23.36 0 00-5.41-3.67c-.3-.14-.6-.25-.89-.38s-.3-.35-.46-.52a18.3 18.3 0 00-1.28-1.21 18.88 18.88 0 00-2.74-2c-2.25-1.32-4.72-2.25-7-3.48a.06.06 0 00-.06.1c1.14.59 2.25 1.24 3.36 1.89s2.18 1.23 3.23 1.91a23 23 0 012.69 2c.24.21.47.43.7.66a38.46 38.46 0 00-4.6-1.22c-2.49-.5-5-.86-7.5-1.39a35 35 0 01-3.61-1c-1.13-.91-2.25-1.81-3.32-2.8a26.57 26.57 0 01-3.52-3.9c0-.06-.15 0-.1.06a41.75 41.75 0 005.58 6.16c-.59-.23-1.17-.46-1.74-.72a28.07 28.07 0 01-11.6-9.65c0-.06-.14 0-.1.06a31.85 31.85 0 009.38 9 28.21 28.21 0 005.93 2.8 54.65 54.65 0 007.38 1.82 52.64 52.64 0 017.22 1.72 22 22 0 016 3.18 28.24 28.24 0 018.15 10.11 50.57 50.57 0 014.49 16.64c0 .25.41.25.39 0-.64-9.57-3.2-19.53-10.57-26.17z" fill="#263238"/><path d="M81.89 314.41a7.86 7.86 0 00-2.8-2.54 10.19 10.19 0 01-3.33-2.75c0-.06-.15 0-.1.06a11.18 11.18 0 002.94 2.63 10.39 10.39 0 013.2 2.65c.04.05.12 0 .09-.05z" fill="#263238"/><path fill="#37474f" d="M89.11 338.63l.61 12.51 1.9 38.24h28.55l1.9-38.24.62-12.51H89.11z"/><path fill="#263238" d="M89.11 338.63l.61 12.51h32.35l.62-12.51H89.11z"/><path fill="#37474f" d="M124.69 345.34H87.11V333.4h37.58z"/><path fill="#263238" d="M50.72 389.4l81.07-.24 81.07-.09 162.14-.16 162.14.16 81.07.09 81.07.24-81.07.25-81.07.09-162.14.16-162.14-.16-81.07-.09-81.07-.25z"/><path fill="#37474f" d="M161.95 72.07h426.11v289.74H161.95z"/><path fill="#ebebeb" d="M161.95 319.08h426.11v42.74H161.95z"/><path fill="#dbdbdb" d="M291.97 414.05h166.06v13.88H291.97z"/><path fill="#ebebeb" d="M438.26 414.06H311.74l3.22-24.08.16-1.14.29-2.26.15-1.14.31-2.26.04-.35.11-.78.3-2.26.15-1.14 2.25-16.82h112.56l2.12 15.87.1.76.35 2.63.1.77.14.97.22 1.66.1.76.35 2.64.1.76 3.4 25.41z"/><path d="M381.93 337.57a7.06 7.06 0 11-7.06-7.06 7.06 7.06 0 017.06 7.06z" fill="#37474f"/><path fill="#dbdbdb" d="M434.09 382.83l-117.62-4.18 2.25-16.82h112.56l2.81 21z"/><path fill="#fff" d="M181.61 90.91h386.78v208.06H181.61z"/><path fill="#fff" d="M181.61 90.91h386.78v208.06H181.61z"/><path fill="#00e77f" d="M181.61 100.33h379.92v26.91H181.61z"/><path fill="#fff" d="M194.38 109.32h9.18v1.48h-9.18zm0 6.62h9.18v1.48h-9.18zm0-3.27h9.18v1.48h-9.18zm98.93-3.27h208.31v7.92H293.31z"/><path d="M501.7 117.41H293.23v-8.09H501.7z" fill="#fff"/><path fill="#455a64" d="M493.61 109.32h8.09v8.09h-8.09z"/><path d="M500.17 115.59l-.74.55-1.35-1.79-.5-.65a1.64 1.64 0 00.29-.16 1.33 1.33 0 00.37-.49l.53.69z" fill="#fff"/><path d="M498.72 111.37a2 2 0 10-.64 3 1.59 1.59 0 00.27-.18 1.71 1.71 0 00.42-.43 2 2 0 00-.05-2.39zm-.85 2.17a1.64 1.64 0 01-.29.16 1.2 1.2 0 11.66-.65 1.33 1.33 0 01-.37.49z" fill="#fff"/><path fill="#c7c7c7" d="M294.97 110.96h.43v4.81h-.43z"/><path d="M547.61 117.64a4.63 4.63 0 01-1.29.54 4.51 4.51 0 01-5.44-3.3 4.5 4.5 0 116.73 2.76z" fill="#455a64"/><path d="M546.62 113.29a1.37 1.37 0 11-1.37-1.37 1.37 1.37 0 011.37 1.37z" fill="#fff"/><path d="M547.61 117.07v.57a4.63 4.63 0 01-1.29.54 4.45 4.45 0 01-3.44-.55v-.56a2.37 2.37 0 114.73 0z" fill="#fff"/><path d="M532 118.31h-3.13v-1.11a.16.16 0 00-.09-.15 2.33 2.33 0 01-.34-.2.19.19 0 00-.18 0l-1 .56-1.57-2.71 1-.56a.16.16 0 00.08-.15 1.34 1.34 0 010-.2 1.21 1.21 0 010-.19.18.18 0 00-.08-.16l-1-.56 1.57-2.71 1 .56a.17.17 0 00.18 0 3.79 3.79 0 01.34-.2.16.16 0 00.09-.15v-1.1H532v1.1a.16.16 0 00.1.15l.34.2a.17.17 0 00.18 0l1-.56 1.56 2.71-1 .56a.15.15 0 00-.08.16v.4a.15.15 0 00.08.16l1 .56-1.56 2.71-1-.55a.17.17 0 00-.18 0 3 3 0 01-.34.2.18.18 0 00-.1.15zm-2.35-.78h1.57v-.33a.93.93 0 01.52-.84l.27-.16a.93.93 0 011 0l.29.17.78-1.36-.28-.17a.94.94 0 01-.47-.88v-.3a1 1 0 01.47-.88l.28-.16-.78-1.36-.28.16a1 1 0 01-1 0 1.73 1.73 0 00-.27-.15 1 1 0 01-.52-.85V110h-1.57v.32a1 1 0 01-.52.85c-.09 0-.18.1-.27.15a.93.93 0 01-1 0l-.28-.16-.79 1.36.29.16a1 1 0 01.46.88v.31a1 1 0 01-.46.87l-.29.17.79 1.36.28-.17a.93.93 0 011 0l.27.16a.93.93 0 01.52.84zm.79-1.44a2.31 2.31 0 112.31-2.31 2.31 2.31 0 01-2.29 2.31zm0-3.84a1.54 1.54 0 101.53 1.53 1.54 1.54 0 00-1.51-1.53zm-319.09.42h63.11v3.01h-63.11zm-29.74-21.76h386.78v9.42H181.61z" fill="#455a64"/><path d="M189.09 95.62a2.34 2.34 0 11-2.33-2.33 2.33 2.33 0 012.33 2.33z" fill="#c7c7c7"/><path d="M198.63 95.62a2.34 2.34 0 11-2.34-2.33 2.34 2.34 0 012.34 2.33z" fill="#fff"/><path d="M208.16 95.62a2.34 2.34 0 11-2.33-2.33 2.33 2.33 0 012.33 2.33z" fill="#00e77f"/><path fill="#dbdbdb" d="M561.53 100.33h6.86v198.65h-6.86z"/><path d="M565 181.9a1.78 1.78 0 01-1.78-1.78v-76.64a1.78 1.78 0 011.78-1.77 1.77 1.77 0 011.77 1.77v76.64a1.78 1.78 0 01-1.77 1.78z" fill="#a6a6a6"/><path fill="#00e77f" d="M408.95 274.16H346.7V226.4h62.25z"/><path d="M352.89 236.84a5.65 5.65 0 104.44-4.44 5.66 5.66 0 00-4.44 4.44z" fill="#fff" opacity=".6"/><path fill="#00e77f" d="M367.23 263.87h41.71l-20.85-25.71-20.86 25.71z"/><path opacity=".2" d="M367.23 263.87h41.71l-20.85-25.71-20.86 25.71z"/><path fill="#00e77f" d="M346.69 263.89h37l-18.5-16.74-18.5 16.74z"/><path opacity=".1" d="M346.69 263.89h37l-18.5-16.74-18.5 16.74z"/><path fill="#00e77f" d="M346.69 263.87h62.25v10.29h-62.25z"/><path opacity=".1" d="M346.69 263.87h62.25v10.29h-62.25z"/><path fill="#a6a6a6" d="M199.19 226.39h46.76v3.93h-46.76z"/><path fill="#ebebeb" d="M199.19 235.52h135.32v3.93H199.19zm0 8.66h135.32v3.93H199.19zm0 8.65h135.32v3.93H199.19zm0 8.66h135.32v3.93H199.19zm0 8.65h135.32v3.93H199.19z"/><path fill="#a6a6a6" d="M312.88 148.17h96.07v10.52h-96.07z"/><path fill="#ebebeb" d="M312.88 165.95h96.07v3.93h-96.07zm0 8.65h96.07v3.93h-96.07zm0 8.66h96.07v3.93h-96.07zm0 8.65h96.07v3.93h-96.07zm0 11.52h96.07v3.93h-96.07zm0 8.65h96.07v3.93h-96.07z"/><path d="M301.11 216h-2v-.75h2zm-4 0h-2v-.75h2zm-4 0h-2v-.75h2zm-4 0h-2v-.75h2zm-4 0h-2v-.75h2zm-4 0h-2v-.75h2zm-4 0h-2v-.75h2zm-4 0h-2v-.75h2zm-4 0h-2v-.75h2zm-4 0h-2v-.75h2zm-4 0h-2v-.75h2zm-4 0h-2v-.75h2zm-4 0h-2v-.75h2zm-4 0h-2v-.75h2zm-4 0h-2v-.75h2zm-4 0h-2v-.75h2zm-4 0h-2v-.75h2zm-4 0h-2v-.75h2zm-4 0h-2v-.75h2zm-4 0h-2v-.75h2zm-4 0h-2v-.75h2zm-4 0h-2v-.75h2zm-4 0h-2v-.75h2zm-4 0h-2v-.75h2zm-4 0h-2v-.75h2zm-4 0h-2.3v-.37h.38v-.34h1.92zm100.38-1.19h-.75v-2h.75zm-101.93-1.26h-.75v-2h.75zm101.93-2.74h-.75v-2h.75zm-101.93-1.26h-.75v-2h.75zm101.93-2.74h-.75v-2h.75zm-101.93-1.26h-.75v-2h.75zm101.93-2.74h-.75v-2h.75zm-101.93-1.26h-.75v-2h.75zm101.93-2.74h-.75v-2h.75zm-101.93-1.26h-.75v-2h.75zm101.93-2.74h-.75v-2h.75zm-101.93-1.26h-.75v-2h.75zm101.93-2.74h-.75v-2h.75zm-101.93-1.26h-.75v-2h.75zm101.93-2.74h-.75v-2h.75zm-101.93-1.26h-.75v-2h.75zm101.93-2.74h-.75v-2h.75zm-101.93-1.26h-.75v-2h.75zm101.93-2.74h-.75v-2h.75zm-101.93-1.26h-.75v-2h.75zm101.93-2.74h-.75v-2h.75zm-101.93-1.26h-.75v-2h.75zm101.93-2.74h-.75v-2h.75zm-101.93-1.26h-.75v-2h.75zm101.93-2.74h-.75v-2h.75zm-101.93-1.26h-.75v-2h.75zm101.93-2.74h-.75v-2h.75zm-101.93-1.26h-.75v-2h.75zm101.93-2.74h-.75v-2h.75zm-101.93-1.26h-.75v-2h.75zm101.93-2.74h-.75v-2h.75zm-101.93-1.26h-.75v-2h.75zm101.93-2.74h-.75v-2h.75zm-101.93-1.26h-.75v-1.78h1v.75h-.22zm100.22-1h-2v-.75h2zm-4 0h-2v-.75h2zm-4 0h-2v-.75h2zm-4 0h-2v-.75h2zm-4 0h-2v-.75h2zm-4 0h-2v-.75h2zm-4 0h-2v-.75h2zm-4 0h-2v-.75h2zm-4 0h-2v-.75h2zm-4 0h-2v-.75h2zm-4 0h-2v-.75h2zm-4 0h-2v-.75h2zm-4 0h-2v-.75h2zm-4 0h-2v-.75h2zm-4 0h-2v-.75h2zm-4 0h-2v-.75h2zm-4 0h-2v-.75h2zm-4 0h-2v-.75h2zm-4 0h-2v-.75h2zm-4 0h-2v-.75h2zm-4 0h-2v-.75h2zm-4 0h-2v-.75h2zm-4 0h-2v-.75h2zm-4 0h-2v-.75h2zm-4 0h-2v-.75h2z" fill="#dbdbdb"/><circle cx="250.15" cy="181.91" r="9.2" fill="#00e77f"/><path fill="#fff" d="M249.28 176.44h1.75v10.94h-1.75z"/><path fill="#fff" d="M255.61 181.04v1.75h-10.94v-1.75z"/><path d="M547.39 274.53h-2v-.75h2zm-4 0h-2v-.75h2zm-4 0h-2v-.75h2zm-4 0h-2v-.75h2zm-4 0h-2v-.75h2zm-4 0h-2v-.75h2zm-4 0h-2v-.75h2zm-4 0h-2v-.75h2zm-4 0h-2v-.75h2zm-4 0h-2v-.75h2zm-4 0h-2v-.75h2zm-4 0h-2v-.75h2zm-4 0h-2v-.75h2zm-4 0h-2v-.75h2zm-4 0h-2v-.75h2zm-4 0h-2v-.75h2zm-4 0h-2v-.75h2zm-4 0h-2v-.75h2zm-4 0h-2v-.75h2zm-4 0h-2v-.75h2zm-4 0h-2v-.75h2zm-4 0h-2v-.75h2zm-4 0h-2v-.75h2zm-4 0h-2v-.75h2zm-4 0h-2v-.75h2zm-4 0h-2v-.75h2zm-4 0h-2v-.75h2zm-4 0h-2v-.75h2zm-4 0h-2v-.75h2zm-4 0h-2v-.75h2zm-4 0h-2v-.75h2zm-4 0h-2.28v-.48h.38v-.27h1.9zm124.37-1.41H547v-2h.75zm-125.9-1.07h-.75v-2h.75zm125.9-2.93H547v-2h.75zm-125.9-1.07h-.75v-2h.75zm125.9-2.93H547v-2h.75zm-125.9-1.07h-.75v-2h.75zm125.9-2.93H547v-2h.75zm-125.9-1.07h-.75v-2h.75zm125.9-2.93H547v-2h.75zm-125.9-1.07h-.75v-2h.75zm125.9-2.93H547v-2h.75zm-125.9-1.07h-.75v-2h.75zm125.9-2.93H547v-2h.75zm-125.9-1.07h-.75v-2h.75zm125.9-2.93H547v-2h.75zm-125.9-1.07h-.75v-2h.75zm125.9-2.93H547v-2h.75zm-125.9-1.07h-.75v-2h.75zm125.9-2.93H547v-2h.75zm-125.9-1.07h-.75v-2h.75zm125.9-2.93H547v-2h.75zm-125.9-1.07h-.75v-2h.75zm125.9-2.93H547v-2h.75zm-125.9-1.07h-.75v-2h.75zm125.9-2.93H547v-2h.75zm-125.9-1.07h-.75v-2h.75zm125.9-2.93H547v-2h.75zm-125.9-1.07h-.75v-2h.75zm125.9-2.93H547v-.21h-1v-.75h1.79zm-3.79-.21h-2v-.75h2zm-4 0h-2v-.75h2zm-4 0h-2v-.75h2zm-4 0h-2v-.75h2zm-4 0h-2v-.75h2zm-4 0h-2v-.75h2zm-4 0h-2v-.75h2zm-4 0h-2v-.75h2zm-4 0h-2v-.75h2zm-4 0h-2v-.75h2zm-4 0h-2v-.75h2zm-4 0h-2v-.75h2zm-4 0h-2v-.75h2zm-4 0h-2v-.75h2zm-4 0h-2v-.75h2zm-4 0h-2v-.75h2zm-4 0h-2v-.75h2zm-4 0h-2v-.75h2zm-4 0h-2v-.75h2zm-4 0h-2v-.75h2zm-4 0h-2v-.75h2zm-4 0h-2v-.75h2zm-4 0h-2v-.75h2zm-4 0h-2v-.75h2zm-4 0h-2v-.75h2zm-4 0h-2v-.75h2zm-4 0h-2v-.75h2zm-4 0h-2v-.75h2zm-4 0h-2v-.75h2zm-4 0h-2v-.75h2zm-4 0h-2v-.75h2z" fill="#dbdbdb"/><circle cx="484.44" cy="245.35" r="9.2" fill="#00e77f"/><path fill="#fff" d="M483.57 239.88h1.75v10.94h-1.75z"/><path fill="#fff" d="M489.9 244.48v1.75h-10.94v-1.75z"/><path fill="#dbdbdb" d="M456.46 183.24h-1.38v-.75h.63v-.63h.75v1.38zm-3.3 0h-1.91v-.75h1.91zm-3.83 0h-1.92v-.75h1.92zm-3.83 0h-1.92v-.75h1.92zm-3.84 0h-1.92v-.75h1.92zm-3.83 0h-1.92v-.75h1.92zm-3.84 0h-1.92v-.75H434zm-3.83 0h-1.92v-.75h1.92zm-3.84 0h-1.91v-.75h1.91zm-3.83 0h-1.38v-1.38h.75v.63h.63v.75zm-.63-3.24h-.75v-2h.75zm0-3.84h-.75v-1.92h.75zm0-3.83h-.75v-1.92h.75zm0-3.84h-.75v-1.92h.75zm0-3.83h-.75v-1.92h.75zm0-3.84h-.75v-1.91h.75zm0-3.83h-.75V155h.75zm0-3.84h-.75v-1.91h.75zm0-3.88h-.75v-1.37h1.38v.75h-.63v.62zm31.31-.63h-1.92v-.75h1.92zm-3.84 0h-1.92v-.75h1.92zm-3.83 0h-1.92v-.75h1.92zm-3.84 0h-1.92v-.75h1.92zm-3.83 0h-1.92v-.75h1.92zm-3.84 0h-1.91v-.75H434zm-3.83 0h-1.92v-.75h1.92zm-3.84 0h-1.91v-.75h1.91zm30.14.63h-.75v-.62h-.63v-.75h1.38v1.37zm0 30.73h-.75v-2h.75zm0-3.84h-.75v-1.92h.75zm0-3.83h-.75v-1.92h.75zm0-3.84h-.75v-1.92h.75zm0-3.83h-.75v-1.92h.75zm0-3.84h-.75v-1.91h.75zm0-3.83h-.75V155h.75zm0-3.84h-.75v-1.91h.75z"/><path d="M421.52 148.27c2.91 2.8 5.81 5.64 8.7 8.49l8.65 8.6 8.62 8.7 4.29 4.38 4.27 4.42-4.36-4.22-4.34-4.27-8.65-8.6-8.62-8.7c-2.86-2.91-5.72-5.83-8.56-8.8z" fill="#dbdbdb"/><path d="M456.05 148.27c-2.84 3-5.7 5.89-8.56 8.8l-8.62 8.7-8.65 8.6-4.34 4.27-4.36 4.22 4.27-4.42 4.29-4.38 8.62-8.7 8.65-8.6c2.89-2.85 5.79-5.69 8.7-8.49z" fill="#dbdbdb"/><path d="M491.34 165.65a6.91 6.91 0 11-6.9-6.9 6.9 6.9 0 016.9 6.9z" fill="#00e77f"/><path fill="#fff" d="M483.78 161.55h1.31v8.21h-1.31z"/><path fill="#fff" d="M488.54 165v1.31h-8.21V165z"/><path fill="#00e77f" d="M502.11 183.32h-1.38v-.75h.63v-.62h.75v1.37zm-3.29 0h-1.92v-.75h1.92zm-3.84 0h-1.91v-.75H495zm-3.83 0h-1.92v-.75h1.92zm-3.84 0h-1.91v-.75h1.91zm-3.83 0h-1.92v-.75h1.92zm-3.83 0h-1.92v-.75h1.92zm-3.84 0h-1.92v-.75h1.92zm-3.83 0h-1.92v-.75H472zm-3.84 0h-1.37v-1.37h.75v.62h.62v.75zm-.62-3.32h-.75v-1.91h.75zm0-3.83h-.75v-1.92h.75zm0-3.84h-.75v-1.91h.75zm0-3.83h-.75v-1.92h.75zm0-3.84h-.75v-1.91h.75zm0-3.83h-.75v-1.92h.75zm0-3.83h-.75v-1.92h.75zm0-3.84h-.75v-1.92h.75zm0-3.8h-.75v-1.38h1.37v.75h-.62v.63zm31.3-.63h-1.92V148h1.92zm-3.84 0h-1.91V148H495zm-3.83 0h-1.92V148h1.92zm-3.84 0h-1.91V148h1.91zm-3.83 0h-1.92V148h1.92zm-3.83 0h-1.92V148h1.92zm-3.84 0h-1.92V148h1.92zm-3.83 0h-1.92V148H472zm30.13.63h-.75v-.63h-.63v-.75h1.38v1.38zm0 30.64h-.75v-1.91h.75zm0-3.83h-.75v-1.92h.75zm0-3.84h-.75v-1.91h.75zm0-3.83h-.75v-1.92h.75zm0-3.84h-.75v-1.91h.75zm0-3.83h-.75v-1.92h.75zm0-3.83h-.75v-1.92h.75zm0-3.84h-.75v-1.92h.75z"/><path d="M512.85 148.36c2.92 2.8 5.81 5.64 8.7 8.49l8.66 8.6 8.61 8.69 4.29 4.39 4.28 4.42-4.39-4.23-4.34-4.26-8.66-8.6-8.61-8.7c-2.83-2.91-5.7-5.84-8.54-8.8z" fill="#dbdbdb"/><path d="M547.39 148.36q-4.26 4.44-8.57 8.8l-8.61 8.7-8.65 8.6-4.35 4.26-4.36 4.28 4.28-4.42 4.29-4.39 8.61-8.69 8.66-8.6c2.89-2.9 5.78-5.74 8.7-8.54zm.4 34.88h-1.37v-.75h.62v-.63h.75v1.38zm-3.29 0h-1.92v-.75h1.92zm-3.83 0h-1.92v-.75h1.92zm-3.84 0h-1.92v-.75h1.92zm-3.83 0h-1.92v-.75H533zm-3.84 0h-1.91v-.75h1.91zm-3.83 0h-1.92v-.75h1.92zm-3.84 0h-1.91v-.75h1.91zm-3.83 0h-1.92v-.75h1.92z" fill="#dbdbdb"/><path fill="#dbdbdb" d="M513.82 183.24h-1.37v-1.38h.75v.63h.62v.75zm-.62-3.24h-.75v-2h.75zm0-3.84h-.75v-1.92h.75zm0-3.83h-.75v-1.92h.75zm0-3.84h-.75v-1.92h.75zm0-3.83h-.75v-1.92h.75zm0-3.84h-.75v-1.91h.75zm0-3.83h-.75V155h.75zm0-3.84h-.75v-1.91h.75zm0-3.88h-.75v-1.37h1.37v.75h-.62v.62zm31.3-.63h-1.92v-.75h1.92zm-3.83 0h-1.92v-.75h1.92zm-3.84 0h-1.92v-.75h1.92zm-3.83 0h-1.92v-.75H533zm-3.84 0h-1.92v-.75h1.92zm-3.83 0h-1.92v-.75h1.92zm-3.84 0h-1.91v-.75h1.91zm-3.83 0h-1.92v-.75h1.92zm30.13.63h-.75v-.62h-.62v-.75h1.37v1.37zm0 30.73H547v-2h.75zm0-3.84H547v-1.92h.75zm0-3.83H547v-1.92h.75zm0-3.84H547v-1.92h.75zm0-3.83H547v-1.92h.75zm0-3.84H547v-1.91h.75zm0-3.83H547V155h.75zm0-3.84H547v-1.91h.75z"/><path fill="#00e77f" d="M421.49 191.91h126.12v15.45H421.49zM631.65 105a11.31 11.31 0 107.35 14.19 11.31 11.31 0 00-7.35-14.19zm6.06 13.77a9.92 9.92 0 11-6.48-12.45 9.92 9.92 0 016.48 12.46zM631.65 105a11.31 11.31 0 107.35 14.19 11.31 11.31 0 00-7.35-14.19zm6.06 13.77a9.92 9.92 0 11-6.48-12.45 9.92 9.92 0 016.48 12.46zM631.65 105a11.31 11.31 0 107.35 14.19 11.31 11.31 0 00-7.35-14.19zm6.06 13.77a9.92 9.92 0 11-6.48-12.45 9.92 9.92 0 016.48 12.46zm-2.3-25.71A23.83 23.83 0 10651 123a23.83 23.83 0 00-15.59-29.93zm5.29 26.65a13.06 13.06 0 11-8.52-16.38 13.08 13.08 0 018.52 16.39zm-1.68-.53a11.3 11.3 0 10-14.17 7.39 11.3 11.3 0 0014.15-7.38zm-1.31-.41a9.92 9.92 0 11-6.48-12.45 9.92 9.92 0 016.48 12.46zM631.65 105a11.31 11.31 0 107.35 14.19 11.31 11.31 0 00-7.35-14.19zm6.06 13.77a9.92 9.92 0 11-6.48-12.45 9.92 9.92 0 016.48 12.46zM631.65 105a11.31 11.31 0 107.35 14.19 11.31 11.31 0 00-7.35-14.19zm6.06 13.77a9.92 9.92 0 11-6.48-12.45 9.92 9.92 0 016.48 12.46z"/><path fill="#00e77f" d="M625.75 138.95l-8.74-2.75-1.46 6.34 7.77 2.45 2.43-6.04zm-15.71-8.18l-4.23-8.13-5.52 3.45 3.77 7.22 5.98-2.54zm-5.31-16.89l2.75-8.74-6.34-1.47-2.45 7.77 6.04 2.44zm8.18-15.71l8.13-4.23-3.45-5.52-7.22 3.77 2.54 5.98zm16.9-5.32l8.73 2.76 1.47-6.34-7.77-2.45-2.43 6.03zm15.7 8.19l4.23 8.12 5.52-3.44-3.76-7.23-5.99 2.55zm5.32 16.89l-2.76 8.74 6.34 1.47 2.45-7.78-6.03-2.43zm-8.19 15.71l-8.12 4.23 3.44 5.52 7.23-3.77-2.55-5.98zM529 61.42a7.25 7.25 0 104.73 9.09 7.25 7.25 0 00-4.73-9.09zm3.89 8.83a6.36 6.36 0 11-4.15-8 6.37 6.37 0 014.15 8zM529 61.42a7.25 7.25 0 104.73 9.09 7.25 7.25 0 00-4.73-9.09zm3.89 8.83a6.36 6.36 0 11-4.15-8 6.37 6.37 0 014.15 8zM529 61.42a7.25 7.25 0 104.73 9.09 7.25 7.25 0 00-4.73-9.09zm3.89 8.83a6.36 6.36 0 11-4.15-8 6.37 6.37 0 014.15 8zm-1.47-16.49a15.28 15.28 0 1010 19.16 15.3 15.3 0 00-10-19.16zm3.39 17.09a8.37 8.37 0 11-5.47-10.5 8.38 8.38 0 015.47 10.5zm-1.08-.34a7.24 7.24 0 10-9.08 4.74 7.24 7.24 0 009.08-4.74zm-.84-.26a6.36 6.36 0 11-4.15-8 6.37 6.37 0 014.15 8zM529 61.42a7.25 7.25 0 104.73 9.09 7.25 7.25 0 00-4.73-9.09zm3.89 8.83a6.36 6.36 0 11-4.15-8 6.37 6.37 0 014.15 8zM529 61.42a7.25 7.25 0 104.73 9.09 7.25 7.25 0 00-4.73-9.09zm3.89 8.83a6.36 6.36 0 11-4.15-8 6.37 6.37 0 014.15 8z"/><path fill="#00e77f" d="M525.22 83.18l-5.6-1.76-.94 4.06 4.98 1.57 1.56-3.87zm-10.06-5.24l-2.72-5.22-3.54 2.21 2.42 4.64 3.84-1.63zm-3.41-10.83l1.76-5.61-4.06-.94-1.57 4.99 3.87 1.56zm5.24-10.07l5.21-2.72-2.2-3.53-4.64 2.41 1.63 3.84zm10.83-3.41l5.61 1.76.94-4.06-4.99-1.57-1.56 3.87zm10.07 5.25l2.72 5.2 3.53-2.2-2.41-4.64-3.84 1.64zm3.41 10.82l-1.76 5.61 4.06.94 1.57-4.99-3.87-1.56zm-5.25 10.07l-5.21 2.72 2.21 3.53 4.64-2.41-1.64-3.84z"/><g opacity=".6" fill="#fff"><path d="M529 61.42a7.25 7.25 0 104.73 9.09 7.25 7.25 0 00-4.73-9.09zm3.89 8.83a6.36 6.36 0 11-4.15-8 6.37 6.37 0 014.15 8zM529 61.42a7.25 7.25 0 104.73 9.09 7.25 7.25 0 00-4.73-9.09zm3.89 8.83a6.36 6.36 0 11-4.15-8 6.37 6.37 0 014.15 8zM529 61.42a7.25 7.25 0 104.73 9.09 7.25 7.25 0 00-4.73-9.09zm3.89 8.83a6.36 6.36 0 11-4.15-8 6.37 6.37 0 014.15 8zm-1.47-16.49a15.28 15.28 0 1010 19.16 15.3 15.3 0 00-10-19.16zm3.39 17.09a8.37 8.37 0 11-5.47-10.5 8.38 8.38 0 015.47 10.5zm-1.08-.34a7.24 7.24 0 10-9.08 4.74 7.24 7.24 0 009.08-4.74zm-.84-.26a6.36 6.36 0 11-4.15-8 6.37 6.37 0 014.15 8zM529 61.42a7.25 7.25 0 104.73 9.09 7.25 7.25 0 00-4.73-9.09zm3.89 8.83a6.36 6.36 0 11-4.15-8 6.37 6.37 0 014.15 8zM529 61.42a7.25 7.25 0 104.73 9.09 7.25 7.25 0 00-4.73-9.09zm3.89 8.83a6.36 6.36 0 11-4.15-8 6.37 6.37 0 014.15 8z"/><path d="M525.22 83.18l-5.6-1.76-.94 4.06 4.98 1.57 1.56-3.87zm-10.06-5.24l-2.72-5.22-3.54 2.21 2.42 4.64 3.84-1.63zm-3.41-10.83l1.76-5.61-4.06-.94-1.57 4.99 3.87 1.56zm5.24-10.07l5.21-2.72-2.2-3.53-4.64 2.41 1.63 3.84zm10.83-3.41l5.61 1.76.94-4.06-4.99-1.57-1.56 3.87zm10.07 5.25l2.72 5.2 3.53-2.2-2.41-4.64-3.84 1.64zm3.41 10.82l-1.76 5.61 4.06.94 1.57-4.99-3.87-1.56zm-5.25 10.07l-5.21 2.72 2.21 3.53 4.64-2.41-1.64-3.84z"/></g><path d="M612.7 77a29.85 29.85 0 10-36.06 21.94A29.85 29.85 0 00612.7 77zm-15.46-3.76A13.94 13.94 0 11587 56.4a13.93 13.93 0 0110.24 16.84z" fill="#263238"/><path fill="#263238" d="M582.5 99.09l-11.15-2.71-1.3 8.04 9.92 2.42 2.53-7.75zm-20.3-8.92l-5.97-9.81-6.61 4.76 5.3 8.72 7.28-3.67zm-8.05-20.68l2.72-11.15-8.05-1.31-2.42 9.92 7.75 2.54zm8.93-20.31l9.8-5.96-4.76-6.61-8.72 5.3 3.68 7.27zm20.67-8.05l11.15 2.72 1.31-8.04-9.92-2.42-2.54 7.74zm20.31 8.93l5.96 9.81 6.61-4.77-5.3-8.72-7.27 3.68zm8.05 20.68l-2.72 11.15 8.04 1.3 2.42-9.91-7.74-2.54zm-8.93 20.31l-9.81 5.96 4.77 6.61 8.72-5.3-3.68-7.27zm-28.77-15.63l9 4.9 8.67-5.32-.24-10.2-8.94-4.89-8.73 5.29zm9.48-8.42a3.24 3.24 0 11-3.89 2.35 3.24 3.24 0 013.89-2.35zm-23.37 134.71l5.89 1.1a18.27 18.27 0 003.65-10.55c0-.87 1.26 4.36-.66 11.11 6.22 1.17 14.68 2.74 22.08 4 .62-2.87 1.31-5.51 1.31-5.51a32.92 32.92 0 00.3 5.8c1 .19 2 .35 3 .52A113.71 113.71 0 01598.6 196a39.83 39.83 0 001.66 13c4.71.78 7.82 1.21 7.65 1-5.8-9.32.18-13.18-.67-20.71-1-9-8.25-11.59-7-18 1-5.24 3.23-14.69-3.09-17.81a13 13 0 00-13.48-4.92c-11.17 2.32-9.65 19.24-10.9 22.43-1.79 4.55-4.31 5.85-6.86 11s-.7 9.19-1 12.93-5.57 6.59-4.39 6.79z"/><path d="M608.31 208.77a18.87 18.87 0 01-1.54-5 9.85 9.85 0 01.83-4.95c.59-1.63 1.26-3.3 1.71-5.06a14 14 0 00.36-5.51 12.16 12.16 0 00-2.08-5.14 32.26 32.26 0 00-3.49-4.11 20 20 0 01-3.18-4.07 9.66 9.66 0 01-1.12-5 9 9 0 00.54 5.3 18.47 18.47 0 003 4.49 40.1 40.1 0 013.19 4.1 11.68 11.68 0 011.78 4.63 13.61 13.61 0 01-.31 5c-.37 1.67-1 3.31-1.47 5a18.6 18.6 0 00-.6 2.65 7.64 7.64 0 00.16 2.78 15.23 15.23 0 002.22 4.89zm-31.55-55.27a26.82 26.82 0 00-2.45 6.06c-.62 2.09-1.13 4.21-1.61 6.32L572 169a15.77 15.77 0 01-1 3 17.37 17.37 0 01-3.75 5 25.71 25.71 0 00-2.18 2.54 15.61 15.61 0 00-1.68 2.95 22.11 22.11 0 00-1 3.22A13.49 13.49 0 00562 189c0 1.13.15 2.22.25 3.28a17.66 17.66 0 010 3.17 6.66 6.66 0 01-3.47 5 6.75 6.75 0 004.13-4.91 16.22 16.22 0 00.26-3.32c0-1.11-.11-2.18-.07-3.22a17.52 17.52 0 011.49-6.06 14.53 14.53 0 011.57-2.66 23 23 0 012.08-2.38c.74-.78 1.51-1.59 2.21-2.48a13.77 13.77 0 001.75-2.93 17.75 17.75 0 001-3.23c.23-1.08.43-2.15.62-3.21.39-2.14.75-4.27 1.2-6.38a31.43 31.43 0 011.74-6.17z" fill="#263238"/><path d="M542 452.5c2 .64 58.1-.09 60.22-1.48.82-.51 1.19-8.69 1.35-18.6v-.31c0-2 .07-4.14.07-6.27v-.88c.08-14.29-.15-29.12-.15-29.12l-37.55.38 1.06 28.84.05 1.15.22 6v.61s-21.36 9.89-23.53 11.66-3.74 7.4-1.74 8.02z" fill="#ffc4c0"/><path d="M558.83 436.63c.15 0 .22-.08.23-.13z" fill="#00e77f"/><path d="M542 452.5c2 .63 58.09-.09 60.21-1.48.72-.45 1.1-7 1.29-15.37-10.29 2.15-50.14 10.21-51.23 6.8-.43-1.34 3-3.65 5.13-5-5.89 2.81-12.42 6-13.57 7-2.17 1.76-3.83 7.42-1.83 8.05zm73-218.35s-8.42 94.85-9.8 102.09c-.32 1.65-.51 10.61-.64 22.14-.29 25.14-.12 70.48-.12 70.48h-39.59s1.18-78.56 2.93-93 13-101.69 13-101.69z" fill="#263238"/><path d="M566.64 422c6.17-.13 4.4-.18 10.58-.24 3 0 22.87-.2 25.7.27a.06.06 0 010 .12c-2.83.47-22.68.3-25.7.27-6.18-.06-4.41-.11-10.58-.24a.09.09 0 010-.18zm30.26-44.94q.08-8.61.13-17.22c0-5.56 0-11.12.3-16.68.53-11.24 2.81-22.29 4.44-33.41s3-22.29 4.2-33.46c1.37-12.54 2.59-25.09 3.88-37.63 0-.09.14-.09.13 0-1.86 22.4-3.94 44.79-7.05 67.06q-1.15 8.31-2.52 16.58c-.93 5.58-1.85 11.17-2.29 16.82s-.5 11.07-.55 16.61q-.09 8.61-.17 17.21c-.13 12.73-.25 32.34-.38 45.08a.19.19 0 01-.38 0c.09-11.37.18-29.6.26-40.96z" fill="#37474f"/><path d="M623.33 234.15S606.56 329 605.18 336.24c-.32 1.65-.51 10.61-.64 22.14l-18.87-124.23z" fill="#37474f"/><path d="M635.53 455.69c2.05-.32 51.8-26.32 53.06-28.51.5-.83-2.87-8.3-7.2-17.21l-.13-.28c-.89-1.83-18.66-31.79-18.66-31.79l-30.6 18 17 30.25.3.54s-14.59 18.47-15.73 21-.08 8.31 1.96 8z" fill="#ffc4c0"/><path d="M635.54 455.69c2-.32 51.79-26.32 53.05-28.52.42-.7-2-6.26-5.37-13.4-7.13 5.39-41.56 31.25-44.08 28.56-.53-.57-.13-1.91.57-3.35a90.68 90.68 0 00-6.17 8.7c-1.12 2.54-.05 8.32 2 8.01zm9.03-30.69l36.26-22.4s-42-60-42.15-65.35c-.29-7.93-4.09-40.64-7.28-67.13 0 0 6.05-14.34-5.28-36h-45.43s3 20.62 8.26 33.69a60.5 60.5 0 0110.1 4.61s4.52 59.05 4.69 66.42c.33 14.56 40.83 86.16 40.83 86.16z" fill="#263238"/><path d="M642.35 416.64c5.23-3.29 3.69-2.42 8.95-5.64 2.58-1.58 19.53-11.92 22.19-13 .06 0 .12.07.07.11-2.18 1.85-19.31 11.9-21.92 13.42-5.33 3.12-3.83 2.17-9.2 5.23a.09.09 0 11-.09-.12zm-55.12-149.73a75.09 75.09 0 0111.82 5.51.13.13 0 01-.11.24c-4-1.71-8.05-3.35-11.93-5.28a.26.26 0 01.22-.47zm5.56-6.58c-.39-2.37-.71-4.75-.91-7.15a65.43 65.43 0 01.14-13.42.12.12 0 01.23 0 124.47 124.47 0 001.08 18.51c.45 2.95 1.93 7.39-1.15 7.85s-5.17-7-5.56-9a67.87 67.87 0 01-.66-17.55c0-.14.25-.17.25 0a133.07 133.07 0 00.67 13.31c.18 2 1.83 13.39 5.39 12.56.6-.14.9-.72 1-1.62a14.3 14.3 0 00-.48-3.48" fill="#37474f"/><path d="M592.18 265.74a19.12 19.12 0 01.8 2.35 5.3 5.3 0 01.33 1.93c0 .12-.18.13-.25.05a6.88 6.88 0 01-.82-1.88c-.27-.73-.56-1.45-.81-2.18a.4.4 0 01.75-.27zm28.6-28.74a42.61 42.61 0 013.58 7.42 46.71 46.71 0 012.2 8c.29 1.35.41 2.73.59 4.1s.21 2.76.15 4.14a43.91 43.91 0 01-.87 8.24v-.1q1.83 17.16 3.52 34.31t3.39 34.32l.11 1.08v.53a1.33 1.33 0 00.08.47c.23.52.62 1.21 1 1.81.71 1.24 1.46 2.46 2.2 3.69l4.55 7.32 9.2 14.59L669 396c-6.4-9.55-12.79-19.11-19.06-28.76-3.14-4.82-6.29-9.63-9.37-14.49l-4.57-7.33c-.75-1.23-1.51-2.46-2.23-3.71a17.65 17.65 0 01-1-2 2.2 2.2 0 01-.12-.59l-.05-.53-.11-1.08q-1.75-17.16-3.38-34.34t-3.25-34.36v-.1a43.48 43.48 0 001-8.12c.08-1.36 0-2.73-.08-4.09s-.23-2.73-.49-4.07a45.73 45.73 0 00-2-8 41.39 41.39 0 00-3.51-7.43z" fill="#37474f"/><path d="M588.37 194.72c-1.58 7.47-9.58 32.75-17.48 38.44-5.66 4.09-25.1 7.87-40.07 7.69-5.19-.06-1.82-22.1 3.07-24.8 2.93-1.63 24.79-.48 28.18-1.83 2.54-1 8.41-13.49 19-24.74 5.79-6.16 9.43-4.8 7.3 5.24z" fill="#ffc4c0"/><path d="M532.14 240.86c-3 0-19.72-.09-23.42-1.29s-14.12-5.43-13.49-8.36 3.78-1.93 3.78-1.93-4.12-2.49-3.21-5.38 5.75-1.18 5.75-1.18-4-2.86-2.93-5.68 5.69-.29 5.69-.29-3.81-2.44-1.92-4.38c2.27-2.33 8.8 3 13 4 1 .23 19.62 3.31 19.62 3.31z" fill="#ffc4c0"/><path d="M503.91 216.54c4.81 3.88 7.59 4.75 13.63 5.45.11 0 .12.19 0 .19-6-.15-9.62-.73-13.83-5.41-.2-.23-.03-.41.2-.23zm-2.74 5.86c5.35 3.6 8.35 4.56 14.62 5.76.09 0 .07.17 0 .16-6.25-.66-9.87-1.33-14.74-5.62-.24-.19-.12-.46.12-.3zm-1.84 6.93c5.43 3.1 8.67 4.3 14.91 4.69a.12.12 0 010 .23c-6.4.22-10.46-1.24-15-4.75-.3-.24-.24-.37.09-.17z" fill="#263238"/><path d="M539.67 217.89s-6.41-5.48-9.62-6.84-17-2-17.33.94c-.41 3.84 7.49 5.8 11.48 6.25 0 0-1 8.89 4.42 11.52s11.05-11.87 11.05-11.87z" fill="#ffc4c0"/><path d="M513 213.08c2.16 3.77 7.44 4 11.28 4.76a.35.35 0 01.26.52c-.15 3.75.73 9.09 3.89 11.48a.09.09 0 11-.09.15c-3.74-2.1-5-7.27-4.61-11.37-3.95-.69-9.23-1.18-10.77-5.52-.06-.03-.02-.05.04-.02z" fill="#263238"/><path d="M574.61 234.45L565 209.66a233.53 233.53 0 0115.41-20.84c8-9.41 12.52-9.24 9.2 5.83s-8.97 32.79-15 39.8z" fill="#00e77f"/><path d="M574.61 234.45L565 209.66a233.53 233.53 0 0115.41-20.84c8-9.41 12.52-9.24 9.2 5.83s-8.97 32.79-15 39.8z" fill="#00e77f"/><path d="M587.32 182.68a1.31 1.31 0 01-1.3 1 1 1 0 01-.38-.07 8.29 8.29 0 011.68-.93zm-9.76 13a1.36 1.36 0 100 2.71 1.36 1.36 0 000-2.71zm8.46 0a1.36 1.36 0 100 2.71 1.36 1.36 0 000-2.71zm-4.23-7.23a1.36 1.36 0 100 2.71 1.36 1.36 0 000-2.71zm8.46 0a1.36 1.36 0 000 2.71c.16-1 .27-1.86.33-2.66a.86.86 0 00-.33-.09zm-21.15 21.83a1.36 1.36 0 101.36 1.36 1.36 1.36 0 00-1.36-1.36zm8.46 0a1.36 1.36 0 100 2.71 1.36 1.36 0 000-2.71zm7.1 1.36a1.27 1.27 0 00.2.69c.2-.63.4-1.27.59-1.92a1.34 1.34 0 00-.79 1.23zm-11.33-8.59a1.36 1.36 0 100 2.71 1.36 1.36 0 000-2.71zm8.46 0a1.36 1.36 0 100 2.71 1.36 1.36 0 000-2.71zm-4.23 21.87a1.36 1.36 0 101.35 1.36 1.36 1.36 0 00-1.35-1.36zm-4.23-7.23a1.36 1.36 0 101.35 1.36 1.36 1.36 0 00-1.35-1.36zm8.46 0a1.36 1.36 0 100 2.71 1.18 1.18 0 00.27 0c.27-.7.54-1.42.8-2.14a1.32 1.32 0 00-1.07-.57zm-8 14.74l.72 1.84a1.27 1.27 0 00.14-.58 1.34 1.34 0 00-.83-1.26z" fill="#fff"/><path d="M567.07 215.1l7.54 19.35c6-7 11.62-24.74 14.95-39.8 1.91-8.64 1.23-12.39-1.21-12.23z" opacity=".1"/><path d="M568.08 208.61c1.52 3.36 2.92 6.74 4.2 10.2.65 1.73 1.27 3.48 1.87 5.23s1.09 3.6 1.66 5.4c0 .09-.11.13-.14 0-1.22-3.5-2.57-7-3.86-10.43s-2.57-6.93-3.85-10.39c-.02-.03.09-.08.12-.01z" fill="#263238"/><path d="M578 237.2l50.24-.57s-15.8-43.32-28-53.17c-5.55-4.48-10.16-3-13.69.85-.88 1-11.05 18.41-11.33 24-.24 5 4.44 9.78 4.44 9.78z" fill="#00e77f"/><path d="M595.83 182.36a1.36 1.36 0 11-1.36-1.36 1.35 1.35 0 011.36 1.36zM586 195.64a1.36 1.36 0 100 2.71 1.36 1.36 0 000-2.71zm8.45 0a1.36 1.36 0 101.36 1.36 1.36 1.36 0 00-1.34-1.36zm8.46 0a1.36 1.36 0 101.36 1.36 1.35 1.35 0 00-1.34-1.36zm7.21.86a1.18 1.18 0 00-.1.5 1.34 1.34 0 001.14 1.33c-.32-.62-.67-1.23-1.02-1.83zm-27.35-5.82a1.13 1.13 0 00.27-.49c-.04.16-.15.32-.25.49zm7.46-2.27a1.36 1.36 0 101.35 1.36 1.36 1.36 0 00-1.33-1.36zm8.45 0a1.36 1.36 0 101.36 1.36 1.35 1.35 0 00-1.34-1.36zm7.12 1.3a.13.13 0 000 .06 1.33 1.33 0 00.94 1.28c-.3-.46-.61-.91-.92-1.34zm-28.26 20.57a1.36 1.36 0 100 2.71 1.36 1.36 0 000-2.71zm8.46 0a1.36 1.36 0 100 2.71 1.36 1.36 0 000-2.71zm8.45 0a1.36 1.36 0 101.36 1.36 1.36 1.36 0 00-1.34-1.36zm8.46 0a1.36 1.36 0 101.36 1.36 1.35 1.35 0 00-1.34-1.36zm8.46 0a1.36 1.36 0 101.36 1.36 1.35 1.35 0 00-1.34-1.36zm-29.6-7.23a1.36 1.36 0 100 2.71 1.36 1.36 0 000-2.71zm8.46 0a1.36 1.36 0 101.35 1.36 1.36 1.36 0 00-1.33-1.36zm8.45 0a1.36 1.36 0 101.36 1.36 1.35 1.35 0 00-1.34-1.36zm8.46 0a1.36 1.36 0 101.36 1.36 1.35 1.35 0 00-1.34-1.36zm7.13 1.13a.85.85 0 000 .23 1.31 1.31 0 00.74 1.19zM586 224.92a1.36 1.36 0 101.35 1.36 1.36 1.36 0 00-1.35-1.36zm8.45 0a1.36 1.36 0 101.36 1.36 1.36 1.36 0 00-1.34-1.36zm8.46 0a1.36 1.36 0 101.36 1.36 1.35 1.35 0 00-1.34-1.36zm8.46 0a1.36 1.36 0 101.36 1.36 1.35 1.35 0 00-1.34-1.36zm8.46 0a1.36 1.36 0 101.36 1.36 1.36 1.36 0 00-1.34-1.36zm-38.06-7.23a1.36 1.36 0 101.35 1.36 1.36 1.36 0 00-1.33-1.36zm8.46 0a1.36 1.36 0 101.35 1.36 1.36 1.36 0 00-1.33-1.36zm8.45 0a1.36 1.36 0 101.36 1.36 1.35 1.35 0 00-1.34-1.36zm8.46 0a1.36 1.36 0 101.36 1.36 1.35 1.35 0 00-1.34-1.36zm8.46 0a1.36 1.36 0 101.36 1.36 1.36 1.36 0 00-1.34-1.36zm-33.83 14.64a1.36 1.36 0 101.35 1.36 1.36 1.36 0 00-1.33-1.36zm8.46 0a1.36 1.36 0 101.35 1.36 1.36 1.36 0 00-1.33-1.36zm8.45 0a1.36 1.36 0 101.36 1.36 1.35 1.35 0 00-1.34-1.36zm8.46 0a1.36 1.36 0 101.36 1.36 1.35 1.35 0 00-1.34-1.36zm8.46 0a1.36 1.36 0 101.36 1.36 1.36 1.36 0 00-1.34-1.36zm8.46 0a1.36 1.36 0 101.35 1.36 1.36 1.36 0 00-1.33-1.36z" fill="#fff"/><path d="M587.46 215.38a48.66 48.66 0 017.08 1.38c1.15.34 2.28.72 3.41 1.13.56.2 1.12.39 1.69.57a7.6 7.6 0 001.82.4c.06 0 0 .09 0 .09a15 15 0 01-1.77-.09 13.85 13.85 0 01-1.67-.37c-1.17-.33-2.32-.71-3.49-1-2.35-.69-4.71-1.37-7.1-1.88-.12-.06-.08-.25.03-.23zm-5.99 1.94a53.84 53.84 0 016-.11c1 0 2 .15 3 .27q.71.09 1.41.21c.52.08 1 .23 1.54.3v.09c-.49-.06-1 0-1.48-.06l-1.48-.08-3-.16c-2-.13-3.95-.24-5.94-.3-.16 0-.15-.15-.05-.16z" fill="#263238"/><path d="M595.73 182.73c-.08.93-3.51 7.47-7.67 7.9-1.36.14-2.45-7.23-2.45-7.23l-.21-.53-2.86-7.37 8.08-7.11 1.18-.95s.65 2.06 1.44 4.64c0 .12.07.24.11.37a4 4 0 01.13.42q.19.58.36 1.17c.09.3.18.59.26.91s.17.63.26.94a51.53 51.53 0 011.37 6.84z" fill="#ffc4c0"/><path d="M593.24 172.08a15.84 15.84 0 01-7.84 10.79l-2.86-7.37 8.08-7.11 1.18-.95s.65 2.06 1.44 4.64z" fill="#263238"/><path d="M571 161.87c-3.07 13.53 4.69 16.89 7.61 17.55 2.65.59 11.75 2.29 16.19-10.85s-.86-18.85-6.8-20.57-13.92.34-17 13.87z" fill="#ffc4c0"/><path d="M573.45 160h1a1.59 1.59 0 001-.2.5.5 0 00.12-.59 1.25 1.25 0 00-1.13-.52 1.82 1.82 0 00-1.23.4.52.52 0 00.24.91zm9.33 1.83c-.31-.1-.58-.25-.88-.38a1.58 1.58 0 01-.82-.56.49.49 0 01.12-.59 1.22 1.22 0 011.24 0 1.82 1.82 0 011 .85.53.53 0 01-.66.68zm-2.78 2.9s.06.06 0 .1c-.24.91-.36 2 .41 2.49v.05c-1.01-.37-.83-1.81-.41-2.64z" fill="#263238"/><path d="M581 164c1.51.23 1 3.23-.45 3s-.82-3.24.45-3z" fill="#263238"/><path d="M581.55 164.22c.23.22.43.57.74.66s.69-.16 1-.42c0 0 .05 0 0 0-.1.57-.43 1.12-1.06 1.09s-.88-.61-.92-1.21c.02-.07.15-.21.24-.12zm-6.73-.65s-.08 0-.08.07c-.14.93-.45 2-1.35 2.14v.05c1.05.04 1.45-1.35 1.43-2.26z" fill="#263238"/><path d="M574.17 162.45c-1.48-.38-2.13 2.6-.76 3s1.99-2.68.76-3z" fill="#263238"/><path d="M573.5 162.51c-.27.1-.56.34-.85.3s-.5-.43-.64-.78c-.14.56-.08 1.2.44 1.43s1-.2 1.21-.74c0-.08-.05-.25-.16-.21zm5.13 9.86c-.25.19-.52.46-.86.44a2.57 2.57 0 01-1-.38s-.06 0 0 0a1.27 1.27 0 001.11.68 1 1 0 00.86-.73s-.07-.04-.11-.01zm-3.21-4.12s-.46 1.35-.59 2c0 .06.14.12.36.18a3.15 3.15 0 003.25-.56c0-.05 0-.14-.08-.11a4.76 4.76 0 01-3 .25c0-.19.88-2.28.78-2.3a5.45 5.45 0 00-1.55 0c.89-2.84 2.23-5.5 3.07-8.33a.09.09 0 00-.16-.08 47.82 47.82 0 00-3.69 8.83c-.11.4 1.33.18 1.61.12z" fill="#263238"/><path d="M594.42 168.5c-3.47-.48-3.36-11.27-3.34-12.6-.06.84-.39 5.25-.75 5.39a3.49 3.49 0 01-1.07-.32 10.39 10.39 0 000-1.59c0-.25-.15.52-.38 1.46l-.62-.25a13 13 0 000-3.38c-.06-.42-.37 1.43-.94 3a41.68 41.68 0 00-8.93-2.55 21.69 21.69 0 00-2.28-.23c.13-1.3.42-2.67.3-2.38a12.65 12.65 0 00-.8 2.36h-1c.1-1.85 1.28-4.68.94-4.27a12.91 12.91 0 00-2.25 4.34c-1.27.11-1.64.32-1.64 0a15.39 15.39 0 015.64-9c4.77-3.64 13.54-3.77 17.77 3.05 0 0 3.76 3 4 7.34s-2.65 9.91-4.65 9.63z" fill="#263238"/><path d="M593.72 173.56a3.29 3.29 0 01-.66.08 1.9 1.9 0 01-.65-.08 1.85 1.85 0 01-.76-.36 2.26 2.26 0 01-.46-.47 2.6 2.6 0 01-.42-.84l1.26-3.57s3.59-3.88 5.39-2.55-1.3 7.23-3.7 7.79z" fill="#ffc4c0"/><path d="M596.49 167.44v.07a6 6 0 00-3.54 3.26 1.29 1.29 0 012-.09v.08a1.45 1.45 0 00-1.64.28 6.55 6.55 0 00-.93 1.17c-.1.14-.34 0-.27-.13.18-2.08 2.16-4.73 4.38-4.64z" fill="#263238"/><path d="M593.61 173a.65.65 0 11-.4-.81.64.64 0 01.4.81zm1.44-.83a.46.46 0 01-.58.28.45.45 0 01-.28-.58.46.46 0 01.58-.28.47.47 0 01.28.58zm-75.366 5.763l116.148 48.586-22.236 53.156-116.148-48.585z" fill="#fff"/><path d="M613.64 279.64l-116.23-48.4-.18-.07.07-.18 22.19-53.18.09-.23.23.09 116.11 48.68.12.06v.12zm0 0l22.1-53.21.07.17-116.19-48.47.38-.13-22.28 53.14-.11-.26z" fill="#263238"/><path d="M530.26 209.36a9.83 9.83 0 01-3.06 0 9.76 9.76 0 113.06 0z" fill="#ebebeb"/><path d="M532 199.84a3 3 0 11-1.55-3.91 3 3 0 011.55 3.91z" fill="#fff"/><path d="M530.74 208.23l-.48 1.13a9.83 9.83 0 01-3.06 0 9.72 9.72 0 01-6.38-4l.48-1.12a5.14 5.14 0 119.44 4.08z" fill="#fff"/><path fill="#ebebeb" d="M514.322 209.004l103.158 43.152-1.516 3.626-103.159-43.153zm-3.341 7.983l103.158 43.152-1.516 3.625-103.158-43.152zm-3.341 7.973l103.16 43.152-1.517 3.625-103.158-43.152zm38.614-26.817l57.059 23.868-2.042 4.88-57.059-23.868z"/><path fill="#dbdbdb" d="M542.864 206.221l28.266 11.825-2.041 4.88-28.267-11.824z"/><path d="M605.59 191.05c9.44 17.36 18.59 31.48 16.4 39.66-3.28 12.25-21.47 33.71-27.92 37.06-2.78 1.44-17.35-18.06-14.91-20.35 2.94-2.74 22-22.28 22.32-24.31.51-3.48-1.64-10.51-4-29.35-1.76-14.61 4.52-9.4 8.11-2.71z" fill="#ffc4c0"/><path d="M587.57 243.62a119.21 119.21 0 01-11.79-1.89c-3.4-.74-9.35-1.48-12.1-.87-4.11.9-20.73 7.3-19.26 11.36 1.32 3.68 14.9-3.63 14.9-3.63s-14.35 6.17-11.94 10.3 16.62-6.17 16.62-6.17-14.6 6.67-11.44 10.54c2.39 2.92 15.81-5.68 15.81-5.68s-12.51 5.82-10.18 8.93c2.57 3.44 15.46-3.72 15.46-3.72 7.24 6.91 16.43 8.23 21.84 4.19.9-.66-7.92-23.36-7.92-23.36z" fill="#ffc4c0"/><path d="M564.15 246.14c-1.71.66-3.45 1.32-5.1 2.13s-3.27 1.69-4.83 2.65a30.71 30.71 0 00-5.73 4.33 67.52 67.52 0 0110.8-6.53c1.64-.81 3.25-1.71 4.89-2.52l-.03-.06zm3.04 5.86c-2.15.94-4.31 1.8-6.42 2.84s-4 2.19-6 3.37c-.16.09-.06.14.1.06 2.07-1.1 4.06-1.95 6.14-3s4.12-2.22 6.23-3.21c.01.01-.01-.06-.05-.06zm3.53 4.62a52.3 52.3 0 00-9.5 5.09c-.15.09 0 .15.15.06 3.12-1.75 5.56-3.15 9.39-5 .06-.06.03-.18-.04-.15z" fill="#263238"/><path d="M624.74 230.44l-24.33-10.78a232.12 232.12 0 01-3.77-25.66c-1-12.31 2.37-15.38 10.63-2.35s16.8 29.56 17.47 38.79z" fill="#00e77f"/><path d="M604.29 197a1.36 1.36 0 11-1.36-1.36 1.35 1.35 0 011.36 1.36zm5.89-.59a1.31 1.31 0 00-.14.59 1.33 1.33 0 001.3 1.34c-.34-.65-.76-1.29-1.16-1.93zm-11.48-8a1.36 1.36 0 101.36 1.36 1.35 1.35 0 00-1.36-1.36zm7.14 1.09a1.18 1.18 0 000 .27 1.33 1.33 0 001.08 1.32l-1.08-1.59zm-2.91 20.78a1.36 1.36 0 101.36 1.36 1.35 1.35 0 00-1.36-1.36zm8.46 0a1.36 1.36 0 101.36 1.36 1.35 1.35 0 00-1.36-1.36zm7.11 1.44a1.29 1.29 0 00.43.91c-.15-.3-.29-.63-.43-.91zm-19.8-8.67a1.33 1.33 0 00-1 .48c.1.68.19 1.35.29 2a1.36 1.36 0 002.1-1.13 1.36 1.36 0 00-1.39-1.35zm8.46 0a1.36 1.36 0 101.36 1.36 1.35 1.35 0 00-1.36-1.36zm7.26.73a1.33 1.33 0 001.06 2zm5.43 21.14a1.36 1.36 0 101.36 1.36 1.36 1.36 0 00-1.36-1.36zm-12.69-7.23a1.36 1.36 0 101.36 1.36 1.35 1.35 0 00-1.36-1.36zm8.46 0a1.36 1.36 0 101.36 1.36 1.36 1.36 0 00-1.36-1.36z" fill="#fff"/><path d="M596.64 201.64a12.53 12.53 0 01.83 2.24l.23.77q-.26-2.15-.48-4.29c0-.1.13-.13.14 0 .53 3.24 2.93 18.43 3 19.22.07 0 1.3.64 1.35.64s0 .15-.06.12-1.76-.62-1.76-.63c-.29-.7-1.89-12.32-2.06-13.73a1.63 1.63 0 01-.09-.19c-.07-.2-.13-.4-.2-.61-.13-.37-.24-.75-.36-1.12a17.68 17.68 0 01-.65-2.37s.09-.1.11-.05z" fill="#263238"/><path d="M601 216.9a24 24 0 012.86.95c1 .32 1.9.64 2.85 1 1.81.66 3.61 1.37 5.4 2.09a116.27 116.27 0 0110.6 4.82c.07 0 0 .15-.06.12-3.68-1.41-7.28-3-10.93-4.48l-5.37-2.19c-.9-.36-1.79-.75-2.69-1.11a28.8 28.8 0 01-2.7-1.1s-.06-.11.04-.1z" fill="#263238"/><path fill="#00e77f" d="M260.63 443.02h-5.65l-45.36-211.23h-47.79l27.31 211.23h-5.58L155.62 226.9h58.59l46.42 216.12z"/><path opacity=".4" d="M260.63 443.02h-5.65l-45.36-211.23h-47.79l27.31 211.23h-5.58L155.62 226.9h58.59l46.42 216.12z"/><path fill="#00e77f" d="M151.94 221.06h64.96v5.83h-64.96z"/><path opacity=".2" d="M151.94 221.06h64.96v5.83h-64.96z"/><path fill="#00e77f" d="M214.18 227.68l-22.85 226.68h-5.58l22.3-221.14h-47.8l-40.33 221.14h-5.64l41.34-226.68h58.56z"/><path fill="#00e77f" d="M151.76 276.41h56.49v5.54h-56.49zm-8.96 44.95h56.49v5.54H142.8zm-9.56 44.95h61.64v5.54h-61.64zm-7.35 44.95h65.6v5.54h-65.6z"/><g opacity=".2"><path d="M214.18 227.68l-22.85 226.68h-5.58l22.3-221.14h-47.8l-40.33 221.14h-5.64l41.34-226.68h58.56z"/><path d="M151.76 276.41h56.49v5.54h-56.49zm-8.96 44.95h56.49v5.54H142.8zm-9.56 44.95h61.64v5.54h-61.64zm-7.35 44.95h65.6v5.54h-65.6z"/></g><path d="M131.83 301.19s-19.51 36.74-19.52 36.81c-1.14 6.94-2 13.05-2.17 16.25v.05a4.92 4.92 0 00.16 2.23v.05c1.84 1.74 57.06 12.46 59.11 12.19s1.43-6.15-.38-8.27-21.13-15.69-21.13-15.69L167.1 308z" fill="#f7a9a0"/><path d="M116 330.62l-3.69 7.38c-1.14 6.94-2 13.05-2.17 16.25v.05a9.35 9.35 0 00.16 2.23v.05c1.84 1.74 57.06 12.46 59.11 12.19s1.43-6.15-.38-8.27-21.13-15.69-21.13-15.69l3.76-7.43z" fill="#fff"/><path d="M151.33 345.36c-3.59-1.23-8.19-1.32-11.4.9-.12.09 0 .26.13.24a52.37 52.37 0 0111.19-.68.24.24 0 00.08-.46zm2.43 1.99c-3.59-1.23-8.19-1.32-11.39.9-.13.09 0 .27.12.24a53 53 0 0111.19-.67.24.24 0 00.08-.47zm2.43 2c-3.59-1.23-8.19-1.32-11.39.9-.13.08 0 .26.12.24a52.37 52.37 0 0111.19-.68.24.24 0 00.08-.46z" fill="#263238"/><path d="M169.44 368.73c-2.06.27-57.27-10.45-59.11-12.19-.71-.65.38-8.79 2-18.58l.06-.31 35.7 6.52-.14.6s19.3 13.56 21.13 15.69 2.41 8 .36 8.27z" fill="#37474f"/><path d="M112.36 337.64v.32c-1.6 9.79-2.7 17.93-2 18.58s12.71 3.46 25.64 6.08c15.45 3.15 32.33 6.26 33.45 6.11 2.05-.27 1.42-6.15-.38-8.27s-21.12-15.69-21.12-15.69l.13-.6-11.92-2.17z" fill="#00e77f"/><path d="M169.23 366.46c-9.26-2-46.82-9.37-56.13-10.68-.07 0-.08 0 0 .06 9.14 2.22 46.75 9.25 56.11 10.78.19.03.21-.11.02-.16z" fill="#263238"/><path d="M136.16 342c-.12 6.14-.27 15.19-.17 20.62 15.45 3.15 32.33 6.26 33.45 6.11 2.05-.27 1.42-6.15-.38-8.27s-21.12-15.69-21.12-15.69l.13-.6z" opacity=".1"/><path d="M110.07 334.2l41.35 5.43s50.25-76.18 45.88-99.23c-2.4-12.69-45.54-32.61-45.54-32.61L147.4 199H117s-12.4 18.28-3.49 35.45c6 11.67 39.3 20.58 40.52 24.33 1.58 4.96-43.96 75.42-43.96 75.42z" fill="#455a64"/><path d="M118 326.92a32.11 32.11 0 013.25.13c1.21.06 2.41.12 3.61.21q3.47.27 6.91.68c4.64.54 9.28 1.14 13.9 1.84 2.63.4 5.25.82 7.87 1.29a.09.09 0 010 .17c-4.62-.39-9.23-.87-13.84-1.34s-9.22-.93-13.8-1.57c-1.31-.18-2.63-.35-3.94-.59s-2.66-.32-3.93-.66c-.12-.02-.14-.15-.03-.16zm32.76-2.79c3.61-5.52 7.11-11.12 10.55-16.76s6.83-11.3 10.07-17 6.42-11.53 9.33-17.45c1.46-2.95 2.86-5.94 4.13-9a79.29 79.29 0 003.36-9.25c.87-3.12 1.67-6.4 1-9.51a13.56 13.56 0 00-1.85-4.39 22.07 22.07 0 00-1.39-2c-.52-.61-1-1.24-1.61-1.82-4.56-4.68-10.25-8.15-16-11.37s-11.77-5.94-17.75-8.73c-1.5-.71-3-1.42-4.46-2.17-.74-.39-1.47-.78-2.18-1.21a4.9 4.9 0 01-1.86-1.67 23.33 23.33 0 01-2.66-9.5 23.23 23.23 0 002.87 9.37 4.62 4.62 0 001.81 1.54c.71.4 1.44.78 2.18 1.14 1.49.71 3 1.38 4.5 2.06 6 2.69 12.07 5.38 17.92 8.5a91.82 91.82 0 018.53 5.09 49.74 49.74 0 017.73 6.32c.59.59 1.13 1.24 1.67 1.88a19.67 19.67 0 011.46 2.06 13.46 13.46 0 012.1 9.77c-.16.82-.27 1.66-.46 2.47s-.38 1.63-.63 2.43a79.59 79.59 0 01-3.44 9.34c-1.3 3.06-2.72 6.05-4.19 9-3 5.91-6.14 11.72-9.48 17.42s-6.79 11.34-10.33 16.92-7.17 11.09-10.92 16.52z" fill="#263238"/><path d="M153.21 355.66l.31 36.81c0 7 .17 13.21.54 16.39a.07.07 0 000 .05 4.81 4.81 0 00.53 2.17.1.1 0 000 .05c2.1 1.41 58.33 2.87 60.31 2.26s.39-6.29-1.74-8.09-23.43-12-23.43-12l-.66-36.77z" fill="#f7a9a0"/><path d="M153.46 384.92l.06 7.55c0 7 .17 13.21.54 16.39a.07.07 0 000 .05 9.47 9.47 0 00.53 2.17.1.1 0 000 .05c2.1 1.41 58.33 2.87 60.31 2.26s.39-6.29-1.74-8.09-23.43-12-23.43-12v-7.66z" fill="#fff"/><path d="M193.23 393.33c-3.75-.61-8.3.06-11.09 2.77-.11.11 0 .26.16.22a53.09 53.09 0 0110.92-2.52.24.24 0 00.01-.47zm2.77 1.57c-3.74-.62-8.29.05-11.08 2.77-.11.1 0 .26.16.22a52.16 52.16 0 0110.92-2.52.24.24 0 000-.47zm2.68 1.56c-3.74-.61-8.29.06-11.09 2.78-.11.1 0 .25.17.21a52.14 52.14 0 0110.92-2.51.24.24 0 000-.48z" fill="#263238"/><path d="M215 413.39c-2 .61-58.21-.85-60.31-2.26-.81-.53-1.08-8.73-1.11-18.66v-.31l36.28.54v.62s21.28 10.18 23.43 12 3.64 7.47 1.71 8.07z" fill="#00e77f"/><path d="M214.37 411.2c-9.47-.48-47.72-1.52-57.12-1.27-.08 0-.08.05 0 .06 9.37.68 47.63 1.4 57.11 1.36.2 0 .21-.14.01-.15z" fill="#263238"/><path d="M134.62 238s16.7 52.61 17 62.28c.25 8.25-.8 92.84-.8 92.84l42.26.25s-3.57-86.27-4.23-94.86c-1.24-16.06-15.31-60.16-25.37-99.45h-45.56s.39 20.57 9.75 35.45c0-.04 4.24 1.93 6.95 3.49z" fill="#455a64"/><path d="M153.06 385.29c4.89-.14 9.95-.28 14.83-.16s9.7.19 14.53.48c2.75.16 5.48.26 8.22.53a.07.07 0 010 .14c-4.88.29-9.78.23-14.66.19s-9.69-.1-14.54-.32c-2.74-.13-5.48-.27-8.22-.46-.29-.02-.45-.39-.16-.4zm9.25-161.48c1.5 5 2.77 10.13 4.12 15.2s2.71 10.22 4.06 15.34c2.6 9.9 5.18 19.81 7.13 29.86a179.81 179.81 0 013.38 30.6c.22 10.48 0 21-.07 31.44s-.16 21.07-.34 31.6c0 1.31-.05 2.62-.1 3.93a.1.1 0 01-.19 0c-.28-10.48-.13-21-.1-31.46s.17-21 .08-31.44a187.73 187.73 0 00-2.68-31c-1.77-10.08-4.25-20-6.83-29.92q-2.21-8.48-4.42-17c-1.47-5.68-3-11.36-4.35-17.09a.16.16 0 01.31-.06zM145.07 239a37.68 37.68 0 01-6.27-.57 60.82 60.82 0 01-6.08-1.69 47.75 47.75 0 00-6-1 21.33 21.33 0 01-5.85-1.74c-.08 0-.15.08-.07.13a37 37 0 005.6 2.43c2 .63 4.1.71 6.13 1.21a51.59 51.59 0 006.26 1.44 22.71 22.71 0 006.27-.1c.12-.01.09-.11.01-.11z" fill="#263238"/><path d="M151.76 339.11l-.07-13c0-4.32-.05-8.64-.12-12.95s-.13-8.64-.43-12.93a37.93 37.93 0 00-1-6.31c-.46-2.1-1-4.19-1.55-6.28-2.14-8.35-4.53-16.66-6.88-25l-7.07-24.93c1.37 4.1 2.67 8.22 4 12.33l3.82 12.39q3.76 12.4 7.1 24.93c.52 2.11 1.07 4.2 1.52 6.32a38.8 38.8 0 011 6.46c.25 4.34.31 8.66.29 13q-.07 13.01-.61 25.97zm33.7-58.75c-1.57-5.46-3.05-10.95-4.53-16.43l-4.37-16.46-4.3-16.47c-.71-2.75-1.45-5.48-2.2-8.22s-1.46-5.49-2.46-8.14a147.24 147.24 0 015.4 16.16c1.59 5.45 3.05 10.94 4.53 16.43s2.82 11 4.14 16.52 2.62 11.05 3.79 16.61z" fill="#263238"/><path d="M165.86 144.79c.89 13 6.31 38.83 10.13 42.85 3.18 3.35 20 16.28 29.93 20.54 3.7 1.6 10.76-21.17 6.94-23.34-2.61-1.47-19.64-6.12-21.25-7.84-3-3.17-11.23-24-17.69-34-3.6-5.65-8.61-6.27-8.06 1.79z" fill="#f7a9a0"/><path d="M201.67 206.07c2.42 1.38 16 8.07 19.54 8.83s14 2.21 14.88-.47-2.17-3.34-2.17-3.34 4.51-.09 5.13-2.86-4.11-3.66-4.11-3.66 4.62-.43 5-3.24-4.49-2.9-4.49-2.9 4.24-.2 3.62-2.66c-.76-3-8.54-1.72-12.42-2.86-.88-.26-17.5-6.51-17.5-6.51z" fill="#f7a9a0"/><path d="M235.91 198.44c-5.73.9-8.39.3-13.62-2-.11 0-.2.1-.09.16 4.93 2.68 8.15 3.91 13.77 2.08.27-.05.21-.28-.06-.24zm-.52 6.05c-6 .41-8.92-.21-14.58-2.18-.08 0-.14.11-.06.14 5.39 2.4 8.64 3.55 14.61 2.35.27-.06.31-.33.03-.31zm-1.75 6.51c-5.87 0-9.06-.57-14.32-3.18a.11.11 0 00-.1.19c5.09 3.18 9.08 3.89 14.4 3.17.38-.07.38-.18.02-.18z" fill="#263238"/><path d="M207.45 183.35s6.86-2.39 10.11-2.77 15.86 2.65 15.36 5.41c-.65 3.56-8.27 3.25-12 2.61 0 0-1.48 8.25-7 9.21s-6.47-14.46-6.47-14.46z" fill="#f7a9a0"/><path d="M232.42 186.91c-2.93 2.83-7.76 1.67-11.41 1.32a.33.33 0 00-.37.4c-.86 3.42-3 8-6.53 9.31a.08.08 0 000 .16c3.92-.91 6.44-5.22 7.14-9 3.74.42 8.62 1.36 11.15-2.14.06-.04.04-.07.02-.05z" fill="#263238"/><path d="M208.5 179.06l-11 26.22s-19.54-11-22.4-17-10-34-9.95-43.34 4.94-8.32 9.41-1.67 18 29.69 18.46 30.08 15.48 5.71 15.48 5.71z" fill="#00e77f"/><path d="M198.34 189.89c.88-1.9 1.72-3.82 2.56-5.74.4-.92.81-1.84 1.18-2.77s.9-2 1.22-3a.06.06 0 00-.1-.05c-.57.92-1 1.94-1.52 2.9s-.9 1.79-1.34 2.7c-.92 1.88-1.84 3.76-2.72 5.66-1.75 3.81-3.39 7.65-5 11.53a.08.08 0 10.14.07c1.94-3.77 3.81-7.5 5.58-11.3z" fill="#263238"/><path d="M184.53 197.09c-4.29-3-8.29-6.34-9.47-8.79-2.87-6-10-34-9.95-43.34 0-4.58 1.22-6.66 2.94-6.83 2.14 6.92 11.95 41.2 16.48 58.96z" opacity=".1"/><path d="M167.49 145.76c-2.88.13-8-4.21-9.22-8.53a63.33 63.33 0 012.06-6.28c.66-2 1.35-4.27 1.84-6.37.09-.44 12.46 6.23 12.46 6.23a34.57 34.57 0 00-3.13 7.79 5.72 5.72 0 00-.11.88.76.76 0 010 .15c-.12 1.7-.82 5.99-3.9 6.13z" fill="#f7a9a0"/><path d="M171.4 139.48v.15a9.42 9.42 0 01-1.37-.24c-7.73-1.95-7.55-12.15-7.38-14.7 2.27.87 12 6.12 12 6.12a34.57 34.57 0 00-3.13 7.79 4.66 4.66 0 00-.12.88z" fill="#263238"/><path d="M159.88 110.67c-1 4.91 2.73 18.5 6.41 21.28 5.33 4 13.44 3.73 16.7-2.54 3.17-6.07-2-23.7-6.09-26.16-5.97-3.62-15.49.16-17.02 7.42z" fill="#f7a9a0"/><path d="M174.1 117.73s-.06.07 0 .1c.28.91.44 2-.3 2.53.94-.36.71-1.81.3-2.63z" fill="#263238"/><path d="M173 117c-1.5.29-.82 3.28.58 3s.7-3.24-.58-3zm6.49-.35s.09 0 .09.07c.19.93.55 2 1.46 2.08v.06c-1.04.14-1.52-1.29-1.55-2.21z" fill="#263238"/><path d="M180.1 115.5c1.46-.46 2.26 2.5.91 2.92s-2.14-2.54-.91-2.92zm-8.57.4a11.79 11.79 0 001.06-.67c.41-.26.76-.43 1-.89a.67.67 0 00-.28-.75 1.62 1.62 0 00-1.62.21 2.35 2.35 0 00-1.1 1.3.69.69 0 00.94.8zm9.38-2.17h-1.26a2 2 0 01-1.28-.28.65.65 0 01-.14-.78 1.6 1.6 0 011.49-.65 2.35 2.35 0 011.61.56.69.69 0 01-.42 1.15zm-5.69 12.79c.27.17.56.42.9.37a2.38 2.38 0 00.94-.47h.06a1.31 1.31 0 01-1.06.78 1 1 0 01-.92-.66s.04-.04.08-.02z" fill="#263238"/><path d="M175.55 123.53a3.27 3.27 0 002.43.92 4.49 4.49 0 001.15-.21l.21-.08a1 1 0 00.19-.08.22.22 0 00.14-.25.94.94 0 000-.09v-.08c-.15-.72-.47-1.79-.47-1.79.29.07 1.76.37 1.65 0a48.59 48.59 0 00-3.41-9.26.09.09 0 00-.17.06c.75 3 2 5.76 2.8 8.72a6 6 0 00-1.6-.11c-.09 0 .66 2 .7 2.38a4.52 4.52 0 01-3.5-.27c-.13 0-.19.08-.12.14z" fill="#263238"/><path d="M178.62 124a3.8 3.8 0 01-1.23 1.51 1.79 1.79 0 01-1 .3c-.79 0-1-.7-1-1.31a4 4 0 01.13-1 5 5 0 003.1.5z" fill="#263238"/><path d="M177.39 125.48a1.79 1.79 0 01-1 .3c-.79 0-1-.7-1-1.31a1.76 1.76 0 012 1.01z" fill="#ff99ba"/><path d="M162 123.82s-5.91-7.78-5.94-12.64c0-2.19 2.79-4 2.79-4a4.92 4.92 0 011-5.1c2.31-2.68 8.58-2.8 8.58-2.8s3.42-6.24 9.37-4.53 2.91 8.56 2.91 8.56 2.4 2.75-2.47 5.61-15.14 1.63-15.14 1.63a35.57 35.57 0 01.95 10.55 3.26 3.26 0 01-2.05 2.72z" fill="#263238"/><path d="M169.48 99.3a9.91 9.91 0 00-4.09-.31 10.61 10.61 0 00-3.55.94 6 6 0 00-3.75 4.94 4.19 4.19 0 001.13 3.08s.08 0 0-.06c-1.49-1.49-1.06-4.1.16-5.61a9.08 9.08 0 015.78-2.86 17.77 17.77 0 014.25 0 .06.06 0 00.07-.12zm12.73-2.19a4.88 4.88 0 00-3.7-2.76 8.42 8.42 0 00-5.38.76 10.53 10.53 0 00-4.07 3.74s0 .07.06 0a9.27 9.27 0 018.47-4.2 5.09 5.09 0 013.91 2.11 5 5 0 01.32 4.25 9.41 9.41 0 01-3.28 4.06v.05a9.77 9.77 0 003.32-3.5 5.47 5.47 0 00.35-4.51zm-2.65 11.99a17.22 17.22 0 01-7 2 35 35 0 01-7.66-.24c-1.48-.19-3-.44-4.41-.72v.07a38.52 38.52 0 008 1.57 19.31 19.31 0 007.44-.85 16.25 16.25 0 003.74-1.78l-.11-.05z" fill="#263238"/><path d="M164.4 121.77s-3.61-4.12-5.51-2.78 1.15 7.54 3.62 8.16a2.43 2.43 0 003.1-1.65z" fill="#f7a9a0"/><path d="M159.81 120.74v.07a6.15 6.15 0 013.58 3.47 1.35 1.35 0 00-2-.14s0 .1.06.08a1.5 1.5 0 011.69.34 7 7 0 01.93 1.24c.09.14.35 0 .28-.14-.26-2.16-2.24-4.95-4.54-4.92z" fill="#263238"/><path fill="#37474f" d="M254.111 220.68l-86.162-52.449 34.693-56.991 86.161 52.449z"/><path d="M202.47 128.19a7.9 7.9 0 108.52-2.07 7.91 7.91 0 00-8.52 2.07z" fill="#fff"/><path fill="#263238" d="M211.83 178.09l49.77 30.3-6.21-45.82-43.56 15.52z"/><path fill="#455a64" d="M187.31 163.2l44.14 26.87-9.91-33.41-34.23 6.54z"/><path fill="#455a64" d="M175.46 155.937l86.161 52.449-7.477 12.283-86.162-52.449z"/><path d="M112.55 200.87l57.16 14.29c-.28 1.12 8-45.57-.1-76.28-.55-2.09-9-6.32-13.91-3.65-21.35 11.66-43.33 66.37-43.15 65.64z" fill="#00e77f"/><path d="M165 150.74c10.59 12 31.45 33.58 42.84 32.86 12.07-.77 26.08-15.91 32.3-20.85 2.64-2.1-16-18.19-19.26-16.69s-12.37 11.64-15 12.28-21.27-11.86-33.88-18.07c-14.74-7.27-15.64.73-7 10.47z" fill="#f7a9a0"/><path d="M240.08 122.14a4 4 0 012.63 3.67 5.87 5.87 0 014 .37c2.14 1.13 1.3 5 1.3 5a7.16 7.16 0 014.13 1.06c1.94 1.29 1.65 5.29 1.65 5.29a6.35 6.35 0 013 3.22c1.44 3.81-2.33 8.77-4.7 12s-12.05 10-13.76 11.44l-21.13-15.36s3.88-13.44 10.52-20.32c2.75-2.84 9.4-7.29 12.36-6.37z" fill="#f7a9a0"/><path d="M242.28 125.71c-3.68 2.28-6.49 5.52-9.48 8.6-.07.07 0 .17.1.1 2.94-3.1 6.45-5.57 9.51-8.54a.1.1 0 00-.13-.16zm5.39 5.29a11.43 11.43 0 00-2.09 2.08c-.69.78-1.37 1.58-2 2.39a122.03 122.03 0 00-3.87 4.95c-.06.08 0 .18.11.11 1.33-1.61 2.68-3.21 4.07-4.76.7-.78 1.41-1.55 2.12-2.31a14.05 14.05 0 001.9-2.26.15.15 0 00-.24-.2zm6.04 6.58a7.8 7.8 0 00-1.78 2c-.59.75-1.19 1.5-1.79 2.24-1.2 1.49-2.4 3-3.64 4.42-.07.07 0 .17.1.1 1.28-1.46 2.58-2.9 3.84-4.38.62-.72 1.24-1.45 1.85-2.18a7.3 7.3 0 001.5-2.12.05.05 0 00-.08-.08z" fill="#263238"/><path d="M216 148.9l19.49 22.1s-19.34 16.16-31.49 13.56-33.65-24.91-41.16-35.42-3.09-15.6 8.66-9.67 32.76 17.67 33.55 17.85S216 148.9 216 148.9z" fill="#00e77f"/><path d="M220.58 163.2c-1.33-1.61-2.71-3.19-4.08-4.76-.66-.76-1.32-1.53-2-2.26s-1.43-1.67-2.22-2.41a.06.06 0 00-.09.08c.58.91 1.32 1.74 2 2.61s1.24 1.58 1.87 2.37c1.3 1.63 2.61 3.27 3.95 4.87 2.69 3.22 5.47 6.35 8.29 9.45a.08.08 0 00.12-.1c-2.58-3.33-5.16-6.62-7.84-9.85zm.24 17.46a33.28 33.28 0 01-7.8 3.47 21.59 21.59 0 01-8.54.79 13.88 13.88 0 01-4.15-1.27 40.64 40.64 0 01-3.79-2.05 81.7 81.7 0 01-7-4.87 142.4 142.4 0 01-12.83-11.32q-3-3-5.88-6.22a113.67 113.67 0 01-5.37-6.64c1.79 2.21 3.69 4.33 5.65 6.39s3.94 4.09 6 6.05a155 155 0 0012.88 11.15 83.58 83.58 0 007 4.88 38.08 38.08 0 003.7 2 14.16 14.16 0 004 1.3 21.36 21.36 0 008.37-.58 33.27 33.27 0 007.76-3.08z" fill="#263238"/><path d="M166.11 155c1 .75 2 1.42 3.06 2.13a6.45 6.45 0 01-1.68-.84 6 6 0 01-1.38-1.29z" fill="#263238"/></svg>