<svg xmlns="http://www.w3.org/2000/svg" viewBox="0 0 500 500"><path fill="#263238" d="M45.75 439.07l51.07-.24 51.06-.09 102.12-.16 102.12.16 51.07.09 51.06.24-51.06.25-51.07.09-102.12.16-102.12-.16-51.06-.09-51.07-.25zm356.11-94.61c15.62 15.29 18.24 39 14.95 59.68-.09.47-.81.34-.81-.1 0-4.72.14-9.4.13-14.06-.09-.21-.16-.41-.25-.63-4.07-3-7.82-6.31-10.14-10.9-2.61-5.13-3.64-10.92-5.63-16.28-.19-.51.36-.36.72-.09 9.5 7 12.53 14.55 15.25 24.62a83.61 83.61 0 00-1.65-15.7c-2.05-9.56-6.12-19-13-26.14-.24-.26.16-.67.43-.4z"/><path d="M398.92 346.24c-2.69.09-4.37 4.39-6.46 5.64a2 2 0 01-3-.47c-2.08-2.89.77-6.47 3.45-8.47-1.92.79-3.5 2.18-5.57 2.57a1.94 1.94 0 01-2.51-1.51c-.91-3.95 4-5.7 7.44-5.79-1.65-1.14-6.37-4.26-3.86-5.79s8.08 2.92 9.89 4.38c2.66 2.16 5.82 5.38 5.94 8.75.19 3.94-3.24 1.52-5.32.69z" fill="#00e77f"/><path d="M398.92 346.24c-2.69.09-4.37 4.39-6.46 5.64a2 2 0 01-3-.47c-2.08-2.89.77-6.47 3.45-8.47-1.92.79-3.5 2.18-5.57 2.57a1.94 1.94 0 01-2.51-1.51c-.91-3.95 4-5.7 7.44-5.79-1.65-1.14-6.37-4.26-3.86-5.79s8.08 2.92 9.89 4.38c2.66 2.16 5.82 5.38 5.94 8.75.19 3.94-3.24 1.52-5.32.69z" opacity=".1"/><path d="M399.7 346.9c-3.44-1.56-10 .69-10.6-.61-1.14-2.65 4.14-4.46 7-4.82-2.63-.71-7.65-1.84-7.5-4.37.19-3.08 7.71-.43 11.52 2.49 4.79 3.67 4.76 7.22 4 7.93-1.12.98-3.85-.36-4.42-.62z" fill="#00e77f"/><path d="M437.43 342.94c-16.19 14.69-19.71 38.24-17.21 59.07.07.47.8.37.82-.07.18-4.71.21-9.39.41-14.05l.26-.62c4.19-2.8 8.06-6 10.56-10.51 2.8-5 4.05-10.77 6.24-16.05.21-.5-.34-.37-.71-.12-9.76 6.64-13.08 14.06-16.19 24a84.41 84.41 0 012.25-15.59c2.42-9.48 6.84-18.8 14-25.63a.29.29 0 00-.43-.43z" fill="#263238"/><path d="M440.3 344.84c2.68.19 4.2 4.55 6.25 5.88a2 2 0 003-.35c2.18-2.82-.53-6.5-3.13-8.6 1.89.86 3.42 2.3 5.47 2.77a1.94 1.94 0 002.57-1.4c1.06-3.92-3.82-5.86-7.22-6.07 1.69-1.08 6.53-4 4.08-5.64s-8.19 2.6-10.05 4c-2.74 2.05-6 5.15-6.27 8.52-.33 3.92 3.2 1.63 5.3.89z" fill="#00e77f"/><path d="M440.3 344.84c2.68.19 4.2 4.55 6.25 5.88a2 2 0 003-.35c2.18-2.82-.53-6.5-3.13-8.6 1.89.86 3.42 2.3 5.47 2.77a1.94 1.94 0 002.57-1.4c1.06-3.92-3.82-5.86-7.22-6.07 1.69-1.08 6.53-4 4.08-5.64s-8.19 2.6-10.05 4c-2.74 2.05-6 5.15-6.27 8.52-.33 3.92 3.2 1.63 5.3.89z" opacity=".1"/><path d="M439.5 345.47c3.49-1.43 10 1.07 10.61-.21 1.24-2.6-4-4.62-6.79-5.08 2.64-.61 7.71-1.55 7.65-4.08-.07-3.09-7.69-.73-11.6 2-4.93 3.5-5 7-4.27 7.78 1.05 1.06 3.82-.17 4.4-.41z" fill="#00e77f"/><path d="M420.88 381.74a159.81 159.81 0 01-5 23.22.58.58 0 01-1.13-.23c1.06-7.15 3-14.18 4.06-21.34a107.77 107.77 0 001.25-21.9c-.68-12.06-4-24.89-11.83-34.33-.17-.22.19-.54.37-.33 15.76 18.37 13.25 40.89 13.24 42.91 2.23-7.6 4.53-16.32 13-24.07.37-.33.65-.17.59.4-1.51 14.1-5.43 21.47-13.61 29-.3 2.24-.59 4.47-.94 6.67z" fill="#263238"/><path d="M408.06 329.27c-2.84-1.26-6.75 2.35-9.55 2.6a2.33 2.33 0 01-2.84-2c-.7-4.05 4.06-6.32 7.84-7.05-2.38-.15-4.73.49-7.07-.14a2.24 2.24 0 01-1.85-2.83c1.05-4.55 7.07-3.88 10.64-2.26-1.13-2-4.47-7.62-1.09-7.95s6.92 7.09 8.05 9.52c1.68 3.58 3.34 8.51 1.77 12.07-1.82 4.18-4.17-.06-5.9-1.96z" fill="#00e77f"/><path d="M408.06 329.27c-2.84-1.26-6.75 2.35-9.55 2.6a2.33 2.33 0 01-2.84-2c-.7-4.05 4.06-6.32 7.84-7.05-2.38-.15-4.73.49-7.07-.14a2.24 2.24 0 01-1.85-2.83c1.05-4.55 7.07-3.88 10.64-2.26-1.13-2-4.47-7.62-1.09-7.95s6.92 7.09 8.05 9.52c1.68 3.58 3.34 8.51 1.77 12.07-1.82 4.18-4.17-.06-5.9-1.96z" opacity=".1"/><path d="M408.53 330.35c-2.78-3.35-10.76-4.34-10.69-6 .16-3.32 6.54-2.55 9.67-1.48-2.36-2.06-7-5.76-5.57-8.31 1.75-3.11 8.21 3.43 10.69 8.38 3.13 6.22 1.31 9.89.13 10.23-1.62.49-3.76-2.26-4.23-2.82zM431.24 386l6.95 53.09h-42.28c.87-4.7 8.74-53.15 8.74-53.15zm-2.03-246.42a10.07 10.07 0 009.79 10.06h15.29v141.17H296.68v-13.58a10.07 10.07 0 00-20.13 0v13.58h-68.13V45h245.83v84.5H439a10.07 10.07 0 00-9.79 10.08z" fill="#00e77f"/><path d="M421.05 214.6h5.65v2.83h-5.65v2.16h5.65v2.82h-5.65v2.17h5.65v2.82h-5.65v2.16h5.65v2.83h-5.65v2.16h5.65v2.83h-5.65v1.57h-25.92v-1.57h-5.65v-2.83h5.65v-2.16h-5.65v-2.83h5.65v-2.16h-5.65v-2.82h5.65v-2.17h-5.65v-2.82h5.65v-2.16h-5.65v-2.83h5.65v-1.57h25.92v1.57zm0-30.43v2.16h5.65v2.83h-5.65v2.16h5.65v2.83h-5.65v2.16h5.65v2.83h-5.65v2.16h5.65v2.82h-5.65v1.57h-25.92v-1.57h-5.65v-2.82h5.65v-2.16h-5.65v-2.83h5.65v-2.16h-5.65v-2.83h5.65v-2.16h-5.65v-2.83h5.65v-2.16h-5.65v-2.82h5.65v-1.57h25.92v1.57h5.65v2.82h-5.65zm-147.6 32.48v2.16h5.66v2.83h-5.66v2.16h5.66v2.83h-5.66v2.16h5.66v2.82h-5.66v2.17h5.66v2.82h-5.66v2.16h5.66v2.83h-5.66v2.16h5.66v2.83h-5.66v2.16h5.66v2.83h-5.66v2.16h5.66v2.82h-5.66v2.13H250v-2.13h-5.65v-2.82H250v-2.16h-5.65v-2.83H250v-2.16h-5.65v-2.83H250v-2.16h-5.65v-2.83H250v-2.16h-5.65v-2.82H250v-2.17h-5.65v-2.82H250v-2.16h-5.65v-2.83H250v-2.16h-5.65v-2.83H250v-2.16h-5.65v-2.83H250v-2.13h8.59a3.16 3.16 0 006.32 0h8.58v2.13h5.66v2.83zm147.6-130.11v2.16h5.65v2.82h-5.65v2.17h5.65v2.82h-5.65v2.16h5.65v2.83h-5.65v2.16h5.65v2.83h-5.65v1.57h-25.92v-1.57h-5.65v-2.83h5.65v-2.16h-5.65v-2.83h5.65v-2.16h-5.65v-2.82h5.65v-2.17h-5.65V88.7h5.65v-2.16h-5.65v-2.83h5.65v-1.57h25.92v1.57h5.65v2.83h-5.65zm-78.22 6.97v2.16h5.65v2.83h-5.65v2.16h5.65v2.83h-5.65v2.16h5.65v2.83h-5.65v2.16h5.65v2.83h-5.65v2.16h5.65v2.82h-5.65v2.16h5.65v2.83h-5.65v2.16h5.65v2.83h-5.65v2.16h5.65v2.83h-5.65v2.16h5.65v2.83h-5.65v2.16h5.65v2.82h-5.65v2.17h5.65v2.82h-5.65v2.16h5.65v2.83h-5.65v2.16h5.65v2.83h-5.65v2.16h5.65v2.83h-5.65v2.16h5.65v2.82h-5.65v1.71h-1.71v5.65h-2.82v-5.65h-2.16v5.65h-2.83v-5.65h-2.16v5.65h-2.83v-5.65h-2.16v5.65h-2.83v-5.65h-2.16v5.65h-2.82v-5.65h-2.17v5.65h-2.82v-5.65h-2.16v5.65h-2.83v-5.65h-2.16v5.65h-2.83v-5.65h-2.16v5.65h-2.83v-5.65h-2.16v5.65h-2.82v-5.65h-2.17v5.65h-2.82v-5.65h-2.16v5.65h-2.83v-5.65h-2.16v5.65h-2.83v-5.65h-2.16v5.65h-2.83v-5.65h-2.16v5.65h-2.83v-5.65h-2.16v5.65h-2.82v-5.65h-1.71v-1.71h-5.65v-2.82h5.65v-2.16h-5.65v-2.83h5.65v-2.16h-5.65v-2.83h5.65v-2.16h-5.65v-2.83h5.65v-2.16h-5.65v-2.82h5.65v-2.17h-5.65v-2.82h5.65v-2.16h-5.65v-2.83h5.65v-2.16h-5.65v-2.83h5.65v-2.16h-5.65v-2.83h5.65v-2.16h-5.65v-2.83h5.65v-2.16h-5.65v-2.82h5.65v-2.16h-5.65v-2.83h5.65v-2.16h-5.65v-2.83h5.65v-2.16h-5.65v-2.83h5.65V98.5h-5.65v-2.83h5.65v-2.16h-5.65v-2.82h5.65v-1.71h1.71v-5.65h2.82v5.65h2.16v-5.65h2.83v5.65h2.16v-5.65h2.83v5.65h2.16v-5.65h2.83v5.65h2.16v-5.65h2.83v5.65h2.16v-5.65h2.82v5.65h2.17v-5.65h2.82v5.65h2.16v-5.65h2.83v5.65h2.16v-5.65h2.83v5.65h2.16v-5.65h2.83v5.65h2.16v-5.65h2.82v5.65h2.17v-5.65h2.82v5.65h2.16v-5.65h2.83v5.65h2.16v-5.65h2.83v5.65h2.16v-5.65h2.83v5.65h2.16v-5.65h2.82v5.65h1.71v1.71h5.65v2.82h-5.65z" opacity=".1"/><path fill="#37474f" d="M260.77 87.98h81.06v81.06h-81.06z"/><path fill="#ebebeb" d="M262.47 169.04h2.83v5.65h-2.83zm4.99 0h2.83v5.65h-2.83zm4.99 0h2.83v5.65h-2.83zm4.99 0h2.83v5.65h-2.83zm4.99 0h2.83v5.65h-2.83zm4.98 0h2.83v5.65h-2.83zm4.99 0h2.83v5.65h-2.83zm4.99 0h2.83v5.65h-2.83zm4.99 0h2.83v5.65h-2.83zm4.99 0h2.83v5.65h-2.83zm4.98 0h2.83v5.65h-2.83zm4.99 0h2.83v5.65h-2.83zm4.99 0h2.83v5.65h-2.83zm4.99 0h2.83v5.65h-2.83zm4.99 0h2.83v5.65h-2.83zm4.98 0h2.83v5.65h-2.83zm-76.52-79.35v2.83h-5.65v-2.83zm0 4.99v2.83h-5.65v-2.83zm0 4.98v2.83h-5.65v-2.83zm0 4.99v2.83h-5.65v-2.83zm-.01 4.99v2.83h-5.65v-2.83zm.01 4.99v2.83h-5.65v-2.83zm0 4.99v2.83h-5.65v-2.83zm0 4.98v2.83h-5.65v-2.83zm0 4.99v2.83h-5.65v-2.83zm-.01 4.99v2.83h-5.65v-2.83zm.01 4.99v2.83h-5.65v-2.83zm0 4.99v2.83h-5.65v-2.83zm0 4.99v2.83h-5.65v-2.83zm0 4.98v2.83h-5.65v-2.83zm-.01 4.99v2.83h-5.65v-2.83zm.01 4.99v2.83h-5.65v-2.83zm79.36-76.53h-2.83v-5.65h2.83zm-5 0h-2.83v-5.65h2.83zm-4.99 0h-2.83v-5.65h2.83zm-4.98 0h-2.83v-5.65h2.83zm-4.99 0h-2.83v-5.65h2.83zm-4.99 0h-2.83v-5.65h2.83zm-4.99 0h-2.83v-5.65h2.83zm-4.99 0h-2.83v-5.65h2.83zm-4.98 0h-2.83v-5.65h2.83zm-4.99 0h-2.83v-5.65h2.83zm-4.99 0h-2.83v-5.65h2.83zm-4.99 0h-2.83v-5.65h2.83zm-4.99 0h-2.83v-5.65h2.83zm-4.99 0h-2.83v-5.65h2.83zm-4.98 0h-2.83v-5.65h2.83zm-4.99 0h-2.83v-5.65h2.83zm76.52 79.35v-2.83h5.65v2.83zm.01-4.99v-2.83h5.65v2.83zm0-4.98v-2.83h5.65v2.83zm0-4.99v-2.83h5.65v2.83zm-.01-4.99v-2.83h5.65v2.83zm0-4.99v-2.83h5.65v2.83zm.01-4.99v-2.83h5.65v2.83zm0-4.98v-2.83h5.65v2.83zm0-4.99v-2.83h5.65v2.83zm-.01-4.99v-2.83h5.65v2.83zm0-4.99v-2.83h5.65v2.83zm.01-4.99v-2.83h5.65v2.83zm0-4.98v-2.83h5.65v2.83zm0-4.99v-2.83h5.65v2.83zm-.01-4.99v-2.83h5.65v2.83zm0-4.99v-2.83h5.65v2.83z"/><path d="M269.52 94.67a2.83 2.83 0 11-2.83-2.82 2.83 2.83 0 012.83 2.82z" fill="#263238"/><path fill="#fff" d="M353.17 91.6h-5.69v-1h5.28l12.34-12.35.71.71-12.64 12.64z"/><path fill="#fff" d="M354.25 96.59h-6.77v-1h6.36l17.45-17.45.7.71-17.74 17.74zm2.43 69.83h-9.2v-1h8.78l7.67-7.66h35.23v1h-34.82l-7.66 7.66z"/><path fill="#fff" d="M353.59 161.43h-6.11v-1h5.69l11.74-11.73h34.25v1h-33.84l-11.73 11.73z"/><path fill="#00e77f" d="M399.16 155.12h13.95v6.28h-13.95z"/><path opacity=".2" d="M399.16 155.12h13.95v6.28h-13.95z"/><path opacity=".2" d="M399.16 155.12h2.94v6.28h-2.94zm11.01 0h2.94v6.28h-2.94z"/><path fill="#00e77f" d="M399.16 146.06h13.95v6.28h-13.95z"/><path opacity=".2" d="M399.16 146.06h13.95v6.28h-13.95z"/><path opacity=".2" d="M399.16 146.06h2.94v6.28h-2.94zm11.01 0h2.94v6.28h-2.94z"/><path fill="#00e77f" d="M228.36 101.51v20.18h-6.28v-20.18z"/><path opacity=".2" d="M228.36 101.51v20.18h-6.28v-20.18z"/><path opacity=".2" d="M228.37 101.5v4.26h-6.28v-4.26zm0 15.93v4.26h-6.28v-4.26z"/><path fill="#00e77f" d="M228.36 147.02v20.18h-6.28v-20.18z"/><path opacity=".2" d="M228.36 147.02v20.18h-6.28v-20.18z"/><path opacity=".2" d="M228.37 147.01v4.26h-6.28v-4.26zm0 15.93v4.26h-6.28v-4.26z"/><path fill="#00e77f" d="M399.16 137.01h13.95v6.28h-13.95z"/><path opacity=".2" d="M399.16 137.01h13.95v6.28h-13.95z"/><path opacity=".2" d="M399.16 137.01h2.94v6.28h-2.94zm11.01 0h2.94v6.28h-2.94z"/><path fill="#00e77f" d="M399.16 127.95h13.95v6.28h-13.95z"/><path opacity=".2" d="M399.16 127.95h13.95v6.28h-13.95z"/><path opacity=".2" d="M399.16 127.95h2.94v6.28h-2.94zm11.01 0h2.94v6.28h-2.94z"/><path fill="#00e77f" d="M399.16 118.89h13.95v6.28h-13.95z"/><path opacity=".2" d="M399.16 118.89h13.95v6.28h-13.95z"/><path opacity=".2" d="M399.16 118.89h2.94v6.28h-2.94zm11.01 0h2.94v6.28h-2.94z"/><path d="M272.45 210.69v47H249v-47h8.59a3.16 3.16 0 006.32 0z" fill="#37474f"/><path fill="#ebebeb" d="M248.96 212.82v2.83h-5.65v-2.83zm0 4.99v2.83h-5.65v-2.83zm0 4.99v2.83h-5.65v-2.83zm0 4.99v2.83h-5.65v-2.83zm0 4.99v2.83h-5.65v-2.83zm0 4.98v2.83h-5.65v-2.83zm0 4.99v2.83h-5.65v-2.83zm0 4.99v2.83h-5.65v-2.83zm0 4.99v2.83h-5.65v-2.83zm29.14-39.91v2.83h-5.65v-2.83zm0 4.99v2.83h-5.65v-2.83zm0 4.99v2.83h-5.65v-2.83zm.01 4.98v2.83h-5.65v-2.83zm0 4.99v2.83h-5.65v-2.83zm-.01 4.99v2.83h-5.65v-2.83zm0 4.99v2.83h-5.65v-2.83zm0 4.99v2.83h-5.65v-2.83zm.01 4.98v2.83h-5.65v-2.83z"/><path fill="#37474f" d="M394.13 178.78h25.92v25.92h-25.92z"/><path fill="#ebebeb" d="M420.04 203.12v-2.83h5.65v2.83zm.01-4.98v-2.83h5.65v2.83zm0-4.99v-2.83h5.65v2.83zm0-4.99v-2.83h5.65v2.83zm-.01-4.99v-2.83h5.65v2.83zm-31.57 19.95v-2.83h5.65v2.83zm.01-4.99v-2.83h5.65v2.83zm0-4.98v-2.83h5.65v2.83zm-.01-4.99v-2.83h5.65v2.83zm0-4.99v-2.83h5.65v2.83z"/><path fill="#37474f" d="M394.13 81.14h25.92v25.92h-25.92z"/><path fill="#ebebeb" d="M420.05 105.49v-2.83h5.65v2.83zm-.01-4.99v-2.83h5.65v2.83zm0-4.99v-2.83h5.65v2.83zm0-4.99v-2.83h5.65v2.83zm.01-4.98v-2.83h5.65v2.83zm-31.58 19.95v-2.83h5.65v2.83zm0-4.99v-2.83h5.65v2.83zm0-4.99v-2.83h5.65v2.83zm0-4.99v-2.83h5.65v2.83zm.01-4.99V82.7h5.65v2.83z"/><path fill="#37474f" d="M394.13 212.03h25.92v25.92h-25.92z"/><path fill="#ebebeb" d="M420.05 236.38v-2.83h5.65v2.83zm0-4.99v-2.83h5.65v2.83zm-.01-4.99v-2.83h5.65v2.83zm0-4.99v-2.83h5.65v2.83zm.01-4.99v-2.83h5.65v2.83zm-31.57 19.96v-2.83h5.65v2.83zm-.01-4.99v-2.83h5.65v2.83zm0-4.99v-2.83h5.65v2.83zm0-4.99v-2.83h5.65v2.83zm.01-4.99v-2.83h5.65v2.83z"/><path fill="#fff" d="M350.37 156.33h-2.89v-1h2.48l15.68-15.69h33.52v1h-33.1l-15.69 15.69zm4.67-24.55h-7.56v-1h7.15l9.24-9.25h35.29v1h-34.87l-9.25 9.25zm.98 10.03h-8.54v-1h8.13l10.03-10.03h33.52v1h-33.1l-10.04 10.03zm10.29-62.47a1.88 1.88 0 111.87-1.87 1.87 1.87 0 01-1.87 1.87zm0-2.75a.88.88 0 10.87.88.87.87 0 00-.87-.88zm6.18 2.84a1.87 1.87 0 111.87-1.87 1.87 1.87 0 01-1.87 1.87zm0-2.74a.87.87 0 10.87.87.87.87 0 00-.87-.87zM438.81 101a1.87 1.87 0 111.87-1.87 1.87 1.87 0 01-1.87 1.87zm0-2.74a.87.87 0 10.87.87.87.87 0 00-.87-.91zm0-11.39a1.88 1.88 0 111.87-1.87 1.87 1.87 0 01-1.87 1.87zm0-2.75a.88.88 0 10.87.88.88.88 0 00-.87-.88zm10.31-7.53a1.87 1.87 0 111.88-1.87 1.88 1.88 0 01-1.88 1.87zm0-2.74a.87.87 0 10.87.87.88.88 0 00-.87-.87zM241.54 162.8a1.87 1.87 0 111.87-1.87 1.87 1.87 0 01-1.87 1.87zm0-2.74a.87.87 0 10.87.87.87.87 0 00-.87-.87zm0 13.22a1.87 1.87 0 111.87-1.87 1.87 1.87 0 01-1.87 1.87zm0-2.74a.87.87 0 10.87.87.87.87 0 00-.87-.87zm30.91 30.92a1.87 1.87 0 111.87-1.87 1.87 1.87 0 01-1.87 1.87zm0-2.74a.87.87 0 10.87.87.87.87 0 00-.87-.87zm9.27 2.74a1.87 1.87 0 111.87-1.87 1.87 1.87 0 01-1.87 1.87zm0-2.74a.87.87 0 10.87.87.87.87 0 00-.87-.87zM296 210a1.87 1.87 0 111.87-1.87A1.87 1.87 0 01296 210zm0-2.74a.87.87 0 10.87.87.87.87 0 00-.87-.86zm7.25 2.74a1.87 1.87 0 111.87-1.87 1.87 1.87 0 01-1.87 1.87zm0-2.74a.87.87 0 10.87.87.87.87 0 00-.87-.86zm7.23 2.74a1.87 1.87 0 111.88-1.87 1.87 1.87 0 01-1.88 1.87zm0-2.74a.87.87 0 10.88.87.87.87 0 00-.88-.86zm58.27 26a1.87 1.87 0 111.87-1.87 1.87 1.87 0 01-1.87 1.87zm0-2.74a.87.87 0 10.87.87.87.87 0 00-.87-.87zm-5.96 8.14a1.88 1.88 0 111.88-1.87 1.87 1.87 0 01-1.88 1.87zm0-2.75a.88.88 0 10.88.88.88.88 0 00-.88-.88zM230 216.11a1.88 1.88 0 111.87-1.87 1.87 1.87 0 01-1.87 1.87zm0-2.75a.88.88 0 10.87.88.88.88 0 00-.87-.88zm0 27.69a1.87 1.87 0 111.87-1.87 1.87 1.87 0 01-1.87 1.87zm0-2.74a.87.87 0 10.87.87.87.87 0 00-.87-.87zm-5.14 24.09a1.87 1.87 0 111.87-1.87 1.87 1.87 0 01-1.87 1.87zm0-2.74a.87.87 0 10.87.87.87.87 0 00-.87-.87zm7.29 2.74a1.87 1.87 0 111.87-1.87 1.87 1.87 0 01-1.87 1.87zm0-2.74a.87.87 0 10.87.87.87.87 0 00-.87-.87zM440 213.4a1.87 1.87 0 111.87-1.87 1.88 1.88 0 01-1.87 1.87zm0-2.74a.87.87 0 10.87.87.88.88 0 00-.87-.87zm-86.37 68.56h-39.72l-24.58-24.58H278.1v-1h11.64l24.58 24.58h39.31v1z"/><path d="M357 282.6a3.88 3.88 0 113.88-3.88 3.88 3.88 0 01-3.88 3.88zm0-5.76a1.88 1.88 0 101.88 1.88 1.88 1.88 0 00-1.88-1.88zm0-3.64a3.89 3.89 0 113.88-3.89 3.89 3.89 0 01-3.88 3.89zm0-5.77a1.89 1.89 0 101.88 1.88 1.88 1.88 0 00-1.88-1.88zm0-3.64a3.89 3.89 0 113.88-3.88 3.88 3.88 0 01-3.88 3.88zm0-5.77a1.89 1.89 0 101.88 1.89A1.89 1.89 0 00357 258zm9.29 24.58a3.88 3.88 0 113.88-3.88 3.88 3.88 0 01-3.88 3.88zm0-5.76a1.88 1.88 0 101.88 1.88 1.88 1.88 0 00-1.88-1.88zm0-3.64a3.89 3.89 0 113.88-3.89 3.89 3.89 0 01-3.88 3.89zm0-5.77a1.89 1.89 0 101.88 1.88 1.88 1.88 0 00-1.88-1.88zm0-3.64a3.89 3.89 0 113.88-3.88 3.88 3.88 0 01-3.88 3.88zm0-5.77a1.89 1.89 0 101.88 1.89 1.89 1.89 0 00-1.88-1.91zm9.25 24.58a3.88 3.88 0 113.88-3.88 3.89 3.89 0 01-3.88 3.88zm0-5.76a1.88 1.88 0 101.88 1.88 1.89 1.89 0 00-1.88-1.88zm0-3.64a3.89 3.89 0 113.88-3.89 3.89 3.89 0 01-3.88 3.89zm0-5.77a1.89 1.89 0 101.88 1.88 1.89 1.89 0 00-1.88-1.88zm0-3.64a3.89 3.89 0 113.88-3.88 3.89 3.89 0 01-3.88 3.88zm0-5.77a1.89 1.89 0 101.88 1.89 1.89 1.89 0 00-1.88-1.91zm9.24 24.58a3.88 3.88 0 113.89-3.88 3.88 3.88 0 01-3.89 3.88zm0-5.76a1.88 1.88 0 101.89 1.88 1.88 1.88 0 00-1.89-1.88zm0-3.64a3.89 3.89 0 113.89-3.89 3.89 3.89 0 01-3.89 3.89zm0-5.77a1.89 1.89 0 101.89 1.88 1.89 1.89 0 00-1.89-1.88zm0-3.64a3.89 3.89 0 113.89-3.88 3.88 3.88 0 01-3.89 3.88zm0-5.77a1.89 1.89 0 101.89 1.89 1.89 1.89 0 00-1.89-1.91zM394 282.6a3.88 3.88 0 113.88-3.88 3.88 3.88 0 01-3.88 3.88zm0-5.76a1.88 1.88 0 101.88 1.88 1.88 1.88 0 00-1.88-1.88zm0-3.64a3.89 3.89 0 113.88-3.89 3.89 3.89 0 01-3.88 3.89zm0-5.77a1.89 1.89 0 101.88 1.88 1.88 1.88 0 00-1.88-1.88zm0-3.64a3.89 3.89 0 113.88-3.88 3.88 3.88 0 01-3.88 3.88zm0-5.77a1.89 1.89 0 101.88 1.89A1.89 1.89 0 00394 258zm9.28 24.58a3.88 3.88 0 113.88-3.88 3.88 3.88 0 01-3.88 3.88zm0-5.76a1.88 1.88 0 101.88 1.88 1.88 1.88 0 00-1.88-1.88zm0-3.64a3.89 3.89 0 113.88-3.89 3.89 3.89 0 01-3.88 3.89zm0-5.77a1.89 1.89 0 101.88 1.88 1.88 1.88 0 00-1.88-1.88zm-79.47-199.7a3.89 3.89 0 113.89-3.88 3.88 3.88 0 01-3.89 3.88zm0-5.77a1.89 1.89 0 101.89 1.89 1.89 1.89 0 00-1.89-1.85zm0-3.64a3.88 3.88 0 113.89-3.88 3.88 3.88 0 01-3.89 3.88zm0-5.76a1.88 1.88 0 101.89 1.88 1.88 1.88 0 00-1.89-1.88zm9.25 15.17a3.89 3.89 0 113.94-3.88 3.88 3.88 0 01-3.94 3.88zm0-5.77a1.89 1.89 0 101.94 1.89 1.89 1.89 0 00-1.94-1.85zm0-3.64a3.88 3.88 0 113.94-3.88 3.88 3.88 0 01-3.94 3.88zm0-5.76a1.88 1.88 0 101.94 1.88 1.88 1.88 0 00-1.94-1.88zm9.25 15.17a3.89 3.89 0 113.88-3.88 3.88 3.88 0 01-3.88 3.88zm0-5.77a1.89 1.89 0 101.88 1.89 1.89 1.89 0 00-1.88-1.85zm0-3.64a3.88 3.88 0 113.88-3.88 3.88 3.88 0 01-3.88 3.88zm0-5.76a1.88 1.88 0 101.88 1.88 1.88 1.88 0 00-1.88-1.88zm9.25 15.17a3.89 3.89 0 113.88-3.88 3.88 3.88 0 01-3.88 3.88zm0-5.77a1.89 1.89 0 101.88 1.89 1.89 1.89 0 00-1.88-1.85zm0-3.64a3.88 3.88 0 113.88-3.88 3.88 3.88 0 01-3.88 3.88zm0-5.76a1.88 1.88 0 101.88 1.88 1.88 1.88 0 00-1.88-1.88zm51.72 211.23a3.89 3.89 0 113.88-3.88 3.88 3.88 0 01-3.88 3.88zm0-5.77a1.89 1.89 0 101.88 1.89 1.89 1.89 0 00-1.88-1.91z" fill="#fff"/><path fill="#fff" d="M354.16 269.71h-39.08l-20.06-20.06H278.1v-1h17.34l20.05 20.06h38.67v1zm0-9.35h-16.35l-25.66-25.67H278.1v-1h34.46l25.67 25.67h15.93v1zm-64.31-45.62H278.1v-1h11.34l5.28-5.29.71.71-5.58 5.58z"/><path fill="#fff" d="M292.61 219.72H278.1v-1h14.09l9.92-9.91.7.71-10.2 10.2zm95.86-4.09h-54.96l-20.18-20.18v-20.76h1v20.35l19.6 19.59h54.54v1z"/><path fill="#fff" d="M388.47 202.21h-47.38l-12.92-12.92v-14.6h1v14.18l12.34 12.34h46.96v1z"/><path fill="#fff" d="M388.47 197.24h-44.05l-11.2-11.2v-11.35h1v10.94l10.62 10.61h43.63v1zm-3.14 59.78h-1v-5.26l-6.46-6.46v-10.04l5.79-5.78h4.81v1h-4.4l-5.2 5.2v9.21l6.46 6.45v5.68zM432 220.5h-6.3v-1h5.89l7.34-7.34.7.71-7.63 7.63zm-200.99-6.76h12.3v1h-12.3zm-4.95 46.31l-.71-.71 10.69-10.69h7.27v1h-6.85l-10.4 10.4zm7.25-.15l-.71-.71 5.27-5.27h5.44v1h-5.02l-4.98 4.98zm-2.3-21.22h12.3v1h-12.3zm63.84-13.96H278.1v-1h16.34l14.67-14.68.71.71-14.97 14.97zm-69.12-77.71h-1v-5.61l5.95-5.95h24.44v1h-24.03l-5.36 5.36v5.2zm37.64 47.03h-17.39l-21.25-21.25v-5.46h1v5.05l20.66 20.66h16.56l5.36-5.36v-12.99h1v13.41l-5.94 5.94zm-37.64-92.54h-1v-5.2l5.7-5.7h24.69v1h-24.28l-5.11 5.12v4.78zm29.39 29.94h-24.19l-6.2-6.2v-3.55h1v3.14l5.61 5.61h23.78v1zm-12.63 28.99h12.63v1h-12.63z"/><path fill="#fff" d="M242.9 170.74l-.7-.7 4.61-4.62h8.31v1h-7.89l-4.33 4.32zm30.59 28.47l-.7-.71 10.55-10.55v-13.26h1v13.68l-10.85 10.84zm9.44-.12l-.71-.71 6.11-6.1v-17.59h1v18l-6.4 6.4zm149.1-76.51h-18.92v-1h18.5l5.75-5.75v-3.23l-8.03-8.02h-3.63v-1h4.05l8.61 8.6v4.07l-6.33 6.33zm-6.33-23.99h12.23v1H425.7zm4.21-3.99h-4.21v-1h3.8l8.08-8.08.71.7-8.38 8.38zm1.39 102.62h-5.6v-1h5.19l2.56-2.56v-26.95l-7.96-7.95h-12.38v-1h12.8l8.54 8.54v27.78l-3.15 3.14z"/><path fill="#fff" d="M431.95 202.17h-6.25v-1h5.83l6.47-6.47v-29.67l-15.33-15.33h-9.26v-1h9.67L439 164.62v30.5l-7.05 7.05zm-1.58 72.3h-11.99l-4.65-4.66h-7.57v-1h7.98l4.66 4.66h11.57v1zm-23.28 3.75h23.29v1h-23.29zm-12.56-21.2h-1v-5.46l8.85-8.85h27.39l4.39-4.39v-4.97l-2.84-2.84h-5.62v-1h6.03l3.43 3.42v5.81l-4.97 4.97h-27.4l-8.26 8.26v5.05zm35.84 12.72h-9.02l-9.33-9.34h-5.86v-1h6.28l9.33 9.34h8.6v1zm18.25-200.09h1v3.61h-1zm-4.26 6.94a1.87 1.87 0 111.87-1.87 1.87 1.87 0 01-1.87 1.87zm0-2.74a.87.87 0 10.87.87.87.87 0 00-.87-.87z"/><path fill="#fff" d="M443.86 69.65h1v3.61h-1zm-42.29 6.94a1.87 1.87 0 111.87-1.87 1.87 1.87 0 01-1.87 1.87zm0-2.74a.87.87 0 10.87.87.87.87 0 00-.87-.87z"/><path fill="#fff" d="M401.07 69.65h1v3.61h-1zM242.52 262.94a1.87 1.87 0 111.87-1.87 1.87 1.87 0 01-1.87 1.87zm0-2.74a.87.87 0 10.87.87.87.87 0 00-.87-.87z"/><path fill="#fff" d="M242.02 262.52h1v3.61h-1zm5.25.42a1.87 1.87 0 111.87-1.87 1.87 1.87 0 01-1.87 1.87zm0-2.74a.87.87 0 10.87.87.87.87 0 00-.87-.87z"/><path fill="#fff" d="M246.77 262.52h1v3.61h-1zm5.23.42a1.87 1.87 0 111.87-1.87 1.88 1.88 0 01-1.87 1.87zm0-2.74a.87.87 0 10.87.87.87.87 0 00-.87-.87z"/><path fill="#fff" d="M251.53 262.52h1v3.61h-1zm5.25.42a1.87 1.87 0 111.87-1.87 1.87 1.87 0 01-1.87 1.87zm0-2.74a.87.87 0 10.87.87.87.87 0 00-.87-.87z"/><path fill="#fff" d="M256.28 262.52h1v3.61h-1zm5.26.42a1.87 1.87 0 111.87-1.87 1.88 1.88 0 01-1.87 1.87zm0-2.74a.87.87 0 10.87.87.88.88 0 00-.87-.87z"/><path fill="#fff" d="M261.04 262.52h1v3.61h-1zm5.25.42a1.87 1.87 0 111.87-1.87 1.87 1.87 0 01-1.87 1.87zm0-2.74a.87.87 0 10.87.87.87.87 0 00-.87-.87z"/><path fill="#fff" d="M265.79 262.52h1v3.61h-1zM396.81 76.59a1.87 1.87 0 111.88-1.87 1.87 1.87 0 01-1.88 1.87zm0-2.74a.87.87 0 10.88.87.87.87 0 00-.88-.87z"/><path fill="#fff" d="M396.31 69.65h1v3.61h-1zm-4.25 6.94a1.87 1.87 0 111.87-1.87 1.87 1.87 0 01-1.87 1.87zm0-2.74a.87.87 0 10.87.87.87.87 0 00-.87-.87z"/><path fill="#fff" d="M391.56 69.65h1v3.61h-1zm-4.26 6.94a1.87 1.87 0 111.88-1.87 1.87 1.87 0 01-1.88 1.87zm0-2.74a.87.87 0 10.88.87.87.87 0 00-.88-.87z"/><path fill="#fff" d="M386.8 69.65h1v3.61h-1zm43.3 6.94a1.87 1.87 0 111.9-1.87 1.87 1.87 0 01-1.9 1.87zm0-2.74a.87.87 0 10.87.87.87.87 0 00-.87-.87z"/><path fill="#fff" d="M429.6 69.65h1v3.61h-1zm-4.26 6.94a1.87 1.87 0 111.87-1.87 1.87 1.87 0 01-1.87 1.87zm0-2.74a.87.87 0 10.87.87.87.87 0 00-.87-.87z"/><path fill="#fff" d="M424.84 69.65h1v3.61h-1zm-4.25 6.94a1.87 1.87 0 111.87-1.87 1.87 1.87 0 01-1.87 1.87zm0-2.74a.87.87 0 10.87.87.87.87 0 00-.87-.87z"/><path fill="#fff" d="M420.09 69.65h1v3.61h-1zm-4.26 6.94a1.87 1.87 0 111.88-1.87 1.87 1.87 0 01-1.88 1.87zm0-2.74a.87.87 0 10.88.87.87.87 0 00-.88-.87z"/><path fill="#fff" d="M415.33 69.65h1v3.61h-1zm-4.25 6.94a1.87 1.87 0 111.92-1.87 1.87 1.87 0 01-1.92 1.87zm0-2.74a.87.87 0 10.87.87.87.87 0 00-.87-.87z"/><path fill="#fff" d="M410.58 69.65h1v3.61h-1zM289.4 82.33h-1V70.84l-10.68-10.68h-43.9v-1h44.31l11.27 11.27v11.9zm144.29 2.29h-8.21v-1h7.79l5.84-5.76v-8.21h1v8.63l-6.42 6.34zm-169.3-2.29h-1v-3.42l-4.49-4.49h-25.08v-1h25.49l5.08 5.08v3.83z"/><path fill="#fff" d="M269.37 82.33h-1v-4l-8.68-8.68h-25.87v-1h26.29l9.26 9.27v4.41z"/><path fill="#fff" d="M284.34 82.33h-1v-8.2l-9.29-9.29h-40.23v-1h40.64l9.88 9.88v8.61z"/><path fill="#fff" d="M304.29 82.33h-1V71.82l-16.39-16.4-53.08-.01v-1l53.49.01 16.98 16.98v10.93z"/><path fill="#fff" d="M309.28 82.33h-1V70.92l-19.97-19.97-54.49-.3v-1l54.91.31 20.55 20.54v11.83zm14.03-15.6h1v15.6h-1zm15.9 15.6h-1V77.1l3.61-3.61v-6.76h1v7.17l-3.61 3.61v4.82zm-9.98 0h-1v-5.44l4.41-4.41V66.5h1v6.39l-4.41 4.41v5.03zm38.6 19.19h-20.35v-1h19.94l10.21-10.2V68.83l-13.89-13.89h-9.3v-1h9.71l14.48 14.47v22.32l-10.8 10.79z"/><path fill="#fff" opacity=".5" d="M435 277.18h16.54v3.08H435zm-4.63.95H435v1.19h-4.63zm4.63-5.71h16.54v3.08H435zm-4.63.95H435v1.19h-4.63zm4.63-5.7h16.54v3.08H435zm-4.63.95H435v1.19h-4.63zM229.18 75.47h-16.54v-3.08h16.54zm4.64-.95h-4.63v-1.19h4.63zm-4.64-3.81h-16.54v-3.08h16.54zm4.64-.95h-4.63v-1.19h4.63zm-4.64-3.8h-16.54v-3.08h16.54zm4.64-.95h-4.63v-1.19h4.63zm-4.64-3.81h-16.54v-3.08h16.54zm4.64-.95h-4.63v-1.19h4.63zm-4.64-3.8h-16.54v-3.08h16.54zm4.64-.95h-4.63v-1.19h4.63zm-4.64-3.81h-16.54v-3.08h16.54zm4.64-.95h-4.63v-1.19h4.63zm10.24 219.99v16.54h-3.08v-16.54zm-.95-4.63v4.63h-1.19v-4.63zm5.7 4.63v16.54h-3.08v-16.54zm-.95-4.63v4.63h-1.19v-4.63zm5.71 4.63v16.54h-3.08v-16.54zm-.95-4.63v4.63h-1.19v-4.63zm5.7 4.63v16.54h-3.08v-16.54zm-.95-4.63v4.63h-1.19v-4.63zm5.7 4.63v16.54h-3.08v-16.54zm-.94-4.63v4.63h-1.19v-4.63zm5.7 4.63v16.54h-3.08v-16.54zm-.95-4.64v4.63h-1.19v-4.63zm-46.6 4.64v16.54h-3.08v-16.54zm-.94-4.63v4.63h-1.19v-4.63zm-3.81 4.63v16.54h-3.08v-16.54zm-.95-4.64v4.63h-1.19v-4.63zM419.05 65.02V48.48h3.08v16.54zm.94 4.63v-4.63h1.19v4.63zm-5.7-4.63V48.48h3.08v16.54zm.95 4.63v-4.63h1.19v4.63zm-5.7-4.63V48.48h3.08v16.54zm.94 4.64v-4.63h1.19v4.63zm-10.45-4.64V48.48h3.08v16.54zm.94 4.64v-4.63h1.19v4.63zm-5.7-4.63V48.49h3.08v16.54z"/><path fill="#fff" opacity=".5" d="M396.22 69.65v-4.63h1.19v4.63zm-5.7-4.63V48.48h3.08v16.54zm.94 4.64v-4.63h1.19v4.63zm-5.7-4.63V48.49h3.08v16.54z"/><path fill="#fff" opacity=".5" d="M386.71 69.65v-4.63h1.19v4.63zm37.09-4.63V48.48h3.08v16.54zm.95 4.63v-4.63h1.19v4.63zm3.81-4.63V48.48h3.08v16.54zm.94 4.63v-4.63h1.19v4.63zm8.57-4.63V48.48h3.08v16.54zm.94 4.63v-4.63h1.19v4.63zm3.81-4.63V48.48h3.08v16.54zm.94 4.63v-4.63h1.19v4.63zm3.81-4.63V48.48h3.08v16.54zm.95 4.63v-4.63h1.19v4.63z"/><path fill="#fff" d="M214.57 266.1h-1v-30.63l16.74-16.75h13v1h-12.58l-16.16 16.17v30.21z"/><path fill="#fff" d="M219.31 266.1h-1v-29.01l13.41-13.42h11.59v1h-11.18l-12.82 12.83v28.6zm150.55-35.4l-.71-.71 5.51-5.5h13.81v1h-13.4l-5.21 5.21zm-12.32 26.32h-1v-14.56l5.18-5.18.71.71-4.89 4.89v14.14zm-81.02 20.22v.35c0-.11-.01-.23 0-.35z"/><path d="M218.74 215a5.1 5.1 0 115.1-5.09 5.09 5.09 0 01-5.1 5.09zm0-7.19a2.1 2.1 0 102.1 2.1 2.1 2.1 0 00-2.1-2.15zm0-5.18a5.1 5.1 0 115.1-5.09 5.09 5.09 0 01-5.1 5.09zm0-7.19a2.1 2.1 0 102.1 2.1 2.1 2.1 0 00-2.1-2.1zM443 262.08a5.1 5.1 0 115.09-5.09 5.1 5.1 0 01-5.09 5.09zm0-7.19a2.1 2.1 0 102.09 2.1 2.09 2.09 0 00-2.09-2.1zm-224.26-64.58a5.1 5.1 0 115.1-5.09 5.1 5.1 0 01-5.1 5.09zm0-7.19a2.1 2.1 0 102.1 2.1 2.1 2.1 0 00-2.1-2.1z" fill="#fff" opacity=".5"/><path d="M152.62 288.32c8 45 26.48 99.42 35.07 108.53 10.87 11.53 81.44 31.71 85.19 32.31 9.29 1.41 34.36-56.4 24.49-58.34-15-2.94-68.89-13.46-72-17-3.24-3.71-25-34.16-47.22-68.45-15.35-23.7-30.49-24.99-25.53 2.95z" fill="#ffc4c0"/><path d="M267.81 427.93c1 .4 15.2 6 23.82 7.68 6.43 1.26 25 4.36 27.11-2.58 1.43-4.73-9.3-7.85-16.83-10.22-4-1.25-9.05-4.83-8.14-7.39 1.58-4.48 11.82-1.05 18.64 2.13 13.18 6.15 31 17.75 38.12 10.71 2.67-2.67-1.08-6.74-6.38-10.58 8.43 4.28 17.3 7.61 20.38 4.77 1.78-1.62 1.69-3.61.42-5.79 2.54.58 4.7.23 6.07-1.51 2.35-2.95.72-6.83-2.48-10.68a3.12 3.12 0 002.21-1.76c4.74-8.86-24.89-30.41-34.59-31.8-28.55-4.13-57.89-.24-57.89-.24-10.18 9.76-10.49 57.24-10.46 57.26z" fill="#ffc4c0"/><path d="M306.59 398.5a47.66 47.66 0 0119.28 5.5c7.51 4 12.7 9.09 19.14 14.06.17.13 0 .4-.2.27-3.07-2.37-15.69-11.16-18.92-13.12a45.22 45.22 0 00-19.32-6.59c-.07-.01-.06-.12.02-.12zm4.13-12.33c7.53 1.35 15.24 2.7 22.37 5.56 7.8 3.13 14.2 8.81 20.48 14.25q5.65 4.9 11.09 10.06c.15.15 0 .42-.2.27q-9.57-8.46-19.64-16.33a60.13 60.13 0 00-20.91-10.68c-4.34-1.22-8.78-2.11-13.2-3-.08-.01-.07-.14.01-.13zm6.92-11.07c7.26.82 13.6 1.51 20.27 4.77 8.82 4.31 17.66 12.11 20.77 14.88 3.43 3.06 6.75 6.23 10 9.45.14.13-.09.36-.23.23a237.73 237.73 0 00-23.71-19.59 47.26 47.26 0 00-12.85-6.84 84.38 84.38 0 00-14.26-2.87s-.03-.04.01-.03z" fill="#263238"/><path d="M285.76 361.79l-26.94 72.47s-62-21.12-72.91-34.1-28.91-78.08-33.58-109.44 11-29.8 24.41-9.5 47 69.52 48.94 70.65 60.08 9.92 60.08 9.92z" fill="#ebebeb"/><path d="M253.36 400.31c3-8.09 6.15-16.16 8.89-24.36 1.56-4.67 3.15-9.32 4.66-14 .06-.18-.23-.3-.31-.13-3.38 8-6.75 16-9.76 24.18s-6.06 16.19-8.95 24.35q-2.46 6.94-4.5 14a.09.09 0 00.17.07c3.65-7.85 6.73-15.96 9.8-24.11z" fill="#263238"/><path d="M227.59 422.55l-2.74-1.12c-5.15-2.13-10.39-4.41-15.32-6.72-.64-.29-1.27-.59-1.88-.89-1-.47-2-.95-2.94-1.43-.49-.23-1-.48-1.43-.71l-.51-.26-1.48-.77c-1.95-1-3.8-2-5.52-3l-1.19-.71a44.27 44.27 0 01-7.5-5.49c-.21-.21-.43-.42-.61-.63s-.39-.42-.56-.61c-10.88-13-28.9-78.08-33.58-109.44-.05-.36-.11-.73-.16-1.08v-.23c-.3-2.38-.53-5.32-.67-8.5-.1-15.49 7.34-17.65 16-10.41 20.19 49.45 50.68 130.97 60.09 152z" opacity=".1"/><path d="M198.25 438.87H50.74c6.23-27.8 32.09-132 77.83-173.8l1-.91c6.64-5.89 21.63-4.57 31.41.29a7.14 7.14 0 011.82 1.55c3.93 4.33 11 16.38 15 28.71a67.07 67.07 0 011.75 6.52q.15.63.3 1.5c.1.43.18.92.28 1.45.12.74.26 1.55.41 2.45 3.97 23.98 14.07 102.15 17.71 132.24z" fill="#00e77f"/><path d="M148.55 438.87H47.74c9.2-39.84 23.16-90 40.63-121.33 31.29-56.09 41.24-53.4 41.24-53.4s14.27 61.21 14.52 70.12c.15 4.91 2.41 57.92 4.42 104.61z" fill="#ebebeb"/><path d="M128.64 264.86c-1.12 3.82-2.19 7.66-3.26 11.49l-3.18 11.51q-3.14 11.52-6.14 23.08l-.18.7.63.39q6.46 3.93 13 7.77l-.39-1.49-9.12 15.93-.3.53.29.53c4.18 7.67 8.45 15.29 12.75 22.88 2.16 3.8 4.32 7.59 6.53 11.36s4.39 7.55 6.67 11.28c-1.9-3.94-3.89-7.82-5.84-11.73s-4-7.79-6-11.67q-6-11.61-12.25-23.15v1.06L131 319.4l.54-.94-.93-.55q-6.51-3.82-13.07-7.57l.45 1.08q2.8-11.6 5.49-23.24l2.64-11.65c.88-3.89 1.7-7.77 2.52-11.67zm4.45 166.08c-3.55-.29-16-.24-28.38-1.39A226.7 226.7 0 0178.39 425c-.3.07-1.06 7.27-1.78 13.86h1.44c.1-1.07.21-2.16.31-3.28a109.1 109.1 0 0012.41 3.28H103a142.42 142.42 0 01-24.44-5c.25-2.64.44-4.68.64-7.31 3.66 1.29 16.14 4 25.59 4.85 8.8.82 21.83.81 27.38.66-.28 1.71-.53 5-.71 6.81h1.68c.14-3.07.23-5.83.24-6.95.07-.27-.03-.92-.29-.98z" fill="#dbdbdb"/><path d="M201.09 438.87h-17.51c-4.37-48.23-9.22-102.55-9.34-107.16-.23-7.78-10-58.18-11.44-65.74-.12-.62-.19-1-.19-1s14.08 16.34 18 35.19c.24 1.13.56 2.91 1 5.25 3.39 20.2 12.2 81.93 19.48 133.46z" fill="#ebebeb"/><path d="M163.61 268.12c1.37 3.08 2.78 6.12 4.19 9.17s2.81 6.1 4.25 9.13q4.29 9.12 8.7 18.15l.17-1.19q-3.85 3.84-7.66 7.76l-.6.62.45.78 7.76 13.46-.16-.67c-.51 8-.93 15.93-1.31 23.9q-.28 6-.49 12c-.12 4-.28 8-.34 12 .47-4 .83-7.93 1.25-11.89s.75-7.94 1.09-11.91c.68-7.94 1.32-15.89 1.86-23.85v-.36l-.18-.31-7.74-13.44-.16 1.4c2.52-2.63 5-5.27 7.5-7.94l.51-.54-.33-.65q-4.59-9-9.26-17.84c-1.56-3-3.15-5.91-4.73-8.85s-3.14-6-4.77-8.93z" fill="#dbdbdb"/><path fill="#263238" d="M149.47 301.58l6.97-10.62 7.25 8.52-1.83 8.05-8.21 1.34-4.18-7.29zm4.18 7.29l-.82 92.81 12.02 28.87 10.9-31.24-13.89-91.78-8.21 1.34zm45.57 130.07c0-.22-1.55-22.1-3.16-33.76-1.72-12.39 10.2-66.62 13.26-72.31a10.09 10.09 0 017.54-5.32 9.34 9.34 0 017.74 2.12l-1.41 1.42a7.42 7.42 0 00-6-1.56 8.14 8.14 0 00-6.07 4.29c-3 5.59-14.73 58.91-13 71.09 1.63 11.72 3.16 33.67 3.17 33.89z"/><path fill="#00e77f" d="M225.94 338.793l6.279-5.833 60.607 65.243-6.28 5.833z"/><path fill="#00e77f" d="M221.874 332.162l4.008-3.723 5.193 5.59-4.008 3.723z"/><path opacity=".1" d="M231.07 334.02l-4.01 3.73-.81-.88 3.45-4.32 1.37 1.47z"/><path fill="#00e77f" d="M294.657 402.486l-4.008 3.723-2.98-3.21 4.007-3.722z"/><path opacity=".1" d="M287.67 403l4.01-3.73.82.88-3.46 4.32-1.37-1.47z"/><path fill="#a6a6a6" d="M292.066 404.88l1.165-1.082 7.18 7.73-1.165 1.082z"/><path d="M111.61 290.19C95.3 342.12 89.43 434.68 105 445.29c17.29 11.81 40.17-58.91 38.53-61.64-1.23-2.06-7.19-54.66-11-93.19s-16.89-13.12-20.92-.27z" fill="#ffc4c0"/><path d="M143.83 383.54c-1-5.45-8.13-75.18-11.09-96.87s-11.87-24.3-21.74 2-22.07 100.14-16 134.72c5.84 33.32 21.13 29 33.85 5.7 10.4-19.09 14.98-45.55 14.98-45.55z" fill="#ebebeb"/><path d="M144.79 392.54q-1.66-9.71-2.95-19.45c-.89-6.49-1.66-13-2.41-19.5s-1.39-13-2-19.56-1.07-13.06-1.41-19.61q1.68 9.69 3 19.44c.89 6.49 1.66 13 2.4 19.5s1.39 13 2 19.56 1.03 13.08 1.37 19.62z" fill="#263238"/><path d="M138 329.5a34.24 34.24 0 01.21-5.17c.19-1.71.45-3.4.81-5.11a23.08 23.08 0 01-.06 5.19 29.65 29.65 0 01-.96 5.09z" fill="#263238"/><path d="M105.59 445.79c13.78 7.28 34.44 0 93.78-17.14 8.22-2.37 8.28-66.55-.62-64.47-11.21 2.62-54.14 15.22-57.17 16.54-25.5 11.11-45.33 60.13-35.99 65.07z" fill="#ffc4c0"/><path d="M282.61 369.13c.27 7.82-19.06 6.86-19.06 6.86s4.69 2.69 6.11 7.68c1.62 5.72-6.63 10.78-6.63 10.78a17.81 17.81 0 015.15 9.13c1 5.63-6.6 11.92-6.6 11.92a15.63 15.63 0 01-.53 10.88c-4.32 9.05-19.53 10.78-29.19 12s-40.26-6-45.8-6.49l-6.12-60.4s41.78-17.69 53.33-17.48c9.73.14 48.93 3.17 49.34 15.12z" fill="#ffc4c0"/><path d="M263.39 375.77c-10.31-2.67-21.23-2.86-31.77-2.94a.19.19 0 000 .37c10.48-.05 21.23 2.7 31.7 3.07a.26.26 0 00.07-.5zm-.67 17.89a27.9 27.9 0 00-7.25-.18c-2.57.11-5.13.26-7.7.46q-7.7.58-15.37 1.55c-.22 0-.23.39 0 .37 5.11-.38 10.24-.68 15.36-.85q3.85-.12 7.71-.18a33.07 33.07 0 007.24-.46.37.37 0 00.01-.71zm-1.36 21.85c-2-.54-4.48 0-6.54.18-2.33.23-4.67.44-7 .64-4.68.4-9.35.8-14 1-.23 0-.23.38 0 .37 4.76-.22 9.53-.37 14.29-.63 2.34-.13 4.67-.27 7-.43 2-.13 4.48-.06 6.31-.93a.13.13 0 00-.06-.2z" fill="#263238"/><path d="M191.47 364.82l-20.23 76.87s-52.89 13.09-66.22 4.46c-8.78-5.69 9.9-56.36 39-66.49z" fill="#ebebeb"/><path d="M116 404.85c2.75-5.42 11.28-19.15 28-25.25.14-.06.26.16.12.23-12 5.76-24.84 20.17-27.93 25.16-.03.13-.19.01-.19-.14zm37.8 34.66c1.77-8.57 4-17 6.25-25.5s4.49-16.94 6.95-25.35c1.39-4.76 2.76-9.52 4.31-14.22.05-.13.26-.09.23 0-1.76 8.56-4 17-6.15 25.51s-4.48 16.95-6.84 25.39c-1.34 4.77-2.76 9.52-4.32 14.22-.07.27-.48.2-.43-.05z" fill="#263238"/><path d="M191.2 364.09a75.48 75.48 0 00-9.89 2.53c-3.27 1-6.52 2-9.76 3.06-6.45 2.1-20.35 5.82-31.33 11.5-.12.07.81.34.92.27 5.09-3 46.46-14.78 49.65-16.15a5.34 5.34 0 000 .8c0 .19.27.31.37.11.26-.46.36-.92.58-1.39a.5.5 0 00-.54-.73zm-91.96 74.29a57.42 57.42 0 01-4.36-13.6l-.63-3.53c-.19-1.18-.31-2.37-.46-3.55-.35-2.37-.44-4.76-.63-7.14a218.48 218.48 0 01.45-28.56c.73-9.5 1.81-19 3.15-28.39s3-18.79 4.78-28.13l-3.23 28.33c-1 9.44-2 18.88-2.71 28.34l-.48 7.09-.32 7.1-.16 7.1c0 2.37 0 4.74.07 7.1.35 9.37 1.15 18.91 4.53 27.84z" fill="#263238"/><path d="M98.78 327.8c.06 1.76 0 3.47.1 5.19a27.88 27.88 0 00.58 5.11 10.5 10.5 0 01-1.33-5.1 15.81 15.81 0 01.65-5.2z" fill="#263238"/><path d="M156.7 290.86c-8.76.76-21.4-14.32-25.6-25.66-.28-.78 1.93-8.2 4.2-17.34 1.35-5.55 2.73-11.77 3.58-17.53.17-1.19 34.85 14.09 34.85 14.09S168.4 256 167 266a13.11 13.11 0 00-.1 2.4v.4c.1 4.64-1.72 21.32-10.2 22.06z" fill="#ffc4c0"/><path d="M141.08 230.8c.24 10 2.84 34.42 22.06 37.69a22.15 22.15 0 003.73.35 1.93 1.93 0 000-.41A15 15 0 01167 266c1.43-10.07 6.76-21.63 6.76-21.63s-25.05-10.98-32.68-13.57z" fill="#263238"/><path d="M148.47 183.76c-7.92 11-13.53 48.6-7.5 59.47 8.74 15.76 29.06 23.91 44 12 14.45-11.52 20.89-60.68 13.59-71.18-10.77-15.42-38.39-16.52-50.09-.29z" fill="#ffc4c0"/><path d="M175.77 217.22c0-.1-.22.09-.22.2-.22 2.55-.89 5.44-3.29 6-.08 0-.08.15 0 .15 2.86-.05 3.74-3.9 3.51-6.35z" fill="#263238"/><path d="M173.8 214.3c-4.06-.79-5.32 7.39-1.57 8.11s4.97-7.41 1.57-8.11zm16.13 5.19c0-.09.18.15.16.26-.47 2.52-.59 5.48 1.57 6.68.06 0 0 .16 0 .13-2.78-.82-2.58-4.76-1.73-7.07z" fill="#263238"/><path d="M192.6 217.2c4.12.32 3.17 8.54-.65 8.24s-2.8-8.51.65-8.24zm-21.78-4.61a33.94 33.94 0 003.31.8c1.27.29 2.25.65 3.52.17a1.75 1.75 0 00.91-1.93c-.44-1.6-1.91-2.34-3.42-2.76a6.36 6.36 0 00-4.58.32 1.86 1.86 0 00.26 3.4zm27-1.15c-1.15-.16-2.18-.49-3.31-.76s-2.3-.42-3.22-1.42a1.74 1.74 0 010-2.14c1.11-1.23 2.75-1.24 4.29-.93a6.38 6.38 0 014 2.32 1.87 1.87 0 01-1.76 2.93zm-29.93 28.65c.51.68 1 1.59 1.9 1.81a6.74 6.74 0 002.82-.21.09.09 0 01.09.15 3.45 3.45 0 01-3.43.87 2.73 2.73 0 01-1.64-2.55c-.02-.16.18-.16.26-.07zm3.84-7.17a8.7 8.7 0 005.16 4.73 10.61 10.61 0 003.07.62 3.2 3.2 0 00.61 0h.57a.64.64 0 00.59-.49.76.76 0 000-.26v-.23c.36-1.94.63-4.93.63-4.93.66.47 4 2.66 4.14 1.64.8-8.51 1.7-18 .7-26.61a.24.24 0 00-.47 0c-1.1 8.15-.76 16.43-1.73 24.64a14.93 14.93 0 00-3.88-1.87c-.29 0-.42 5.79-.65 6.65a.19.19 0 010 .09c-3.34-.09-5.65-1.46-8.49-4.15-.15-.2-.37-.06-.25.17z" fill="#263238"/><path d="M179 237.1a10.3 10.3 0 01-4.59 2.54 4.6 4.6 0 01-2.82-.26c-1.94-.84-1.7-2.71-1.09-4.24a11.41 11.41 0 011.29-2.28 13.35 13.35 0 007.21 4.24z" fill="#263238"/><path d="M174.38 239.64a4.6 4.6 0 01-2.82-.26c-1.94-.84-1.7-2.71-1.09-4.24 2.14.56 4.05 2.37 3.91 4.5z" fill="#ff98b9"/><path d="M152.5 207.76c4.91-6.31 5-19.72 9.66-21.69 10.15-4.26 21.35 14.57 32.2 18.41 10.51 3.73 16.39-1.82 17.46-11s-4.2-17.48-15.41-23.35c-11.6-6.08-24.46-5-31.87-3.25 0 0 4.14-3.34 3.61-5s-7.13.64-9.31 1.84a16.75 16.75 0 00-4.34 4.18 18.11 18.11 0 00-4.64-2.17c-2.7-.86-6.81.06-7.22.63s3.26 2.38 5.9 3.45c0 0-7.33 4.92-9.2 10.65s-2.4 35.87-.37 36.9c2.6 1.29 11.53-7.04 13.53-9.6z" fill="#263238"/><path d="M149.82 169.44c.11 0 .2.16.08.2a19.13 19.13 0 00-8.5 6.08 23.69 23.69 0 00-4.19 11.7c-.93 8.06.36 16.12 1.14 24.13 0 .23-.37.28-.41 0-1.37-8.43-2.59-17.49-1.25-26 1.13-7.21 5.44-14.5 13.13-16.11zm12.88 13.72a27.38 27.38 0 019.34 4c2.72 1.79 4.62 4.53 6.79 6.9 4.85 5.33 10.54 10.13 17.61 12.11a.07.07 0 010 .14c-6.6-1.4-12.13-5.43-16.77-10.18-2.34-2.39-4.32-5.34-6.93-7.43-3-2.39-6.64-3.61-10.17-4.91a.3.3 0 01.13-.63zm9.37-17.04a52.85 52.85 0 0115.07.23 41.67 41.67 0 0113.79 4.26c7.37 4 12.82 11.45 11.86 20.1a18 18 0 01-5.79 11.62.23.23 0 01-.32-.34c5.65-5.91 7.35-14.85 3.19-22.1-4.47-7.77-13.31-11.32-21.74-12.82a76 76 0 00-16-.89s-.13-.06-.06-.06z" fill="#263238"/><path d="M158.81 206.25s-22.36-3.25-27.5-1.25c-2.11.83-2.92 9.07-1.92 10.47.63.87 13.8-.3 26.63 2.29-.02.02-.02-7.13 2.79-11.51z" fill="#455a64"/><path d="M197.3 231.94a9.48 9.48 0 01-1.37.72c-1.88.8-3.81.69-6.24-1.29-1.6-1.3-2.18-3.71-5.28-4.76a11 11 0 00-5.94-.5 31.85 31.85 0 00-3.84.94c-.31.08-.63.18-.94.28a8.26 8.26 0 01-.89.22 9.19 9.19 0 01-1.42.17c-5.45.31-12.73-3-14.56-6.3-1.65-3.06-1-9.46 1.72-14.63a18.58 18.58 0 012.08-3.14 14.64 14.64 0 012.7-2.52l.54-.37a9.89 9.89 0 011.63-.8c3.91-1.5 10-1.33 16.14-.08l1.87.42c1.34.31 2.68.69 4 1.09 1.5.48 3 1 4.37 1.6 4.93 2.06 8.88 4.73 10.29 7.56a12.86 12.86 0 011 6.71 21.8 21.8 0 01-.47 3.31 30.23 30.23 0 01-4 9.81 5.9 5.9 0 01-1.39 1.56z" fill="#fff" opacity=".2"/><path d="M197.3 231.94a9.48 9.48 0 01-1.37.72l-8.72-11a1.79 1.79 0 012.54-2.5 2.23 2.23 0 01.27.26l8.68 10.93a5.9 5.9 0 01-1.4 1.59zm-18.83-5.83a31.85 31.85 0 00-3.84.94l-16.09-20.26a18.58 18.58 0 012.08-3.14zm-2.74-11.31a1.2 1.2 0 01-1.51 0 .62.62 0 01-.18-.18l-10.72-13.48.54-.37a9.89 9.89 0 011.63-.8l10.44 13.14a1.2 1.2 0 01-.2 1.69zm26.98 5.77l-15.23-19.18c1.5.48 3 1 4.37 1.6l11.33 14.27a21.8 21.8 0 01-.47 3.31zm-4.41-.67a.6.6 0 01-.75 0l-.1-.1-15.82-19.92 1.87.42 14.9 18.75a.6.6 0 01-.1.85zm-25.5 7.65a9.19 9.19 0 01-1.42.17l-8.17-10.28a.61.61 0 01.1-.85.59.59 0 01.76 0l.09.09z" opacity=".2" fill="#fff"/><path d="M158.82 224.8a8.91 8.91 0 01-2.54-3.14c-2.32-5.14-.25-16.66 7.26-21.41 5.05-3.19 15.21-2 22.37 0 6.64 1.87 14.53 5.48 16.77 10 3.69 7.47-1.71 19.16-5 22.1-2.22 2-5.52 1.79-8.4-.55a10.59 10.59 0 01-1.6-1.73 8.45 8.45 0 00-3.51-3c-2.8-1.13-4.82-.74-10.34.75a18.09 18.09 0 01-15.01-3.02zm5.37-23.53c-6.79 4.29-9 15.11-6.81 19.9 2 4.39 10.14 7.2 16.15 5.58 5.34-1.45 7.83-2 11.11-.7a9.47 9.47 0 014 3.31 10.13 10.13 0 001.42 1.54c1.9 1.55 4.7 2.52 6.84.59 3-2.67 8.08-13.82 4.7-20.67-1.72-3.48-7.86-7.07-16-9.37-9.12-2.56-17.52-2.63-21.4-.18z" fill="#455a64"/><path d="M146.2 215.2s-4.39-14.1-10.54-12.89-5.41 19.85 0 24.09a6.55 6.55 0 009.44-.69z" fill="#ffc4c0"/><path d="M136 207.65a.09.09 0 00-.09.15c3.75 3.12 4.75 7.84 5 12.48-.77-2-2.23-3.43-4.86-2.59-.13.05-.08.26.05.27a4 4 0 013.8 2.69 19.39 19.39 0 01.93 4.07c.08.45.84.46.84 0a.41.41 0 000-.11c1.87-5.49.06-14.53-5.67-16.96z" fill="#263238"/><path d="M166.93 267.75l-11 18.71-23.3-28.28-6.81 8.74s20.39 40.75 20.71 39l9.83-15.63 10.7 12.62 1.94-28.79z" fill="#00e77f"/><path d="M168.84 288.75c.15-4.77.43-9.57.35-14.34 0-.17-.27-.27-.34-.08-1.44 4.48-1.89 22.72-2.34 27.06v-.05c-.44-.55-10-11.16-10.09-11-2 2.44-9.24 13.82-9.76 14.86-3.22-6.47-17.08-32.1-21-38.31-.12-.17-.4-.06-.32.14 2.75 6.77 20.58 40.54 20.89 40.49.19.17 9.12-13.84 10.29-16.54 1.57 2.27 11.08 14.12 11.18 13.42a140.85 140.85 0 001.14-15.65z" fill="#263238"/><path fill="#37474f" d="M292.54 415.46h15.42v23.41h-15.42zm95.02-28.31h15.42v51.72h-15.42z"/><path fill="#37474f" d="M402.89 379.34l-110.35 36.12v7.99l110.35-36.12v-7.99z"/></svg>