<svg xmlns="http://www.w3.org/2000/svg" viewBox="0 0 500 500"><path fill="#00e77f" d="M93.88 233.97h50.47V366.4H93.88z"/><path opacity=".2" d="M93.88 233.97h50.47V366.4H93.88z"/><path fill="#00e77f" d="M355.66 233.97h50.47V366.4h-50.47z"/><path opacity=".2" d="M355.66 233.97h50.47V366.4h-50.47z"/><path fill="#00e77f" d="M144.34 140.75h211.33V366.4H144.34z"/><path opacity=".2" d="M144.34 140.75h211.33V366.4H144.34z"/><g opacity=".2"><path d="M355.69 233.97h1.2v132.42h-1.2zm-211.95 0h1.2v132.42h-1.2z"/><path d="M356.91 328H143.74v-41.11h213.17zM145 326.73h210.67v-38.61H145z"/></g><path d="M157.5 213.16a.84.84 0 000 1.67.84.84 0 000-1.67zm1.43 102.25a.84.84 0 000 1.67.84.84 0 000-1.67zm57.12-15.97c0-.09-.09-.17-.13-.25a.38.38 0 00-.65 0 2 2 0 00-.13.25c-.48.99 1.38.99.91 0zm-83.43 18.07c0-.08-.08-.17-.13-.25a.38.38 0 00-.65 0c-.05.08-.09.17-.13.25-.47.99 1.39.99.91 0zm32.07-99.25a.64.64 0 000 1.28.64.64 0 000-1.28zm-44.49 64.81a.64.64 0 000 1.27.64.64 0 000-1.27zM204 182.64a.89.89 0 00-1.25 0 1.25 1.25 0 00-.3 1.21 1 1 0 001.86 0 1.24 1.24 0 00-.31-1.21zm-38.07 128.04a.89.89 0 00-1.25 0 1.23 1.23 0 00-.3 1.2 1 1 0 001.85 0 1.21 1.21 0 00-.3-1.2zm175.58 8.62a.84.84 0 000-1.68.84.84 0 000 1.68zm-50.74-111.56a.84.84 0 000-1.67.84.84 0 000 1.67zm77.81 103.67c0 .08.08.17.13.25a.38.38 0 00.65 0c.05-.08.09-.17.13-.25.51-.99-1.38-.99-.91 0zm-103.31-50.35a.89.89 0 001.25 0 1.23 1.23 0 00.3-1.21 1 1 0 00-1.85 0 1.26 1.26 0 00.3 1.21zM145 328s53.22 10.38 105.3 10.38S355.66 328 355.66 328z" opacity=".2"/><path fill="#37474f" d="M93.88 354.75h312.24v11.64H93.88zm67.6 11.65l-12.83 26.27-12.89 26.41h-11.23l4.17-26.41 4.15-26.27h28.63z"/><path fill="#263238" d="M132.85 366.4h28.64l-7.79 15.93h-23.36l2.51-15.93z"/><path fill="#37474f" d="M370.66 419.08h-11.22l-12.89-26.41-12.84-26.27h28.64l4.14 26.27 4.17 26.41z"/><path fill="#263238" d="M364.86 382.33H341.5l-7.79-15.93h28.63l2.52 15.93z"/><path d="M373.3 309.63c-.92-2.77-49.95-67.56-53.3-68.8-.38-.17-22.3 15.43-22.3 15.43-.9 1.21-42.56-7.6-42.56-7.6l-.42 50.26 75.89-1.61s10.25 6 19.63 10.93c5.77 3 10.88 5.6 12.34 6 3.82.96 11.65-1.86 10.72-4.61z" fill="#ffc4c0"/><path d="M362.61 314.23c-1.47-.38-6.57-2.94-12.33-6-9.37-4.91-19.62-10.95-19.62-10.95l-16.89.37L287.28 255c5.81 1 10.14 1.64 10.43 1.26 0 0 21.9-15.6 22.29-15.43 3.35 1.24 52.38 66 53.3 68.79s-6.9 5.59-10.69 4.61z" fill="#fff"/><path d="M373.74 309.71c-1-2.84-50.21-67.58-53.65-68.86-1.3-.5-12 6.13-22.39 15.41L329.51 298s29.34 15.55 33.26 16.55 11.94-2 10.97-4.84z" fill="#00e77f"/><path d="M370.45 310.75c-8.52-10.65-41.89-54.41-49.51-65.58-.06-.1 0-.14.07-.06 8.68 10.38 41.69 54.41 49.62 65.51.16.23 0 .38-.18.13zm-13.18 1.37a11 11 0 01-2.29-8.51 10.64 10.64 0 013.95-6.84c.07 0 .16.07.1.13a12.66 12.66 0 00-1.62 15.1.09.09 0 01-.14.12zm-24.09-11.58c-3.36-4.3-5.66-10.5-4.16-15.9.06-.21.35-.13.39.05a75 75 0 004.37 15.52.35.35 0 01-.6.33zm3.82 2.36c-3.36-4.3-5.66-10.5-4.16-15.9.06-.21.35-.13.38.05a76.22 76.22 0 004.37 15.52.34.34 0 01-.59.33zm3.9 2.36c-3.36-4.3-5.66-10.5-4.16-15.9.05-.21.35-.13.38.05a76.22 76.22 0 004.37 15.52.34.34 0 01-.59.33zm3.86 2.36c-3.37-4.3-5.66-10.5-4.16-15.91 0-.2.35-.12.38.06a75.58 75.58 0 004.37 15.52.34.34 0 01-.59.33zm-32.02-51.85c-3.7-4.88 3.89-10.63 7.59-5.74s-3.89 10.63-7.59 5.74z" fill="#263238"/><path d="M331.27 308.86c1.24-4.64.42-9.66.21-14.38a.67.67 0 00-.94-.52.15.15 0 00-.23 0 28.68 28.68 0 00-8.11 12.4c-.86 2.8-.53 6.92 3 7.73 3.27.73 5.34-2.52 6.07-5.23zm-3.45 2.94c-5.05 3.16-4.67-3.86-3.95-5.9a31.74 31.74 0 011.72-3.81 85.81 85.81 0 014.58-7.35c0 2.33.12 4.64.17 7 .06 2.73.27 8.32-2.52 10.06z" fill="#263238"/><path d="M315.8 280.6c-2.57 2.5-.72 6.2 1.45 8.16a28.63 28.63 0 0013.34 6.44.14.14 0 00.17-.15.67.67 0 00.55-.93c-2.25-4.15-4.14-8.88-7.6-12.22-2.02-1.9-5.47-3.66-7.91-1.3zm10.81 7.92c1.16 2 2.21 4.08 3.44 6.05a83.47 83.47 0 01-7.71-3.94 28.86 28.86 0 01-3.44-2.38c-1.67-1.37-5.62-7.19.34-7.09 3.29.06 5.99 4.96 7.37 7.36zm-73.77-55.27h-34.06s-35.63-17.12-64.33-10.25c-32.9 7.91-37.11 49.23-12.52 63.84 31.16 18.52 169.82 14.93 169.82 14.93l-30-50.8s-46.11-9.71-87.92-8.3l59 8z" fill="#263238"/><path d="M283.77 254.28a.82.82 0 01-.06-.26l-.06-.22c0-.16-.08-.32-.13-.49a9 9 0 00-.35-1c-.12-.33-.27-.65-.42-1a7.07 7.07 0 00-.56-.9h-.08a.1.1 0 00-.05 0h-.08a.15.15 0 00-.07 0c-5.07-1-39.53-5.88-44.65-6.46s-10.35-1.07-15.53-1.5a307.23 307.23 0 00-31.09-1.12c-1 0-1.94.05-2.91.09-.21-.07-.43-.11-.64-.16-.5-.12-1-.24-1.5-.34-.93-.18-1.88-.32-2.82-.46-2-.3-3.93-.51-5.88-.87a.09.09 0 000 .18c2 .43 3.9 1 5.86 1.43.57.12 1.13.25 1.7.36-3.8.2-7.6.49-11.39.84a.1.1 0 000 .19c5.16-.31 10.36-.35 15.54-.26s10.26.2 15.39.5c10.38.59 20.74 1.52 31.08 2.6 5.8.61 40.93 5.74 46.75 6h.07c.05.13.1.27.16.4.16.31.32.63.5.93a9.68 9.68 0 00.52.88c.09.14.18.28.28.42l.15.21a1.07 1.07 0 01.15.22c-.01-.01.19-.09.12-.21z" fill="#455a64"/><path d="M300.94 298.71c-1.86-3-3.44-6.13-5.14-9.19s-3.41-6.14-5.12-9.21c-3.41-6.12-15.65-26.7-16.86-28.14-.08-.09-.23 0-.2.12.58 1.59 8.22 15.22 10 18.25 3.52 6.08 7.21 12 10.86 18 1 1.71 2.11 3.4 3.17 5.11s2.18 3.37 3.14 5.12c.04.15.21.05.15-.06zm-27.47-41.42c-3.06-.74-6.19-1.21-9.28-1.8s-6.2-1.17-9.3-1.74q-9.3-1.73-18.64-3.31c-12.4-2.08-24.86-3.82-37.39-5-7.07-.68-14.15-1.12-21.24-1.64-.15 0-.14.22 0 .23 12.61.57 25.21 2.28 37.7 4.07s24.72 3.73 37 5.81q5.22.88 10.44 1.79c3.53.61 7.06 1.36 10.61 1.81.18 0 .24-.19.1-.22z" fill="#455a64"/><path d="M308.71 474.94c-3-.3-77.26-33.68-79.29-36.75-.78-1.15 3.45-12.26 9-25.53 1.18-2.86 2.43-5.81 3.71-8.8 8.27-19.43 17.51-39.85 17.51-39.85l49.75 22.19-18.88 39.23-4.14 8.62s22.72 25.5 24.59 29.1.74 12.09-2.25 11.79z" fill="#ffc4c0"/><path d="M308.71 474.94c-3-.3-77.26-33.68-79.29-36.75-.94-1.41 5.5-17.51 12.66-34.33l48.38 21.57-4.14 8.62s22.72 25.5 24.59 29.1.79 12.09-2.2 11.79z" fill="#fff"/><path d="M308.71 474.94c-3-.3-77.26-33.68-79.29-36.75-.78-1.15 3.45-12.26 9-25.53l47.95 21.39s22.72 25.5 24.59 29.1.74 12.09-2.25 11.79z" fill="#00e77f"/><path d="M309 471.49c-12.31-5.9-62.54-28.55-75.16-33.44-.1 0-.13 0 0 .07 12.08 6.12 62.48 28.36 75.1 33.58.22.1.3-.08.06-.21zm-1.67-13.16a11 11 0 00-8.82-.3 10.64 10.64 0 00-5.77 5.39c0 .08.11.14.15.07a12.69 12.69 0 0114.37-5 .09.09 0 00.07-.16zm-16.74-20.87c-4.95-2.31-11.52-3.15-16.45-.46-.19.1 0 .37.15.36a75.57 75.57 0 0116.11.75.34.34 0 00.19-.65zm3.18 3.23c-5-2.31-11.52-3.15-16.45-.46-.19.1 0 .37.14.36a75.66 75.66 0 0116.12.75.34.34 0 00.19-.65zm3.17 3.23c-4.95-2.31-11.52-3.15-16.45-.47-.19.11 0 .38.14.37a75.66 75.66 0 0116.12.75.34.34 0 00.19-.65zm3.17 3.23c-4.95-2.31-11.52-3.15-16.45-.47-.19.11 0 .38.15.37a75.6 75.6 0 0116.11.75.34.34 0 00.19-.65zm-57.8-19.5c-5.6-2.5-9.49 6.2-3.88 8.7s9.49-6.2 3.88-8.7z" fill="#263238"/><path d="M302 426.58c-1.59-3.22-5.68-2.61-8.21-1.13a28.63 28.63 0 00-10.26 10.7.15.15 0 00.09.22c-.05.4.23.89.72.8 4.65-.86 9.73-1.2 14-3.46 2.42-1.32 5.11-4.08 3.66-7.13zm-10.88 7.85c-2.28.47-4.56.84-6.82 1.4a84.27 84.27 0 016.13-6.12 30.57 30.57 0 013.33-2.55c1.82-1.16 8.58-3.12 6.64 2.52-1.11 3.12-6.6 4.18-9.32 4.75z" fill="#263238"/><path d="M270.28 432.44c4 2.61 9.07 3.39 13.63 4.64.47.13.8-.33.78-.74a.14.14 0 00.11-.2 28.69 28.69 0 00-9.3-11.55c-2.4-1.68-6.43-2.65-8.28.43-1.75 2.91.7 5.89 3.06 7.42zm-1.74-4.19c-1.45-5.79 5.12-3.25 6.84-1.94a30.57 30.57 0 013.1 2.82 83.82 83.82 0 015.58 6.62c-2.2-.75-4.45-1.31-6.68-2-2.65-.75-8.04-2.31-8.84-5.5zm-25.33-28.95l56 25.3s66.61-127.84 68.35-167c1.48-33.3-21.7-46.15-96.65-24.61l-18.36.23v12.67c8.06 1.06 29.56 4.44 29.56 4.44 15.64 5.9 20.68 8.34 20.43 8.85C263.48 338 243.21 399.3 243.21 399.3z" fill="#263238"/><path d="M311.66 245.16c-2.26 3-4.35 6.14-6.35 9.34-12-5.35-25.11-8.44-38.13-10.05q-5.52-.67-11.09-1c-.15 0-.14.23 0 .24a167.55 167.55 0 0138.79 7.38c3.49 1.08 6.9 2.32 10.34 3.55-2.4 3.84-4.67 7.78-6.84 11.74a233.3 233.3 0 00-10.94 22.84c-1.8 4.32-3.55 8.67-5.1 13.09 0 .13.17.21.22.09q10.26-22.87 22.39-44.76c2.28-4.12 4.66-8.18 6.89-12.33.08-.11-.1-.29-.18-.13zm-11.27 165.91c-3.27-1.27-6.43-2.86-9.62-4.3l-9.61-4.31c-6.4-2.86-28.52-12-30.35-12.46-.12 0-.18.15-.09.21 1.42.93 15.69 7.28 18.92 8.66 6.46 2.77 13 5.33 19.49 8 1.86.75 3.73 1.46 5.6 2.19s3.76 1.4 5.59 2.23c.11.01.18-.18.07-.22zm10.99-160.14c-4.41 8.39-8.17 17.17-12 25.84s-7.53 17.31-11.14 26q-10.77 26.06-20.06 52.7c-3.52 10-6.81 20.16-10 30.3-.05.15.18.2.23.06 5.93-17.94 12.35-35.72 19.05-53.38s13.8-35.08 21.32-52.37q3.17-7.28 6.43-14.51c2.18-4.83 4.45-9.63 6.49-14.51.06-.16-.21-.33-.32-.13zm-94.3-18.74c1.23 1.3 79 3.08 79.4 2.59 1.06-1.34-9-50.7-17.11-69.57-10.37-24.21-16.28-26.36-19.77-27.8-4.46-1.84-12.58-1.41-14.54-.59-2.23.91-11.88 11.74-14.78 20.49-5.81 17.59-14.28 73.74-13.2 74.88z" fill="#455a64"/><path d="M265.94 141.72h-26.05c.48-.56 1-1.09 1.4-1.57h23c.51.44 1.06.96 1.65 1.57zm3.28 4.1h-32.58l-1.11 1.56h34.74q-.54-.82-1.05-1.56zm3.51 5.66H233c-.3.52-.58 1-.85 1.56h41.47zm2.95 5.67h-45.34l-.06.16c-.15.44-.29.91-.44 1.4h46.59c-.25-.54-.5-1.05-.75-1.56zm2.64 5.66h-49.63c-.13.5-.27 1-.4 1.56H279zm2.36 5.66H227.3c-.11.52-.23 1-.35 1.57h54.31c-.19-.54-.39-1.04-.58-1.57zm2 5.67h-56.6q-.18.78-.33 1.56h57.44zm1.77 5.66h-59.54c-.1.52-.21 1-.31 1.56h60.31c-.16-.53-.31-1.05-.47-1.56zm1.63 5.67h-62.26c-.1.52-.19 1-.29 1.56h63c-.17-.52-.31-1.03-.46-1.56zm1.53 5.66h-64.82c-.1.52-.19 1-.28 1.56H288c-.13-.52-.26-1.04-.4-1.56zm1.45 5.66H221.8l-.27 1.57h67.9c-.13-.52-.26-1.05-.38-1.57zm1.37 5.67h-69.58c-.08.52-.17 1-.25 1.56h70.18zm1.3 5.66H220l-.24 1.56h72.36c-.12-.52-.28-1.04-.4-1.56zm1.25 5.66h-73.89c-.08.53-.15 1.06-.23 1.57h74.44zm1.18 5.67h-75.87q-.12.81-.21 1.56h76.37c-.09-.51-.2-1.01-.3-1.56zm1.09 5.66h-77.7c-.06.55-.12 1.08-.17 1.57h78.14c-.09-.5-.18-1.03-.28-1.57zm1 5.67H217a3.45 3.45 0 00.07 1.41 1.17 1.17 0 00.47.15h78.86c-.05-.46-.12-.98-.2-1.56z" fill="#263238"/><path d="M272.49 144c33.54 25.2 62.54 60.18 59.76 71.26-2.95 11.71-26.13 24.81-46.61 27.48-4.19.55-17.16-30.2-12.87-31.61 3.35-1.1 18.57-5.43 20.39-7.51 1.26-1.45-22.35-34.67-30-52-8.08-18.21.35-14.41 9.33-7.62z" fill="#ffc4c0"/><path d="M281.42 210.16s-12.8 1.28-21.13 2.52c-4.65.69-12.51 2.58-15.69 4.65-4.76 3.09-22.7 19.07-18.92 23.5 3.42 4 8.59-2.34 8.59-2.34s-6.3 6.41-1.68 9.35 10.58-6 10.58-6-7.16 6.34-1.93 9c4.54 2.31 12.48-7.23 12.48-7.23s-8.25 5.84-3.83 8.66c4.88 3.12 18.58-9.68 18.58-9.68 10.95 1.22 17.7.47 25.42-1.69 1.41-.36-12.47-30.74-12.47-30.74z" fill="#ffc4c0"/><path d="M241.25 244c.49-.68 1-1.35 1.5-2a42.22 42.22 0 013.06-3.84c1.09-1.17 2.23-2.29 3.4-3.38s2.61-2.17 3.81-3.35a.1.1 0 11.13.14 43.79 43.79 0 00-3.42 3.65c-1.09 1.22-2.16 2.45-3.24 3.68s-2.17 2.33-3.26 3.5c-.54.59-1 1.2-1.57 1.8a13.6 13.6 0 01-1.5 1.71.08.08 0 01-.11-.09 10.18 10.18 0 011.2-1.82zm-8.25-4.15a66.6 66.6 0 015.53-7.25 45.84 45.84 0 016.75-6.16c.09-.06.2.06.13.14-2 2.28-4.11 4.52-6.18 6.77-1 1.1-5.45 6.23-6 6.71-.13.12-.31-.06-.23-.21zm15.91 8.28a64.56 64.56 0 015.32-6.73 59.67 59.67 0 016.87-5.4c.09 0 .21.06.13.14-2.15 2-4.32 3.92-6.36 6-1 1-4.74 5.3-5.78 6.19-.09.04-.24-.09-.18-.2z" fill="#263238"/><path d="M309.78 175l-25.54 16.56s-18.95-29.34-23.86-43.24.81-13.93 14.22-3.86S309.78 175 309.78 175z" fill="#455a64"/><path d="M270.72 141.72h-12a7.7 7.7 0 010-1.57h9.61c.67.46 1.53.99 2.39 1.57zm5.62 4.1h-16.78c.14.5.3 1 .49 1.56h18.28zm7 5.66h-21.73c.21.5.44 1 .68 1.56h22.9c-.62-.53-1.19-1.04-1.86-1.56zm6.65 5.67h-25.75l.78 1.56h26.75zm6.43 5.66h-29.27c.28.51.56 1 .85 1.56h30.14zm6.27 5.66h-32.42l.89 1.57h33.23zm6.15 5.67h-35.3c.31.53.61 1.05.92 1.56h34.29l1-.67zm-31.92 5.66l.94 1.56H300l2.4-1.56zm3.47 5.67l1 1.56h9.92l2.41-1.56zm3.57 5.66l.29.46.71-.46z" fill="#263238"/><path d="M304 171.37c-9.74 7.75-19.36 13-21.27 14.35-.09.06-.17-.09-.08-.15 1.94-1.18 12.35-8.84 21.25-14.36.1-.07.17.09.1.16z" fill="#263238"/><path d="M285.88 190.46a12.81 12.81 0 00-1.55.8c-2.84-4.9-5.9-9.86-8.79-14.74l-4.24-7.16c-1.46-2.49-2.8-5.09-4.4-7.49a.06.06 0 00-.11.06 76.2 76.2 0 003.48 6.94c-.26-.34-.51-.7-.79-1-.63-.75-1.25-1.5-1.81-2.3-.09-.12-.3 0-.21.12.54.76 1 1.55 1.51 2.35s1 1.56 1.55 2.33 1.09 1.44 1.66 2.13a2.56 2.56 0 00.2.26c.78 1.43 1.54 2.86 2.35 4.27 2.84 4.93 9.29 14.86 9.38 14.83a13.18 13.18 0 001.85-1.23c.04-.09.04-.19-.08-.17z" fill="#263238"/><path d="M230.47 143c-27.22 14.14-52.78 31.34-57.58 43.29-3 7.52.71 21.15 3.74 29.34 1.48 4 39.13-11.54 36-14.85-7.74-8.18-9-11.46-8.15-13.12.53-1.06 30.32-26.92 38.68-38.58 11.66-16.24-.78-12.27-12.69-6.08z" fill="#ffc4c0"/><path d="M226.86 237.71c-3.56 2-7.74-7.19-7.74-7.19a7.5 7.5 0 01-2.1 4.67c-2.26 2.12-6.57-.5-6.57-.5a9.31 9.31 0 01-3 4.57c-2.37 1.81-7.1-.2-7.1-.2a8.11 8.11 0 01-5.17 2.35c-5.22.16-9.65-6.47-12.52-10.65s-7.06-18.75-8.14-21.44l26.71-18.61s18.18 15.12 20.85 20.52c2.24 4.55 10.21 23.43 4.78 26.48z" fill="#ffc4c0"/><path d="M219.18 230.39C218 225 215.43 219.88 213 215c-.06-.11-.23 0-.17.08 2.53 4.85 3.82 10.49 6.16 15.42a.13.13 0 00.19-.11zm-8.44 3.97a14.64 14.64 0 00-1.65-3.4c-.67-1.16-1.35-2.31-2.05-3.46-1.41-2.28-2.87-4.53-4.4-6.74-.07-.1-.23 0-.17.09 1.4 2.28 2.77 4.58 4.07 6.91.65 1.17 1.29 2.35 1.93 3.52a17.14 17.14 0 001.94 3.25.19.19 0 00.33-.17zM200.29 239a10.17 10.17 0 00-1.64-3c-.67-1-1.32-2.06-2-3.09-1.31-2.07-2.61-4.14-3.84-6.25a.1.1 0 00-.17.09c1.24 2.15 2.45 4.32 3.71 6.46.62 1 1.24 2.1 1.87 3.15a9.34 9.34 0 001.94 2.7c.08 0 .15-.06.13-.06z" fill="#263238"/><path d="M191.15 164.19l19.93 19.55s26.21-23.21 33.8-35.85 2-13.82-13.17-6.62-40.56 22.92-40.56 22.92z" fill="#00e77f"/><path d="M191.15 164.19l19.93 19.55s26.21-23.21 33.8-35.85 2-13.82-13.17-6.62-40.56 22.92-40.56 22.92z" fill="#455a64"/><path d="M248.2 140.15a8.36 8.36 0 01-.35 1.57h-17.07l.93-.45c.84-.4 1.65-.77 2.43-1.12zm-25.41 5.67l-2.88 1.56h25.27c.32-.54.62-1.07.89-1.56zm-10.2 5.66l-2.73 1.52h31.41c.41-.53.8-1 1.18-1.56zm-9.77 5.67l-2.61 1.56h36.29c.46-.52.92-1 1.36-1.56zm-9.42 5.66l-2.25 1.38.18.18h39.92l1.48-1.56zm2.11 5.66l1.6 1.57h28.55l1.57-1.57zm5.78 5.67l1.59 1.56h16.92l1.65-1.56zm5.77 5.66l1.59 1.56h5.07l1.7-1.56z" fill="#263238"/><path d="M215.22 178.63c-9.2-7.82-16-15.95-17.58-17.51-.07-.08.06-.19.13-.11 1.48 1.62 10.71 10.09 17.6 17.5.08.09-.06.2-.15.12zm17.63-25.99c-1 2.14-2 4.27-2.85 6.47v-.44a28.33 28.33 0 01.61-4c0-.15-.19-.22-.23-.07-.3 1.33-.57 2.68-.78 4-.11.65-.17 1.3-.22 1.95a2.12 2.12 0 010 .24.19.19 0 000 .08c-1 2.93-1.58 5.93-2.41 8.89a.11.11 0 10.22.06c.82-2.9 2-5.71 3-8.54s1.86-5.72 2.84-8.57c.03-.09-.14-.17-.18-.07z" fill="#263238"/><path d="M246.87 150.31c4.38 1.2 12.21-5.26 15.4-10.62.22-.37-.21-4.34-.5-9.19-.17-3-.29-6.23-.18-9.23 0-.62-19 3.88-19 3.88a48 48 0 011.4 11.6 7.61 7.61 0 01-.18 1.22 1.18 1.18 0 000 .21c-.5 2.32-1.17 10.96 3.06 12.13z" fill="#ffc4c0"/><path d="M260.43 121.3c-1.06 5-4.67 17.2-14.73 17a10.31 10.31 0 01-1.92-.17 1.05 1.05 0 010-.21 7.61 7.61 0 00.18-1.22 48.16 48.16 0 00-1.4-11.61s13.76-3.19 17.87-3.79z" fill="#263238"/><path d="M241.44 110.75c.09 4.61-3.12 8.42-7.17 8.49s-7.4-3.59-7.49-8.21 3.12-8.42 7.17-8.5 7.4 3.6 7.49 8.22z" fill="#00e77f"/><ellipse cx="235.67" cy="111.15" rx="8.16" ry="9.3" transform="rotate(-1.1 236.46 111.66)" fill="#c7c7c7"/><path d="M260.62 96.33c3.11 6.26 2.81 25.88-1.17 30.91-5.77 7.29-16.8 9.73-23.4 2.44-6.39-7.08-5.54-32.64-.94-37.37 6.76-6.97 20.89-5.22 25.51 4.02z" fill="#ffc4c0"/><path d="M245.16 113.38s.1.06.1.12c-.06 1.32.1 2.84 1.29 3.29v.08c-1.46-.22-1.65-2.25-1.39-3.49z" fill="#263238"/><path d="M246.36 112c2.12-.14 2.24 4.13.27 4.26s-2.06-4.13-.27-4.26zm-8.59 1.63s-.11.07-.1.12c.08 1.32-.06 2.84-1.24 3.32v.07c1.47-.25 1.62-2.27 1.34-3.51z" fill="#263238"/><path d="M236.55 112.28c-2.13-.1-2.18 4.17-.21 4.26s1.99-4.17.21-4.26zm11.68-3.7a14.54 14.54 0 01-1.74-.23 2.86 2.86 0 01-1.73-.58.89.89 0 01-.08-1.09 2.24 2.24 0 012.16-.69 3.25 3.25 0 012.15 1 1 1 0 01-.76 1.59zm-13.73.65c.59-.12 1.11-.32 1.68-.49a2.85 2.85 0 001.62-.83.9.9 0 00-.08-1.1 2.22 2.22 0 00-2.24-.35 3.27 3.27 0 00-2 1.31 1 1 0 001.02 1.46zm13.22 16.37c-.31.31-.62.75-1.09.8a3.52 3.52 0 01-1.43-.29s-.09 0-.06.07a1.79 1.79 0 001.7.67 1.41 1.41 0 001-1.2c.02-.08-.08-.1-.12-.05zm-1.51-3.92a4.5 4.5 0 01-2.94 2.09 5.85 5.85 0 01-1.62.12 1.55 1.55 0 01-.31 0h-.29a.32.32 0 01-.27-.29.66.66 0 010-.14v-.12c-.05-1 0-2.56 0-2.56-.36.19-2.23 1.1-2.22.57.14-4.41.29-9.31 1.36-13.67a.12.12 0 01.24 0c0 4.24-.67 8.46-.71 12.72a7.68 7.68 0 012.11-.7c.14 0-.16 3-.1 3.44a6.23 6.23 0 004.62-1.58c.1-.07.21.01.13.12z" fill="#263238"/><path d="M242.24 123.35a5.34 5.34 0 002.18 1.6 2.41 2.41 0 001.46 0c1.05-.31 1.05-1.28.83-2.1a6 6 0 00-.51-1.26 6.89 6.89 0 01-3.96 1.76z" fill="#263238"/><path d="M244.42 125a2.41 2.41 0 001.46 0c1.05-.31 1.05-1.28.83-2.1a2.49 2.49 0 00-2.29 2.1z" fill="#ff98b9"/><path d="M262.71 110.25c-1.28-.24-4.24-4.67-5.51-6.43s-1.77-11.06-1.84-13.16a13.92 13.92 0 015.26 5.67c1.38 2.8 2.09 8.27 2.09 13.92z" fill="#263238" opacity=".2"/><path d="M239.21 97.89a6.66 6.66 0 006.08 2.22 6.77 6.77 0 005.19-4.11c0-.06.12 0 .1 0a6.7 6.7 0 01-5.2 4.57 6.84 6.84 0 01-6.3-2.64c-.08-.02.06-.12.13-.04zM246 81.45c3.85.07 7.39 2.18 8.82 4.79a7.47 7.47 0 01.75 4.85c0 .07-.15.06-.14 0a8.19 8.19 0 00-3.9-7.37 10.53 10.53 0 00-9.34-1.07 6.74 6.74 0 00-3.57 2.9c-.07.14-.36 0-.3-.1 1.02-2.45 4.18-4.05 7.68-4zm-22.32 8.48a8.45 8.45 0 013.59-4.59c2.35-1.47 5-1.27 7.67-1 .08 0 .07.12 0 .11-2.26-.21-4.56-.29-6.63.79a8.28 8.28 0 00-3.84 4.08 8.13 8.13 0 003.43 10.08 8.25 8.25 0 006.52.63c.08 0 .14.09.06.13a8.3 8.3 0 01-10.8-10.21z" fill="#263238"/><path d="M261.92 100.15s3.58-6.92.49-10.88c-1.76-2.24-7.5-1.88-7.5-1.88a10.38 10.38 0 00-6.66-4.33c-4.82-1-10.51 1.82-10.51 1.82s-4.59-2.57-8.84-.08c-5.93 3.47-5.09 12.55.94 15.41 4.24 2 9.93-1.79 9.93-1.79.55.07 6.22 3.41 10.43-1.66 0 0 3.49 3 6.58.85a5 5 0 005.14 2.54z" fill="#263238"/><path d="M259.14 112.53s3.41-6.81 6.44-5.68 1.09 10.56-2 12.27a3.38 3.38 0 01-4.75-1.14z" fill="#ffc4c0"/><path d="M265 109.54c.05 0 .07.06 0 .09-2.17 1.27-3.07 3.59-3.6 5.93a1.87 1.87 0 012.69-.91c.07 0 0 .14 0 .13a2.08 2.08 0 00-2.16 1 9.82 9.82 0 00-.82 2c-.08.23-.47.17-.42-.08-.53-2.95 1.15-7.4 4.31-8.16z" fill="#263238"/><path fill="#c7c7c7" d="M251.71 126.18l6.22-2.49 5.11-6.03-.93-.79-4.91 5.8-5.94 2.38.45 1.13z"/><path d="M252.39 125.22c-.55-1.81-5.59-1.28-4.75 1.46s5.36.32 4.75-1.46z" fill="#37474f"/><path d="M265.68 106.67s.93-10.06-1.87-15.69c-3.13-6.27-16.59-12.51-26.07-6.1 0 0 15.24-2.32 22.07 6.44 2.88 3.69 2.5 15.53 2.5 15.53z" fill="#c7c7c7"/><ellipse cx="264.26" cy="111.81" rx="9.3" ry="8.16" transform="rotate(-87.94 264.268 111.801)" fill="#c7c7c7"/><path d="M258.5 111.31c-.17 4.61 3 8.47 7 8.61s7.47-3.47 7.63-8.08-3-8.47-7-8.62-7.47 3.48-7.63 8.09z" fill="#00e77f"/><path d="M264.55 141.08a87.88 87.88 0 01-6.58 7.31c-2.25 2.1-5 4-8 4.3s-6-.28-7.11-3.92c-.9-2.89-.78-5.87-.3-9.59a.11.11 0 10-.22 0c-.64 4.78-1.28 12.19 3.07 13.8 4.88 1.81 9.62-.74 13-4.12a45.8 45.8 0 006.26-7.67c0-.09-.08-.19-.12-.11z" fill="#263238"/><path fill="#c7c7c7" d="M200.68 250.56h88.93v3.99h-88.93z"/><path fill="#a6a6a6" d="M270.57 250.56l3.05 3.99h-72.94v-3.99h69.89z"/><path fill="#c7c7c7" d="M266.77 254.55H180.1l-7.21-58.86h86.67l7.21 58.86z"/><path d="M225.11 225.12a5.17 5.17 0 01-5.19 5.27 5.38 5.38 0 01-5.36-5.27 5.15 5.15 0 015.18-5.28 5.4 5.4 0 015.37 5.28z" fill="#fff"/><path fill="#455a64" d="M373.51 262.33h92.72v11.88h-92.72z"/><path fill="#37474f" d="M376.12 274.21h87.49v3.71h-87.49z"/><path fill="#455a64" d="M388.62 364.54h62.5v3.71h-62.5z"/><path fill="#455a64" d="M386.59 419.08h-4.63V277.92h12.63l-8 141.16z"/><path fill="#263238" d="M394.59 277.92l-.47 8.35h-12.16v-8.35h12.63z"/><path fill="#455a64" d="M453.14 419.08h4.64V277.92h-12.64l8 141.16z"/><path fill="#263238" d="M445.14 277.92l.48 8.35h12.15v-8.35h-12.63z"/></svg>